<?xml version="1.0" encoding="utf-8"?>
<!-- Generator: Adobe Illustrator 27.0.0, SVG Export Plug-In . SVG Version: 6.00 Build 0)  -->
<svg version="1.1" id="image" xmlns="http://www.w3.org/2000/svg" xmlns:xlink="http://www.w3.org/1999/xlink" x="0px" y="0px"
	 viewBox="0 0 219.73 166.48" style="enable-background:new 0 0 219.73 166.48;" xml:space="preserve">
<style type="text/css">
	.st0{fill:#C9AA85;stroke:#251E1C;stroke-width:3.61;stroke-linecap:round;stroke-linejoin:round;stroke-miterlimit:10;}
	.st1{fill:#9E8B78;stroke:#251E1C;stroke-width:3.61;stroke-linecap:round;stroke-linejoin:round;stroke-miterlimit:10;}
	.st2{fill:#FFFFFF;}
	.st3{fill:#9E8B78;}
	.st4{fill:none;stroke:#251E1C;stroke-width:3.61;stroke-linecap:round;stroke-linejoin:round;stroke-miterlimit:10;}
	.st5{fill:#251E1C;}
	.st6{fill:#FFFFFF;stroke:#251E1C;stroke-width:3.61;stroke-linecap:round;stroke-linejoin:round;stroke-miterlimit:10;}
</style>
<g>
	<polygon class="st0" points="45.52,98.32 65.42,59.24 21.7,111.96 1.8,151.03 	"/>
	<rect x="21.7" y="111.96" class="st0" width="125.55" height="52.72"/>
	<rect x="96.17" y="134.5" class="st6" width="41.58" height="21.66"/>
	<polygon class="st0" points="147.25,164.68 190.97,111.96 190.97,59.24 147.25,111.96 	"/>
	<polygon class="st0" points="174.21,150.66 217.93,97.95 190.97,59.24 147.25,111.96 	"/>
	<polygon class="st0" points="190.97,59.24 65.42,59.24 21.7,111.96 147.25,111.96 	"/>
	<path class="st2" d="M159.47,95.08c-3.1-6.15-8.53-10.6-13.72-14.94c-2.91-2.43-5.88-4.84-9.14-6.78c-2.86-1.7-5.83-3.21-8.78-4.76
		c2.26-2.35,4.42-4.84,6.26-7.52c1.02-1.48,1.88-3.06,2.48-4.76c0.67-1.87,0.84-3.87,1.09-5.82c1-7.68,2.38-15.88-1.29-23.05
		c-0.12-0.63-0.29-1.25-0.55-1.85c0.02-0.1,0.04-0.2,0.05-0.3c0.33-3.59-0.24-6.96-1.02-10.45c-0.76-3.45-0.75-7.11-1-10.63
		c-0.09-1.24-1.51-2.41-2.72-1.56c-2.51,1.78-5.02,3.56-7.52,5.35c-2.08,1.49-4.08,3.07-5.44,5.26c-1.37-0.34-2.77-0.51-4.21-0.61
		c-1.26-0.09-2.53-0.15-3.79-0.21c-4.66-1.45-9.63-1.89-14.47-1.25c-0.43,0.06-0.83,0.21-1.14,0.46l-4.38-0.23
		c-2.68-3.27-5.67-6.27-8.94-8.96c-0.01-0.01-0.03-0.02-0.04-0.03c-0.73-1.03-2.76-1.12-3.32,0.49c-2.28,6.56-4.47,13.18-5.11,20.13
		c-4.77,5.85-5.31,13.55-5.28,20.82c0.01,1.8,0.12,3.63,0.55,5.39c0.45,1.85,1.42,3.5,2.06,5.27c1.13,3.1,2.29,5.89,4.61,8.32
		c2,2.1,4.52,3.69,7.26,4.62c-0.01,0.08-0.03,0.16-0.03,0.25l-0.21,4.31c-1.65,1.35-3.63,2.28-5.37,3.54
		c-2.81,2.04-5.4,4.42-8.03,6.67c-2.65,2.26-5.08,4.71-7.64,7.06c-1.2,1.11-2.56,2-3.84,3.02c-1.29,1.04-2.34,2.31-3.27,3.68
		c-0.12,0.18-0.19,0.35-0.24,0.52c-2.42,1.68-4.93,3.23-6.93,5.44c-1.53,1.69-2.83,3.6-3.8,5.66c-1,2.14-2,4.66-1.84,7.07
		c0.07,1.02,0.35,2.05,0.92,2.92c0.64,0.98,1.52,1.5,2.49,2.1c0.79,0.5,1.08,1.45,1.76,2.08c0.87,0.81,1.97,1.35,3.06,1.78
		c4.38,1.74,9.37,0.75,13.3-1.65c2.12-1.29,4.4-3.04,5.57-5.29c0.7-1.35,0.94-2.84,0.69-4.24c0.91,0.05,1.81,0.01,2.76-0.23
		c1.22-0.3,2.51-0.26,3.77-0.3c1.94-0.07,3.87-0.08,5.81,0c-1.68,1.39-3.09,3.05-3.68,5.25c-1.04,3.87,1.34,6.85,4.25,9.1
		c3.17,2.45,6.86,2.83,10.58,1.42c3.55-1.35,6.83-3.43,9.87-5.69c3.42-2.55,6.6-5.39,9.77-8.25c0.47-0.43,0.62-0.92,0.55-1.39
		c1.74-0.17,3.48-0.36,5.21-0.61c0.24-0.03,0.49-0.19,0.7-0.39c9.1,0.9,18.25,1.21,27.4,0.93c0.55-0.02,0.97-0.24,1.26-0.56
		c0.22-0.14,0.42-0.35,0.58-0.64c1.35-2.47,3.67-4.33,5.58-6.35c2.1-2.23,4.12-4.55,6.06-6.93c0.29-0.35,0.46-0.77,0.5-1.19
		C159.73,96.14,159.74,95.62,159.47,95.08z"/>
	<g>
		<path class="st3" d="M89.78,10.15c-0.19-0.19-0.41-0.33-0.63-0.41c-0.06-0.09-0.12-0.18-0.19-0.26c-1.09-1.33-2.43-2.4-3.76-3.48
			c-0.65-0.53-1.3-1.06-1.91-1.62c-0.32-0.3-0.63-0.6-0.93-0.92c-0.13-0.14-0.27-0.29-0.39-0.44c-0.06-0.07-0.13-0.18-0.2-0.25
			c-0.01-0.01-0.02-0.03-0.03-0.04c-0.29-0.39-0.59-0.7-1.08-0.83c-0.43-0.12-1.01-0.07-1.39,0.18c-0.28,0.18-0.53,0.47-0.7,0.79
			c-0.5,0.09-0.96,0.37-1.16,0.84c-1.06,2.38-2.14,4.76-2.85,7.27c-0.7,2.48-0.97,5.05-1.7,7.52c-0.45,1.53,1.31,2.82,2.65,2.04
			c4.72-2.73,10.01-4.35,14.27-7.83C90.53,12.08,90.42,10.79,89.78,10.15z"/>
		<path class="st3" d="M135.78,16.97c-0.26-1.4-0.43-2.81-0.59-4.23c-0.32-2.76-0.49-5.87-1.75-8.4c-0.74-1.49-2.4-2.06-3.92-1.43
			c-1.26,0.52-2.27,1.73-3.25,2.65c-2.17,2.05-4.3,4.14-6.38,6.28c-0.05,0.05-0.09,0.11-0.13,0.16c-0.39,0.15-0.74,0.42-0.94,0.76
			c-0.53,0.91-0.15,1.9,0.65,2.47c2.17,1.55,4.76,2.25,7.13,3.43c2.48,1.23,4.59,3.1,7.13,4.21c1.3,0.57,2.59-0.11,2.72-1.56
			C136.56,19.86,136.04,18.4,135.78,16.97z"/>
		<path class="st3" d="M53.92,106.27c-3.86,0.37-7.97,1.15-11.05,3.43c-0.53,0.02-1.05,0.25-1.43,0.8
			c-0.25,0.36-0.43,0.73-0.59,1.09c-0.4,0.48-0.77,1-1.09,1.58c-0.62,1.09,0,2.11,0.88,2.52c0.77,2.71,3.13,5.15,5.58,6.38
			c4.24,2.12,10.3,2.52,14.53,0.2c2.05-1.12,4.2-2.78,5.41-4.81c1.28-2.15,1.43-4.89,0.43-7.18
			C64.41,105.27,58.46,105.83,53.92,106.27z"/>
		<path class="st3" d="M95.35,113.14c-1.8-1.7-3.83-2.87-6.25-3.42c-1.29-0.29-2.77-0.7-4.08-0.34c-1.1,0.29-1.98,0.99-2.8,1.74
			c-1.82,0.86-3.58,1.72-4.59,3.59c-1.02,1.9-1.2,4.22-0.57,6.27c0.68,2.19,2.15,3.79,3.96,5.12c1.67,1.24,3.55,2.42,5.61,2.87
			c2.32,0.51,4.59-0.13,6.81-0.81c0.98-0.3,2-0.64,2.86-1.22c0.94-0.64,1.65-1.56,2.25-2.51c1.28-2.05,1.45-4.16,0.43-6.36
			C98.11,116.24,96.83,114.54,95.35,113.14z"/>
	</g>
	<path class="st4" d="M73.26,17.49c1.25-4.14,2.51-8.28,3.76-12.43c0.39-1.29,0.94-2.75,2.15-3.16c1.31-0.44,2.62,0.58,3.66,1.54
		c3.01,2.78,6.02,5.56,9.03,8.34"/>
	<path class="st4" d="M88.92,11.95c10.25-1.37,20.75-0.54,30.7,2.41"/>
	<path class="st4" d="M119.27,12.86c2.85-3.59,6.11-6.81,9.68-9.57c1-0.77,2.23-1.54,3.39-1.11c1.19,0.44,1.69,1.89,2.01,3.18
		c1.25,5.07,1.96,10.29,2.12,15.53"/>
	<path class="st4" d="M73.39,21.77c-4.04,7.79-6.9,16.52-6.04,25.26s6.09,17.41,14.3,20.5"/>
	<path class="st4" d="M136.34,23.75c1.56,7.52,3.12,15.17,2.47,22.83c-0.65,7.66-4.26,17.74-10.52,22.2"/>
	<path class="st4" d="M70.03,111.39c5.33-5.18,10.66-10.36,16-15.54"/>
	<path class="st4" d="M103.19,89.12c-6.61,7.14-13.22,14.28-19.82,21.42"/>
	<path class="st4" d="M80.89,112.06c-3.23,1.56-4.72,5.74-3.68,9.18c1.04,3.43,4.21,5.98,7.7,6.82c3.49,0.84,7.22,0.14,10.48-1.35
		s6.12-3.75,8.81-6.12c7.35-6.47,13.77-14,19-22.27"/>
	<path class="st4" d="M128.3,68.79c13.82,7.32,22.7,14.37,32.32,27.06"/>
	<path class="st1" d="M64.27,85.6C52.66,83.42,45.31,67.97,43.2,62.98c-2.11-4.99-2.69-10.77-1.63-16.31
		c0.54-2.8,1.48-5.55,1.74-8.38c0.26-2.83-0.29-5.89-2.27-7.66c-1.89-1.68-4.79-1.82-7.16-0.71c-2.38,1.11-4.24,3.32-5.43,5.78
		c-1.18,2.46-1.75,5.17-2.1,7.86c-1.74,13.29,3.55,40.63,25.66,53.68"/>
	
		<ellipse transform="matrix(0.059 -0.9983 0.9983 0.059 49.2348 137.5065)" class="st3" cx="97.55" cy="42.64" rx="9.54" ry="13.83"/>
	<path class="st4" d="M81.66,71.18c-10.61,7.35-23.91,20.58-33.22,29.51c-2.07,1.98-4.12,4.03-5.6,6.48s-2.36,5.37-1.87,8.19
		c0.62,3.59,3.45,6.58,6.84,7.94c3.38,1.36,7.23,1.25,10.74,0.28c3.49-0.96,6.91-2.9,8.68-6.05c1.77-3.16,1.38-7.67-1.53-9.83"/>
	<line class="st4" x1="70.03" y1="111.96" x2="80.89" y2="111.96"/>
	<line class="st4" x1="147.25" y1="111.96" x2="112.9" y2="111.96"/>
	<g>
		
			<ellipse transform="matrix(0.0742 -0.9972 0.9972 0.0742 46.0658 124.102)" class="st5" cx="89.87" cy="37.24" rx="4.51" ry="2.38"/>
		
			<ellipse transform="matrix(0.0742 -0.9972 0.9972 0.0742 60.3144 141.9391)" class="st5" cx="106.6" cy="38.49" rx="4.51" ry="2.38"/>
		<path class="st4" d="M89.9,50.32c3.12-0.16,6.04-2.31,7.11-5.24c0.06,1.78,0.9,3.39,2.15,4.65c1.25,1.26,2.98,2.03,4.76,2.12"/>
	</g>
	<line class="st4" x1="166.19" y1="89.12" x2="147.25" y2="111.96"/>
	<line class="st0" x1="65.42" y1="59.24" x2="65.42" y2="84.55"/>
	<line class="st4" x1="103.19" y1="141.68" x2="128.3" y2="141.68"/>
	<line class="st4" x1="103.19" y1="149.45" x2="116.96" y2="149.45"/>
</g>
</svg>
