<?xml version="1.0" encoding="utf-8"?>
<!-- Generator: Adobe Illustrator 27.0.0, SVG Export Plug-In . SVG Version: 6.00 Build 0)  -->
<svg version="1.1" id="image" xmlns="http://www.w3.org/2000/svg" xmlns:xlink="http://www.w3.org/1999/xlink" x="0px" y="0px"
	 viewBox="0 0 206.79 146.91" style="enable-background:new 0 0 206.79 146.91;" xml:space="preserve">
<style type="text/css">
	.st0{fill:#C9AA85;stroke:#251E1C;stroke-width:3.61;stroke-linecap:round;stroke-linejoin:round;stroke-miterlimit:10;}
	.st1{fill:#9E8B78;stroke:#251E1C;stroke-width:3.61;stroke-linecap:round;stroke-linejoin:round;stroke-miterlimit:10;}
	.st2{fill:#FFFFFF;}
	.st3{fill:#9E8B78;}
	.st4{fill:none;stroke:#251E1C;stroke-width:3.61;stroke-linecap:round;stroke-linejoin:round;stroke-miterlimit:10;}
	.st5{fill:#251E1C;}
	.st6{fill:#FFFFFF;stroke:#251E1C;stroke-width:3.61;stroke-linecap:round;stroke-linejoin:round;stroke-miterlimit:10;}
</style>
<g>
	<polyline class="st0" points="161.06,138.55 204.98,115.14 204.98,21.35 111.19,21.35 67.26,44.76 	"/>
	<rect x="67.26" y="44.76" class="st0" width="93.79" height="93.79"/>
	<line class="st4" x1="161.06" y1="44.76" x2="204.98" y2="21.35"/>
	<path class="st2" d="M139.15,88.98c-0.29-4.22-2.11-7.85-4.68-11.13c-2.43-3.1-5.34-6.38-8.67-8.51c-4.05-2.6-8.99-2.87-13.64-3.34
		c-5.16-0.52-10.25-1.57-15.22-3.07c-0.11-0.03-0.22-0.05-0.32-0.06c-0.02-0.1-0.05-0.2-0.06-0.31c0.1-0.14,0.2-0.29,0.27-0.47
		c2.34-5.57,3.33-11.61,3.52-17.63c0.13-4.17,0.05-8.56-0.55-12.8c0.12-1.64,0.11-3.27-0.02-4.91c0.23-2.64,0.35-5.29,0.32-7.94
		c-0.02-1.58-0.08-3.17-0.18-4.75c-0.1-1.44-0.18-2.94-1.02-4.17c-0.65-0.95-1.97-1.23-2.84-0.37c-1.97,1.96-4.02,3.83-6.17,5.59
		c-1.63,1.34-3.28,2.66-4.74,4.18c-8.79-3.59-18.26-3.78-27.63-4.34c-1.6-4.37-3.97-8.39-7.03-11.92c-0.84-0.96-2.2-0.49-2.83,0.37
		c-3.87,5.19-6.53,11.26-7.76,17.62c-2.53,3.09-5.34,6.4-6.35,10.27c-1.15,4.4-2.11,9.02-2.31,13.58c-0.1,2.2,0.02,4.46,0.72,6.57
		c0.67,2.02,1.72,3.94,2.76,5.8c2.2,3.91,5.91,6.71,9.16,9.72c0.14,0.13,0.28,0.22,0.43,0.3c-1.1,3.37-2.89,6.34-5.24,9.03
		c-2.68,3.07-5.07,6.22-6.91,9.88c-2.21,4.39-3.65,9.04-5.1,13.69c-0.6,0.16-1.07,0.64-1.31,1.26c-1.87,4.84-3.52,9.77-4.96,14.76
		c-1,1.89-2.07,3.74-3.21,5.53c-0.01,0.01-0.01,0.02-0.01,0.02c-0.16,0.03-0.33,0.08-0.5,0.17c-2,1.01-4.62,1.86-5.91,3.81
		c-1.17,1.76-1.22,4.21-0.73,6.21c1.18,4.83,7.29,5.05,11.34,4.51c4.41-0.59,8.33-3.71,11.75-6.37c3.69-2.87,6.2-6.44,8.06-10.7
		c1.86-4.26,3.49-8.64,5.01-13.04c4.65,1.71,9.49,2.78,14.43,3.25c-1.28,2.83-1.95,5.9-2.69,8.91c-0.96,3.89-1.86,7.8-2.48,11.76
		c-0.02,0.1-0.02,0.2-0.02,0.31c-3.97,1.33-6.28,5.54-5.54,9.63c0.94,5.21,7.66,5.78,11.93,5.17c4.95-0.71,8.23-5.45,10.91-9.23
		c3.03-4.27,5.1-8.8,6.38-13.88c0.9-3.58,1.58-7.22,2.11-10.88c3.7,0.24,7.15,2.04,10.73,2.97c4.43,1.16,9.16,1.64,13.72,2.01
		c8.23,0.66,17.07-0.11,23.95-5.11c3.16-2.3,5.67-5.25,7.16-8.88C138.81,98.05,139.44,93.28,139.15,88.98z"/>
	<path class="st3" d="M57.88,12.78c-2.28-3.24-4.65-6.42-7.08-9.55c-0.08-0.16-0.18-0.31-0.32-0.44c-0.06-0.05-0.12-0.09-0.18-0.14
		c-0.01-0.01-0.03-0.02-0.04-0.03c-0.72-0.49-1.68-0.47-2.33,0.17c-1.66,1.61-2.89,3.6-3.86,5.68c-0.51,1.08-0.96,2.19-1.4,3.3
		c-0.5,1.23-0.91,2.4-1.09,3.73c0,0.02,0,0.04,0,0.06c-0.28,0.11-0.57,0.21-0.85,0.32c-0.91,0.34-1.54,1.22-1.26,2.22
		c0.24,0.87,1.3,1.61,2.22,1.26c4.71-1.78,9.55-3.63,14.64-3.79c0.8-0.02,1.32-0.48,1.57-1.05C58.19,13.98,58.25,13.31,57.88,12.78z
		"/>
	<path class="st3" d="M99.97,9.62c-0.17-0.87-1.14-1.4-1.98-1.3c-0.23-0.03-0.46-0.01-0.69,0.08c-2.23,0.87-4.1,2.27-6.02,3.65
		c-1.87,1.35-3.77,2.71-5.31,4.45c-0.16,0.18-0.29,0.4-0.38,0.62c-0.76-0.16-1.53,0.06-1.97,0.8c-0.45,0.76-0.25,2.08,0.65,2.47
		c2.61,1.13,5.43,2.1,7.84,3.64c2.29,1.47,4.53,3.16,6.54,4.99c1.13,1.03,3.09,0.34,3.08-1.28C101.72,21.67,101.12,15.6,99.97,9.62z
		"/>
	<path class="st6" d="M20.56,56.48c-1.15-1.3-2.4-2.56-3.94-3.38c-1.54-0.81-3.41-1.13-5.03-0.5c-1.62,0.63-2.84,2.37-2.57,4.08
		c0.3,1.86,2.2,3.12,4.07,3.31c1.87,0.2,3.72-0.43,5.49-1.05"/>
	<path class="st6" d="M4.48,71C3,72.15,1.66,73.81,1.82,75.68c0.14,1.73,1.66,3.17,3.36,3.48s3.5-0.37,4.77-1.56
		c1.27-1.18,2.06-2.81,2.51-4.48c0.32-1.2,0.61-2.57,0.6-3.82c-0.01-1.23-0.46-1.45-1.64-1.28C8.91,68.38,6.47,69.45,4.48,71z"/>
	<g>
		<path class="st3" d="M28.49,125.59c-2.77-2.38-6.31-3.77-9.97-3.82c-2.41-0.04-4.47,0.55-6.34,2.1c-1.69,1.4-2.99,3.24-3.08,5.49
			c-0.02,0.48,0.13,0.86,0.36,1.14c0.32,3.57,3.9,5.86,7.24,6.38c2.09,0.33,4.24,0.36,6.35,0.22c2.03-0.13,4.15-0.45,5.88-1.59
			c1.85-1.22,2.94-2.96,2.58-5.21C31.21,128.38,29.93,126.83,28.49,125.59z"/>
		<path class="st3" d="M69.04,133.5c-2.57-2.53-6.98-2.99-10.39-3.25c-1.97-0.15-4.06,0.08-5.71,1.27
			c-1.57,1.13-3.36,3.08-3.46,5.09c-0.02,0.41,0.08,0.75,0.26,1.01c-0.01,1.52,0.71,2.94,1.87,3.98c1.33,1.19,2.87,2.22,4.66,2.45
			c3.63,0.46,7.9,0.2,11.24-1.41c1.65-0.79,3.09-2.15,3.29-4.04C70.99,136.82,70.33,134.77,69.04,133.5z"/>
	</g>
	<path class="st6" d="M23.08,70.42c-1.19,0.97-2.17,2.27-2.47,3.77c-0.31,1.5,0.17,3.22,1.41,4.12c1.47,1.08,3.68,0.74,5.01-0.49
		c1.34-1.23,1.88-3.16,1.76-4.98c-0.07-1.03-0.45-4.09-1.57-4.54C26.15,67.88,23.83,69.8,23.08,70.42z"/>
	<g>
		<path class="st4" d="M41.91,71.57c-11.5,14.63-19.29,38.94-23.87,49.19"/>
		<path class="st4" d="M14.82,122.64c-2.58,0.27-4.7,2.58-5.08,5.15c-0.38,2.57,0.81,5.22,2.77,6.93s4.57,2.53,7.17,2.64
			c5.67,0.23,11.09-2.82,14.9-7.02s6.23-9.45,8.34-14.72c0.98-2.46,2.22-5.89,3.53-9.74"/>
		<path class="st4" d="M60.78,109.25c-1.75,7.94-3.03,15.07-4.18,19.65"/>
		<path class="st4" d="M53.75,131.32c-2.49,0.71-4.18,3.35-4.11,5.95c0.07,2.59,1.71,5.01,3.92,6.35c2.22,1.35,4.94,1.7,7.51,1.36
			c5.62-0.75,10.43-4.7,13.46-9.49c3.03-4.79,4.51-10.39,5.67-15.94c0.54-2.59,2.79-18.12,3.84-25.15"/>
		<path class="st4" d="M40.73,17.98c0.74-4.19,1.96-8.02,4.05-11.69c0.65-1.14,2.55-4.35,3.8-4.47c1.34-0.14,3.3,2.47,4.08,3.61
			c2.26,3.3,3.6,5.24,5.87,8.54"/>
		<path class="st6" d="M55.65,13.81c10.09-0.28,20.2,1.6,29.55,5.49"/>
		<path class="st4" d="M85.02,17.82c3.14-3.19,6.63-5.98,10.38-8.3c1.05-0.65,2.32-1.27,3.41-0.73c1.11,0.55,1.45,2.01,1.62,3.29
			c0.69,5.05,0.85,10.19,0.46,15.29"/>
		<path class="st4" d="M39.57,21.75c-4.72,7.15-8.4,15.33-8.46,23.9c-0.06,8.57,4.12,17.52,11.78,21.37"/>
		<path class="st4" d="M100.47,30.14c0.74,7.46,1.47,15.05,0.05,22.41c-1.42,7.36-5.32,14.61-11.85,18.29"/>
		<path class="st4" d="M41.52,103.23c5.73,3.68,12.52,5.69,19.33,5.71"/>
		<path class="st4" d="M97.26,61.8c5.36,3.48,11.88,6.17,17.54,6.17"/>
		<path class="st4" d="M81.44,112.09c10.74,1.89,24.79,3.25,33.36,3.25"/>
		<path class="st4" d="M114.8,67.97c13.08,0,23.69,10.6,23.69,23.69s-10.6,23.69-23.69,23.69"/>
	</g>
	
		<ellipse transform="matrix(0.1012 -0.9949 0.9949 0.1012 9.9056 101.0687)" class="st3" cx="60.89" cy="45.05" rx="9.54" ry="13.83"/>
	<g>
		<line class="st4" x1="48.6" y1="42.28" x2="55.18" y2="39.17"/>
		<line class="st4" x1="69.29" y1="41.19" x2="75.4" y2="45.6"/>
		<line class="st4" x1="60.42" y1="46.22" x2="55.67" y2="51.3"/>
		<line class="st4" x1="60.42" y1="46.22" x2="65.05" y2="52.48"/>
	</g>
	<line class="st4" x1="183.02" y1="33.05" x2="101.33" y2="33.05"/>
	<polygon class="st6" points="197.23,109.11 178.2,118.46 178.2,103.23 197.23,93.87 	"/>
</g>
</svg>
