<?xml version="1.0" encoding="utf-8"?>
<!-- Generator: Adobe Illustrator 27.0.0, SVG Export Plug-In . SVG Version: 6.00 Build 0)  -->
<svg version="1.1" id="image" xmlns="http://www.w3.org/2000/svg" xmlns:xlink="http://www.w3.org/1999/xlink" x="0px" y="0px"
	 viewBox="0 0 226.23 147.53" style="enable-background:new 0 0 226.23 147.53;" xml:space="preserve">
<style type="text/css">
	.st0{fill:#C9AA85;stroke:#251E1C;stroke-width:3.61;stroke-linecap:round;stroke-linejoin:round;stroke-miterlimit:10;}
	.st1{fill:#9E8B78;stroke:#251E1C;stroke-width:3.61;stroke-linecap:round;stroke-linejoin:round;stroke-miterlimit:10;}
	.st2{fill:#FFFFFF;}
	.st3{fill:#9E8B78;}
	.st4{fill:none;stroke:#251E1C;stroke-width:3.61;stroke-linecap:round;stroke-linejoin:round;stroke-miterlimit:10;}
	.st5{fill:#251E1C;}
	.st6{fill:#FFFFFF;stroke:#251E1C;stroke-width:3.61;stroke-linecap:round;stroke-linejoin:round;stroke-miterlimit:10;}
</style>
<g>
	<polygon class="st0" points="114.22,18.31 20.67,80.8 1.8,109.46 78.29,44.32 	"/>
	<polygon class="st0" points="121.87,145.73 26.67,126.41 20.67,80.8 121.87,100.85 	"/>
	<polygon class="st0" points="193.23,81.99 121.87,145.73 121.87,100.85 198.36,35.72 	"/>
	<polygon class="st0" points="224.42,68 153.07,131.74 121.87,100.85 198.36,35.72 	"/>
	<polygon class="st0" points="114.22,18.31 20.67,80.8 121.87,100.85 198.36,35.72 	"/>
	<path class="st1" d="M152.74,45c3.89-4.96,9.46-12.11,14.33-16.12s10.8-7,17.1-7.26c6.08-0.25,12.22,2.18,16.48,6.52
		c4.26,4.34,6.58,10.52,6.23,16.59c-0.14,2.46-0.7,4.91-0.42,7.35c0.29,2.44,1.7,4.99,4.08,5.61c3.49,0.91,6.51-2.63,7.85-5.98
		c4.81-12.07,0.1-26.86-10.04-34.98s-24.72-9.71-36.92-5.25s-21.98,14.44-27.56,26.17"/>
	<path class="st2" d="M158.67,58.89c-0.74-7.52-3.32-15.05-8.97-20.31c-2.85-2.66-6.34-4.4-9.93-5.85
		c-3.28-1.32-6.72-2.21-10.24-2.57c0.06-0.63,0.12-1.26,0.18-1.88c0.38-4.18,0.49-8.38,0.34-12.58c-0.06-1.6-1.86-2.05-2.85-1.35
		c-3,0.88-5.98,1.81-8.94,2.81c-2.14,0.72-4.21,1.52-6.08,2.72c-0.46-0.21-0.92-0.42-1.38-0.61c-2.66-1.12-5.4-2.05-8.21-2.73
		c-4.67-1.14-9.47-1.57-14.23-1.15c-1.37-4.8-4.37-8.96-7.8-12.52c-0.65-0.68-1.8-0.65-2.45,0c-0.02,0.02-0.03,0.04-0.04,0.05
		c-0.3,0.05-0.61,0.2-0.89,0.47c-1.62,1.57-3.2,3.17-4.54,4.99c-1.35,1.83-2.29,3.9-3.26,5.94c-1.59,3.34-3.14,6.72-4.19,10.27
		c-0.41,0.13-0.78,0.41-1.06,0.78c-1.29,1.74-2.17,3.68-2.85,5.71c-0.05,0.06-0.1,0.13-0.13,0.2c-1.45,2.95-2.44,6.15-3.34,9.31
		c-0.89,3.09-1.55,6.35-1.33,9.57c0.21,3.17,1.28,5.77,3.24,8.25c1.11,1.4,2.34,2.69,3.64,3.89c-1.65,0.76-3.19,1.82-4.71,2.78
		c-2.45,1.55-4.83,3.26-6.84,5.36c-0.1,0.1-0.18,0.21-0.25,0.32c-0.15,0.13-0.28,0.27-0.39,0.44c-0.19,0.38-0.38,0.76-0.58,1.14
		c-0.13,0.2-0.2,0.41-0.21,0.65c-0.05,0.23-0.04,0.46,0.03,0.69c0.05,0.23,0.16,0.42,0.31,0.59c0.12,0.19,0.28,0.34,0.49,0.45
		c0.14,0.06,0.28,0.12,0.41,0.17c0.08,0.02,0.16,0.02,0.24,0.03c0.71,2.26,1.67,4.42,3.38,6.16c2.21,2.25,5.14,3.87,7.85,5.43
		c2.85,1.64,5.74,3.46,8.89,4.46c3.18,1.02,6.6,1.41,9.92,1.67c0.09,0.01,0.18,0,0.27-0.01c0.19,0.06,0.39,0.1,0.63,0.1
		c6.72-0.22,13.49,0.17,19.93,2.24c6.03,1.94,11.75,5.1,18.25,4.99c0.35-0.01,0.64-0.1,0.88-0.25c0.16-0.04,0.32-0.09,0.48-0.19
		c3.51-2.01,6.6-4.66,9.12-7.79c0.11-0.11,0.22-0.23,0.33-0.34c5.74-5.32,12.07-9.95,18.09-14.95c1.57-1.3,3.11-2.64,4.62-4.01
		c1.42-1.31,3.03-2.65,3.94-4.38C159.95,65.09,159.57,61.92,158.67,58.89z"/>
	<g>
		<path class="st3" d="M84.1,6.36c-0.5-0.63-1.02-1.25-1.54-1.86c-0.48-0.56-1-1.34-1.66-1.72c-1.6-0.93-2.98,0.44-4.18,1.37
			c-1.24,0.96-2.43,1.98-3.56,3.06c-1.09,1.04-1.68,2.12-2.37,3.42c-1.32,2.47-3.27,4.58-3.8,7.41c-0.05,0.27-0.04,0.54,0.01,0.8
			c-0.09,0.04-0.19,0.09-0.28,0.13c-0.85,0.4-1.07,1.62-0.62,2.37c0.51,0.87,1.52,1.02,2.37,0.62c3.01-1.41,6.03-2.82,9.23-3.74
			c3.35-0.96,6.86-1.24,10.31-1.61c1.24-0.13,2.25-1.39,1.5-2.61C87.86,11.35,86.05,8.8,84.1,6.36z"/>
		<path class="st3" d="M130.05,23.61c-0.37-3-0.56-6.03-0.79-9.04c-0.08-1.09-1.05-2.01-2.2-1.67c-4.23,1.24-8.68,2.25-12.55,4.42
			c-0.66,0.37-0.89,0.95-0.84,1.52c-0.35,0.24-0.63,0.6-0.74,0.98c-0.27,0.99,0.34,1.78,1.21,2.13c2.59,1.05,4.71,3.3,6.79,5.1
			c2.27,1.96,4.37,4.06,6.26,6.4c0.82,1.01,2.63,0.43,2.9-0.77C130.78,29.65,130.43,26.65,130.05,23.61z"/>
	</g>
	<path class="st4" d="M66.76,19.42c2.35-6.89,6.71-13.08,12.41-17.61c4.71,3.31,8.59,7.98,10.44,13.42"/>
	<path class="st4" d="M82.85,16.68c10.93-2.79,22.99-0.74,32.39,5.49"/>
	<path class="st4" d="M111.62,20.04c6.01-3.46,11.78-5.44,17.74-7.03"/>
	<path class="st4" d="M129.36,13.01c1.8,6.24,1.91,12.96,0.32,19.26"/>
	<path class="st4" d="M128.6,37.13c-0.57,6.79-1.16,13.7-3.69,20.04s-7.31,12.12-13.81,14.16"/>
	<path class="st4" d="M64.74,23.72c-2.49,4.48-4.93,9.03-6.5,13.91C56.67,42.51,56,47.77,57.1,52.78c1.1,5.01,4.13,9.71,8.64,12.15"
		/>
	<path class="st4" d="M61.69,63.84c-4.97,1.61-9.26,5.21-11.69,9.83"/>
	<path class="st4" d="M130.94,30.56c9.05,0.65,17.72,5.52,22.97,12.91c5.26,7.4,7.01,17.18,4.64,25.94"/>
	<g>
		<path class="st2" d="M68.57,80.6c-1.84-2.98-5.09-5.08-8.45-5.94c-1.84-0.47-3.77-0.59-5.66-0.48c-1.99,0.11-4.1,0.32-5.96,1.09
			c-3.23,1.32-6.11,4.06-7.96,6.98c-0.87,1.37,0.46,2.65,1.71,2.55c0.05,0.01,0.1,0.04,0.15,0.04c2.14,0.31,4.28,0.65,6.42,1.01
			c-0.3,2.8,0.01,5.68,1.56,8.11c1.88,2.94,4.9,4.19,8.26,4.52c2.94,0.28,6.34,0.2,8.79-1.67c2.09-1.6,2.91-4.12,3.02-6.65
			c0.15-1.54,0.02-3.07-0.23-4.63C69.95,83.82,69.5,82.1,68.57,80.6z"/>
		<path class="st2" d="M106.83,87.9c-1.09-2.2-2.97-3.96-5.01-5.28c-2.25-1.46-4.74-2.46-7.44-2.48c-2.7-0.02-5.48,0.27-7.98,1.35
			c-2.55,1.1-4.82,3.2-6.44,5.43c-1.62,2.23-2.34,5.03-1.93,7.75c0.37,2.48,1.71,4.74,3.71,6.24c2.08,1.56,4.71,2.05,7.26,2.07
			c2.83,0.03,6.05-0.26,8.02-2.54c1.01-1.17,1.55-2.55,1.73-4c0.55,0.04,1.1,0.08,1.64,0.13c1.68,0.14,3.23,0.45,4.9,0.89
			c0.98,0.8,2.89,0.38,2.9-1.28C108.22,93.35,108.12,90.5,106.83,87.9z"/>
		<g>
			<path class="st3" d="M67.9,85.76c-0.93-0.39-1.88-0.74-2.84-1.05c-2.13-0.7-4.33-1.21-6.55-1.54c-2.34-0.35-4.7-0.63-7.04-0.15
				c-0.92,0.19-1.45,1.28-1.21,2.13c0.03,0.11,0.07,0.21,0.12,0.3c-0.72,1.44-0.6,3.12-0.35,4.74c0.28,1.74,0.84,3.65,2.12,4.92
				c2.73,2.71,6.5,3.64,10.22,3.12c3.64-0.51,7.21-2.31,8.61-5.9c0.67-1.73,0.7-3.99-0.77-5.33C69.56,86.39,68.7,86.09,67.9,85.76z"
				/>
			<path class="st3" d="M98.49,93.7c-1.1-3.72-5.56-5.01-8.95-5.55c-2.27-0.37-4.56-0.48-6.85-0.49c-1.01-0.01-2.16-0.13-3.13,0.19
				c-1.1,0.36-1.96,1.33-2.17,2.47c-0.13,0.23-0.22,0.5-0.24,0.82c-0.1,2.08,0.04,4.16,0.91,6.08c0.83,1.82,2.39,3.01,4.01,4.11
				c3.15,2.13,7.65,3.18,11.29,1.72c1.76-0.7,3.25-2.32,4.23-3.91C98.55,97.54,99.03,95.52,98.49,93.7z"/>
		</g>
	</g>
	<path class="st4" d="M40.05,84.16c2.05-6.15,8.09-10.76,14.56-11.1s12.97,3.59,15.66,9.49c1.04,2.28,1.55,4.84,1.25,7.33
		c-0.3,2.49-1.43,4.91-3.29,6.6c-3.42,3.1-8.81,3.25-13,1.3c-1.85-0.86-3.56-2.11-4.7-3.8c-2.13-3.14-1.9-7.68,0.54-10.59"/>
	<path class="st4" d="M108.3,98.16c1.21-11.21-6.66-18.01-14.97-18.47c-7.45-0.61-15.06,4.35-15.99,12.33
		c-1.01,14.75,25.33,16.25,20.73-0.3"/>
	<line class="st4" x1="37.17" y1="84.07" x2="48.82" y2="86.38"/>
	<line class="st4" x1="121.87" y1="100.85" x2="98.57" y2="96.24"/>
	<line class="st4" x1="121.87" y1="100.85" x2="174.18" y2="56.31"/>
	<line class="st4" x1="71.6" y1="90.89" x2="77.34" y2="92.03"/>
	
		<ellipse transform="matrix(0.1785 -0.9839 0.9839 0.1785 28.775 123.1135)" class="st3" cx="88.12" cy="44.32" rx="9.54" ry="13.83"/>
	<g>
		
			<ellipse transform="matrix(0.2002 -0.9797 0.9797 0.2002 28.0759 109.9594)" class="st5" cx="81.39" cy="37.78" rx="4.52" ry="2.38"/>
		
			<ellipse transform="matrix(0.2002 -0.9797 0.9797 0.2002 37.935 128.7586)" class="st5" cx="97.83" cy="41.14" rx="4.52" ry="2.38"/>
		<path class="st4" d="M79.76,50.77c3.11,0.24,6.29-1.53,7.72-4.3c-0.16,1.77,0.46,3.48,1.54,4.89c1.08,1.41,2.7,2.4,4.45,2.7"/>
	</g>
</g>
</svg>
