<?xml version="1.0" encoding="utf-8"?>
<!-- Generator: Adobe Illustrator 27.0.0, SVG Export Plug-In . SVG Version: 6.00 Build 0)  -->
<svg version="1.1" id="image" xmlns="http://www.w3.org/2000/svg" xmlns:xlink="http://www.w3.org/1999/xlink" x="0px" y="0px"
	 viewBox="0 0 215.36 158.61" style="enable-background:new 0 0 215.36 158.61;" xml:space="preserve">
<style type="text/css">
	.st0{fill:#C9AA85;stroke:#251E1C;stroke-width:3.61;stroke-linecap:round;stroke-linejoin:round;stroke-miterlimit:10;}
	.st1{fill:#9E8B78;stroke:#251E1C;stroke-width:3.61;stroke-linecap:round;stroke-linejoin:round;stroke-miterlimit:10;}
	.st2{fill:#FFFFFF;}
	.st3{fill:#9E8B78;}
	.st4{fill:none;stroke:#251E1C;stroke-width:3.61;stroke-linecap:round;stroke-linejoin:round;stroke-miterlimit:10;}
	.st5{fill:#251E1C;}
	.st6{fill:#FFFFFF;stroke:#251E1C;stroke-width:3.61;stroke-linecap:round;stroke-linejoin:round;stroke-miterlimit:10;}
</style>
<g>
	<g>
		<polygon class="st0" points="72.64,80.74 86.23,54.1 15.4,100.31 1.8,126.94 		"/>
		<polygon class="st0" points="120.19,156.8 15.4,145.97 15.4,100.31 120.19,111.14 		"/>
		<polygon class="st0" points="191.02,64.94 86.23,54.1 15.4,100.31 120.19,111.14 		"/>
		<polygon class="st0" points="120.19,156.8 191.02,110.6 191.02,64.94 120.19,111.14 		"/>
		<polygon class="st0" points="191.02,64.94 213.56,82.62 142.72,128.82 120.19,111.14 		"/>
	</g>
	<path class="st1" d="M157.37,64.18c9.04-6.43,10.22-20.55,2.36-28.38c-6.12-6.33-15.5-7.72-22.57-12.63
		c-10.01-7.75-12.32-12.08-8.79-17.89c4.26-7.02,11.62-2.53,23.4,5.81c5.72,4.06,17.43,9.42,22.78,14.37
		c13.57,13.19,5.31,34.42-5.92,46.52"/>
	<path class="st2" d="M172.87,73.77c-2.42-4.83-6.74-8.24-10.08-12.38c-0.51-0.63-1.49-0.65-2.17-0.27
		c-6.77-4.7-14.93-6.71-23.02-7.7c-4.63-0.57-9.3-0.85-13.95-1.12c-4.69-0.27-9.38-0.34-14.04,0.33c-4.13,0.6-8.19,1.87-11.77,4.03
		c-1.38-2.15-2.8-4.29-4.3-6.36c-1.83-2.54-3.84-5.07-6.68-6.52c-0.01,0-0.01,0-0.02-0.01c-0.26-2.67-1.11-5.26-2.51-7.55
		c-0.83-1.35-1.85-2.63-3.02-3.7c-1.3-1.2-2.78-2.04-4.24-3.02c-1.38-0.92-2.67-2.85-4.48-1.39c-0.71,0.57-1.19,1.53-1.71,2.27
		c-0.59,0.83-1.17,1.66-1.77,2.49c-1.16,1.62-2.32,3.24-3.51,4.85c-0.85,1.15-1.78,2.27-2.91,3.14c-0.3-0.07-0.61-0.08-0.93-0.04
		c-3.34,0.45-6.66,1.01-9.6,2.75c-2.62,1.55-5.04,3.53-7.29,5.58c-2.23-1.06-4.58-1.87-7-2.39c-3.28-0.7-6.58-0.78-9.92-0.72
		c-1.86,0.03-2.23,2.35-1.11,3.25c-0.11,1.9-0.2,3.82-0.11,5.72c0.11,2.33,0.75,4.54,1.52,6.72c0.79,2.22,1.72,4.38,2.65,6.54
		c0.65,1.51,1.23,3.05,2.01,4.49c0.05,0.1,0.1,0.2,0.16,0.29c0.15,0.26,0.31,0.52,0.48,0.78c-0.33,3.11-0.08,6.27,0.87,9.27
		c0.56,1.78,1.34,3.45,2.5,4.92c0.48,0.61,1.03,1.17,1.44,1.83c0.36,0.58,0.63,1.18,1.01,1.72c-2.92,3.12-5.44,6.62-7.43,10.4
		c-2.46,4.67-4.72,10.04-4.09,15.42c0.28,2.44,0.82,5.17,2.23,7.24c1.53,2.25,3.88,2.99,6.5,3.13c2.86,0.15,5.28-0.41,7.46-2.35
		c1.74-1.55,2.98-3.6,3.94-5.7c1.16-2.55,2-5.23,3.15-7.79c1.23-2.75,2.7-5.38,4.36-7.89c6.69,0.18,13.27,1.63,19.92,2.25
		c-3.21,6.05-4.39,13.1-3.15,19.94c0.86,4.74,3.75,9.33,8.87,10.13c2.4,0.38,4.87-0.1,6.85-1.56c1.92-1.42,3.37-3.35,4.86-5.18
		c3.64-4.47,7-9.09,9.24-14.44c0.13-0.32,0.12-0.65,0.01-0.97c0.97-1.29,1.95-2.57,2.96-3.82c0.12,0.03,0.24,0.05,0.36,0.07
		c4.44,0.49,8.9,0.71,13.36,0.67c0.53,0.65,1.61,0.99,2.33,0.46c6.44-4.74,12.88-9.49,19.32-14.23c6.28-4.63,12.82-8.76,19.43-12.89
		c3.94-2.46,7.87-4.92,11.81-7.38c0.43-0.27,0.67-0.63,0.78-1.01C173.13,75.51,173.26,74.56,172.87,73.77z"/>
	<g>
		<path class="st3" d="M83.79,44.73c1.62,0.23,2.7-1.14,2.04-2.65c-2.44-5.55-6.32-10.57-10.94-14.51
			c-1.53-1.31-2.93-0.15-4.25,0.84c-1.2,0.9-2.31,1.88-3.26,3.04c-1.9,2.32-3.27,4.96-4.53,7.67c-0.14,0.29-0.2,0.6-0.21,0.91
			c-0.15,0.02-0.3,0.04-0.45,0.06c-0.96,0.17-1.5,1.35-1.26,2.22c0.28,1.02,1.26,1.43,2.22,1.26c3.35-0.58,6.95-0.17,10.32,0.07
			C76.93,43.88,80.37,44.24,83.79,44.73z"/>
		<path class="st3" d="M32.65,67.86c1.76-3.26,3.89-6.37,6.01-9.4c2.04-2.92,4.3-5.68,7.03-7.98c0.75-0.63,0.65-1.9,0-2.55
			c-0.74-0.74-1.8-0.63-2.55,0c-0.1,0.08-0.18,0.18-0.28,0.26c-0.17-0.06-0.35-0.1-0.53-0.11c-1.46-0.12-2.84-0.69-4.24-1.05
			c-1.5-0.38-3.04-0.58-4.58-0.69c-1.48-0.11-3.04-0.22-4.53-0.13c-0.79,0.05-1.46,0.32-1.88,1.03c-0.38,0.65-0.33,1.49-0.36,2.22
			c-0.15,2.98-0.4,6.06-0.07,9.03c0.35,3.14,1.47,6.05,2.68,8.94C29.9,68.75,31.84,69.37,32.65,67.86z"/>
		<path class="st3" d="M94.46,126.65c-0.83-4.02-4.67-6.32-8.45-6.87c-2.51-0.36-5.04-0.45-7.57-0.54
			c-2.19-0.07-4.53-0.25-6.22,1.42c-0.19,0.19-0.32,0.39-0.41,0.6c-0.45,0.33-0.76,0.84-0.71,1.41c0.43,4.35,1.04,8.97,4.35,12.14
			c1.62,1.54,3.91,1.56,6.01,1.65c2.27,0.1,4.17-0.2,6.29-1.02C91.42,134.02,95.39,131.16,94.46,126.65z"/>
		<path class="st3" d="M41.26,111.97c-2.17-0.56-4.44-0.55-6.65-0.27c-2.13,0.27-4.45,0.59-6.29,1.78
			c-0.68,0.44-0.89,1.11-0.81,1.74c-0.02,0.09-0.04,0.18-0.05,0.28c-0.45,3.56,1.37,7.74,3.89,10.24c1.42,1.4,3.2,1.97,5.15,2.09
			c1.83,0.11,4.02,0.15,5.75-0.5c1.77-0.66,3.13-2.1,4.35-3.5c1.31-1.51,2.5-3.31,2.08-5.41C48.02,115.08,44.32,112.76,41.26,111.97
			z"/>
	</g>
	<path class="st4" d="M62.24,41.97c2.33-4.84,6.77-12.39,10.96-15.75c5.99,3.9,10.98,10.36,12.94,17.23
		c9.09,5.64,14.95,16.14,14.35,26.82"/>
	<path class="st4" d="M44.75,49.03c4.42-5.75,11.45-9.4,18.69-9.73"/>
	<path class="st4" d="M44.53,49.02c-5.64-2.35-11.85-3.32-17.94-2.8c-1.47,7.25-0.12,15.01,3.75,21.32"/>
	<path class="st4" d="M32.83,73.74c0.17,2.93,0.33,5.88,1.02,8.73s1.92,5.64,3.96,7.74c2.41,2.48,5.89,3.87,9.35,3.73"/>
	<path class="st4" d="M38.2,93.55c-4.37,4.84-7.59,10.71-9.33,17c-0.91,3.29-1.42,6.8-0.65,10.13c0.77,3.33,3.01,6.46,6.24,7.59
		c4.3,1.51,9.16-0.91,12.04-4.43s4.32-7.98,6.03-12.21c1.71-4.22,3.94-8.52,7.79-10.97"/>
	<path class="st4" d="M84.41,96.86c-8.81,6.62-13.68,18.12-12.32,29.06c0.45,3.57,1.67,7.3,4.56,9.45c3,2.23,7.27,2.21,10.66,0.64
		c3.39-1.57,6.01-4.47,8.02-7.62c2.01-3.15,3.52-6.59,5.33-9.87c3.45-6.24,8.02-11.86,13.43-16.5"/>
	<path class="st4" d="M99.12,55.72c7.16-3.77,21.78-4.68,29.85-4.01c19.13,1.59,36.07,6.21,44.85,24.45"/>
	<ellipse transform="matrix(0.9233 -0.384 0.384 0.9233 -23.648 27.895)" class="st3" cx="58.03" cy="73.17" rx="13.83" ry="9.54"/>
	<g>
		
			<ellipse transform="matrix(0.9359 -0.3522 0.3522 0.9359 -22.0315 21.7387)" class="st5" cx="48.72" cy="71.41" rx="2.25" ry="4.27"/>
		
			<ellipse transform="matrix(0.9359 -0.3522 0.3522 0.9359 -19.1122 26.6095)" class="st5" cx="63.57" cy="65.83" rx="2.25" ry="4.27"/>
		<path class="st4" d="M53.51,82.62c2.61-1.37,4.26-4.39,4.01-7.32c0.76,1.5,2.12,2.55,3.69,3.14s3.37,0.56,4.92-0.08"/>
	</g>
	<line class="st4" x1="58.03" y1="104.71" x2="76.01" y2="106.57"/>
	<line class="st4" x1="120.19" y1="111.14" x2="106.85" y2="109.43"/>
	<line class="st4" x1="120.19" y1="111.14" x2="181.61" y2="71.08"/>
</g>
</svg>
