<?xml version="1.0" encoding="utf-8"?>
<!-- Generator: Adobe Illustrator 27.0.0, SVG Export Plug-In . SVG Version: 6.00 Build 0)  -->
<svg version="1.1" xmlns="http://www.w3.org/2000/svg" xmlns:xlink="http://www.w3.org/1999/xlink" x="0px" y="0px"
	 viewBox="0 0 125.31 116.08" style="enable-background:new 0 0 125.31 116.08;" xml:space="preserve">
<style type="text/css">
	.st0{fill:#24221E;}
	.st1{fill:#FFE3D4;}
	.st2{fill:#FFB18F;}
	.st3{fill:#F5C140;}
	.st4{fill:#FFEBE6;}
	.st5{fill:#FFBBA6;}
	.st6{fill:#EAEAEA;}
	.st7{fill:#FFFFFF;}
	.st8{fill:#E5C2AA;}
	.st9{fill:#E09F73;}
	.st10{fill:#242322;}
</style>
<g id="배경">
</g>
<g id="이미지">
	<g>
		<g>
			<g>
				<path class="st6" d="M120.06,50.03c-1.16-4.78-3.98-9.73-8.63-10.89c0-0.23,0.01-0.46,0.01-0.69
					c1.14-5.93-2.09-12.51-7.49-14.98c-2.07-0.95-4.33,0.02-6.09-0.59c-2.04-0.7-0.93-1.53-0.91-3.83c0.02-3.48-1.5-6.99-3.87-9.44
					C89.8,6.23,85.2,4.71,80.69,4.3c-2.09-0.19-4.23-0.13-6.28,0.35c-2.46,0.58-4.11,2.59-6.26,3.34c-2.39,0.83-3.26-1.62-5.48-3.16
					c-2.19-1.52-4.74-2.44-7.3-2.88c-4.18-0.72-8.65-0.21-12.29,2.13c-3.65,2.34-6.32,6.66-6.29,11.25
					c-2.85-2.47-6.96-2.57-10.43-1.33c-8.21,2.93-13.49,13.28-11.41,22.37c-5.23,0.73-8.79,6.86-8.48,12.57
					c0.31,5.7,3.65,10.76,7.67,14.45c8.47,7.78,19.85,10.63,30.87,12.12c11.47,1.55,23.08,1.9,34.61,1.06
					c5.87-0.43,11.72-1.17,17.53-2.22c4.97-0.9,10.03-1.03,14.53-3.56c2.04-1.15,4.05-2.53,5.35-4.59c1.02-1.61,1.5-3.53,1.52-5.48
					c0.24-0.27,0.46-0.55,0.66-0.86C121.07,57.05,120.86,53.32,120.06,50.03z"/>
			</g>
			<g>
				<g>
					<path class="st0" d="M121.65,49.59c-1.26-5.11-4.33-10.62-9.78-12.04c0.4,0.53,0.81,1.06,1.21,1.59
						c0.02-0.77,0.19-1.71,0.23-2.61c0.04-0.94-0.04-1.87-0.18-2.8c-0.25-1.74-0.81-3.42-1.6-4.98c-1.54-3.04-4.34-6.03-7.67-7.07
						c-1.02-0.32-2.13-0.33-3.18-0.28c-0.47,0.02-0.95,0.05-1.42,0.04c-0.46-0.01-0.63-0.02-1.12-0.21
						c0.24,0.09-0.02-0.03-0.11-0.07c-0.25-0.11,0.03,0.01,0.07,0.07c-0.04-0.05-0.12-0.17,0.01,0.03c0.09,0.14,0.19,0.49,0.13,0.18
						c0.06,0.33,0.08,0.25,0.05-0.02c0.03,0.28-0.03,0.22,0.02-0.05c0.03-0.15,0.06-0.29,0.08-0.44c0.08-0.44,0.14-0.89,0.18-1.34
						c0.32-4.03-1.57-8.28-4.33-11.14c-2.73-2.82-6.46-4.55-10.27-5.33c-2.07-0.42-4.21-0.64-6.32-0.55
						C75.51,2.66,73.37,3,71.5,4.09c-0.77,0.44-1.48,0.97-2.22,1.46c-0.32,0.21-0.65,0.41-0.99,0.6c-0.12,0.06-0.44,0.22-0.44,0.22
						c-0.02,0.01-0.38,0.13-0.54,0.16c-0.2,0.04,0.03-0.01,0.06-0.01c-0.1,0-0.19,0-0.29,0c0.41,0.02-0.2-0.08-0.02-0.02
						c0.17,0.06-0.17-0.1-0.23-0.13c-0.04-0.02-0.29-0.19-0.12-0.07c0.15,0.1-0.09-0.08-0.12-0.1c-0.6-0.53-1.13-1.14-1.72-1.69
						c-3.08-2.87-7.54-4.18-11.65-4.45c-4-0.26-8.27,0.65-11.56,3.03c-3.08,2.23-5.43,5.58-6.2,9.34c-0.2,0.96-0.3,1.94-0.31,2.92
						c0.94-0.39,1.88-0.78,2.82-1.17c-4.66-3.94-11.5-2.97-16.2,0.41c-4.3,3.09-7.27,7.87-8.39,13.02c-0.66,3.05-0.69,6.18,0,9.22
						c0.38-0.68,0.77-1.35,1.15-2.03c-4.27,0.64-7.32,4.3-8.76,8.14c-1.65,4.41-0.97,9.22,1,13.41c4.07,8.66,13.07,14.18,21.81,17.2
						c4.42,1.53,9,2.51,13.62,3.22c5.48,0.85,11.01,1.4,16.55,1.69c11.36,0.59,22.76-0.01,34.02-1.7c2.68-0.4,5.35-0.92,8.03-1.3
						c2.51-0.36,5.03-0.7,7.46-1.43c4.77-1.44,9.75-4.52,11.38-9.47c0.4-1.22,0.57-2.53,0.6-3.82c-0.16,0.39-0.32,0.78-0.48,1.17
						C122.7,58.42,122.66,53.83,121.65,49.59c-0.21-0.87-1.19-1.38-2.03-1.15c-0.89,0.24-1.36,1.16-1.15,2.03
						c0.53,2.23,0.81,4.6,0.16,6.79c-0.15,0.5-0.28,0.82-0.52,1.26c-0.36,0.66-1.04,1.25-1.17,1.99c-0.09,0.57-0.06,1.18-0.15,1.71
						c-0.11,0.63-0.27,1.26-0.5,1.85c-0.82,2.12-2.59,3.59-4.48,4.75c-2.18,1.33-4.51,2.14-7.01,2.66
						c-2.57,0.53-5.18,0.79-7.76,1.24c-2.79,0.49-5.58,0.95-8.39,1.31c-5.77,0.74-11.57,1.17-17.39,1.31
						c-5.82,0.14-11.65-0.03-17.45-0.51c-5.21-0.42-10.43-1.05-15.56-2.09c-9.17-1.87-18.41-5.31-24.83-12.38
						c-2.99-3.28-5.3-7.56-5.33-12.02c-0.01-1.9,0.46-3.92,1.31-5.57c0.22-0.44,0.47-0.86,0.74-1.27c0.35-0.53,0.42-0.62,0.83-1.07
						c0.72-0.79,1.16-1.16,2.01-1.64c0.21-0.12,0.42-0.23,0.64-0.33c0.04-0.02,0.29-0.12,0.05-0.02c0.1-0.04,0.2-0.08,0.3-0.11
						c0.46-0.16,0.93-0.27,1.41-0.34c0.91-0.14,1.33-1.25,1.15-2.03c-0.27-1.21-0.37-1.99-0.39-3.3c-0.01-0.55,0-1.11,0.04-1.66
						c0.02-0.29,0.05-0.58,0.08-0.87c0.01-0.12,0.03-0.23,0.04-0.35c-0.04,0.26,0.05-0.28,0.06-0.34c0.4-2.37,1.12-4.42,2.22-6.4
						c1.12-2.01,2.32-3.52,4.12-5.04c0.11-0.09,0.21-0.18,0.32-0.26c0.24-0.2-0.3,0.22,0.13-0.1c0.22-0.16,0.45-0.33,0.68-0.48
						c0.46-0.31,0.93-0.59,1.41-0.85c1-0.53,1.78-0.84,3.03-1.13c2.5-0.59,5.37-0.34,7.36,1.34c1.06,0.89,2.81,0.35,2.82-1.17
						c0.01-3.22,1.47-6.3,3.85-8.54c2.46-2.32,6-3.45,9.45-3.48c1.92-0.02,3.69,0.24,5.54,0.79c0.88,0.26,1.75,0.58,2.57,0.99
						c0.77,0.38,1.71,0.92,2.27,1.38c1.16,0.97,2.06,2.33,3.47,2.96c1.82,0.82,3.63,0.08,5.21-0.93c0.69-0.44,1.36-0.93,2.06-1.37
						c0.76-0.47,1.27-0.72,2.12-0.91c2-0.46,4.09-0.44,6.12-0.23c3.2,0.34,6.7,1.43,9.32,3.44c2.79,2.13,4.69,5.48,4.88,8.91
						c0.02,0.41,0.03,0.83-0.01,1.25c-0.01,0.1-0.06,0.48-0.02,0.19c-0.03,0.18-0.06,0.36-0.09,0.54c-0.13,0.68-0.27,1.36-0.09,2.05
						c0.45,1.82,2.67,2.38,4.29,2.39c0.93,0.01,1.86-0.12,2.8-0.05c0.72,0.05,1.38,0.38,2.03,0.76c0.73,0.43,1.12,0.73,1.67,1.23
						c0.28,0.25,0.55,0.52,0.8,0.79c0.14,0.15,0.27,0.3,0.4,0.45c0.05,0.06,0.34,0.41,0.23,0.28c0.99,1.28,1.68,2.65,2.11,4.02
						c0.24,0.75,0.43,1.53,0.53,2.31c-0.03-0.23,0.02,0.2,0.02,0.26c0.02,0.2,0.03,0.41,0.04,0.61c0.02,0.41,0.02,0.82,0,1.23
						c-0.04,0.93-0.2,1.46-0.22,2.52c-0.02,0.71,0.52,1.41,1.21,1.59c0.58,0.15,1.02,0.31,1.38,0.49c0.43,0.22,1,0.57,1.27,0.78
						c0.72,0.54,1.6,1.51,2.09,2.2c1.39,1.98,2.16,3.94,2.74,6.26c0.21,0.87,1.19,1.38,2.03,1.15
						C121.38,51.38,121.87,50.46,121.65,49.59z"/>
				</g>
			</g>
		</g>
		<g>
			<g>
				<g>
					<path class="st1" d="M112.21,54.17c-1.78,0-3.46,0.42-4.96,1.14c-4.98,0.74-10.25-0.38-14.27-3.43
						c-4.1-3.12-6.72-7.75-9.16-12.28c-2.1,2.96-5.83,4.67-9.44,4.32c-3.61-0.35-6.95-2.74-8.44-6.05c-1.44,2.07-3,4.23-5.3,5.24
						c-2.38,1.05-5.2,0.67-7.55-0.44s-4.32-2.87-6.22-4.64c-6.11,9.69-20.59,18.31-29.14,17.11c-1.41-0.62-2.96-0.96-4.6-0.96
						c-6.35,0-11.49,5.14-11.49,11.49c0,6.35,5.14,11.49,11.49,11.49c1.3,0,2.55-0.23,3.72-0.63c4.13,21.59,23.1,37.91,45.89,37.91
						c22.78,0,41.74-16.3,45.88-37.86c1.13,0.37,2.34,0.58,3.59,0.58c6.35,0,11.49-5.14,11.49-11.49
						C123.7,59.32,118.55,54.17,112.21,54.17z"/>
				</g>
				<g>
					<g>
						<path class="st0" d="M112.21,52.52c-1.26,0.01-2.53,0.18-3.74,0.55c-0.59,0.18-1.23,0.39-1.77,0.68
							c-0.29,0.16,0.37,0,0.04-0.03c-0.13-0.01-0.27,0.03-0.41,0.05c-0.3,0.03-0.61,0.06-0.92,0.07c-2.24,0.13-4.28-0.1-6.41-0.74
							c-4.17-1.25-7.41-4.21-9.86-7.76c-1.45-2.1-2.69-4.34-3.9-6.59c-0.64-1.18-2.16-0.95-2.85,0c-1.79,2.47-5,3.83-8.11,3.49
							c-0.07-0.01-0.14-0.02-0.38-0.06c-0.18-0.04-0.36-0.08-0.54-0.12c-0.42-0.1-0.83-0.23-1.23-0.39
							c-0.28-0.11-0.03-0.01-0.28-0.12c-0.22-0.11-0.44-0.22-0.65-0.34c-0.35-0.2-0.69-0.41-1.01-0.64
							c-1.18-0.85-2.16-2.08-2.83-3.54c-0.56-1.22-2.21-0.91-2.85,0c-0.95,1.36-1.89,2.71-3.22,3.77c-1.21,0.96-2.75,1.36-4.34,1.25
							c-3.51-0.24-6.43-2.87-8.93-5.2c-0.8-0.74-2.01-0.58-2.59,0.33c-1.41,2.21-3.02,4.07-5.01,5.98
							c-2.08,1.99-4.11,3.57-6.51,5.12c-1.16,0.75-2.36,1.45-3.58,2.08c-0.57,0.3-1.15,0.58-1.73,0.85c-0.7,0.33-0.95,0.43-1.64,0.7
							c-1.15,0.45-2.32,0.83-3.51,1.13c-0.53,0.13-1.07,0.25-1.61,0.34c-0.1,0.02-0.8,0.12-0.42,0.07c-0.32,0.04-0.65,0.07-0.97,0.1
							c-0.49,0.03-0.98,0.05-1.47,0.03c-0.21-0.01-0.43-0.02-0.64-0.04c-0.1-0.01-0.28-0.06-0.37-0.04
							c0.52,0.16,0.51,0.14-0.01-0.06c-0.14-0.06-0.27-0.11-0.41-0.16c-1.62-0.6-3.4-0.86-5.12-0.75c-2.87,0.17-5.53,1.24-7.74,3.06
							c-4.32,3.54-5.86,9.82-3.73,14.97c1.19,2.88,3.34,5.33,6.12,6.75c3.16,1.61,6.84,1.91,10.21,0.79
							c-0.68-0.38-1.35-0.77-2.03-1.15c1.64,8.5,5.63,16.45,11.37,22.92c5.72,6.44,13.18,11.28,21.37,13.91
							c8.51,2.73,17.8,3.01,26.48,0.85c8.35-2.07,16.09-6.45,22.22-12.49c6.12-6.03,10.6-13.71,12.8-22.02
							c0.27-1.04,0.51-2.08,0.72-3.14c-0.68,0.38-1.35,0.77-2.03,1.15c5.96,1.9,12.68-0.74,15.62-6.3c2.75-5.2,1.7-11.83-2.65-15.83
							C118.7,53.79,115.52,52.55,112.21,52.52c-2.12-0.02-2.13,3.28,0,3.3c0.32,0,0.64,0.01,0.96,0.04
							c0.14,0.01,0.29,0.02,0.43,0.04c-0.32-0.04,0.23,0.04,0.24,0.04c0.61,0.11,1.21,0.27,1.79,0.48c0.1,0.04,0.21,0.08,0.31,0.12
							c0.5,0.18-0.26-0.14,0.22,0.09c0.25,0.12,0.5,0.24,0.74,0.37c0.24,0.13,0.48,0.27,0.71,0.42c0.11,0.07,0.23,0.15,0.34,0.23
							c0.05,0.03,0.47,0.35,0.26,0.18c0.9,0.71,1.67,1.56,2.17,2.31c0.72,1.09,1.05,1.81,1.36,2.99c0.32,1.18,0.4,2.06,0.3,3.41
							c-0.01,0.14-0.02,0.29-0.04,0.43c-0.04,0.32,0.08-0.38-0.02,0.16c-0.05,0.28-0.1,0.56-0.17,0.83
							c-0.07,0.27-0.14,0.54-0.23,0.81c-0.05,0.16-0.11,0.32-0.16,0.47c0,0-0.2,0.48-0.08,0.22c-0.22,0.5-0.48,0.99-0.77,1.46
							c-0.16,0.25-0.33,0.5-0.51,0.74c-0.18,0.25,0.24-0.28-0.09,0.12c-0.12,0.15-0.25,0.29-0.37,0.43
							c-0.87,0.96-1.47,1.43-2.53,2.04c-1.07,0.61-2.14,0.99-3.53,1.19c0.08-0.01,0.27-0.02-0.07,0.01
							c-0.23,0.02-0.46,0.04-0.69,0.05c-0.37,0.02-0.74,0.02-1.11,0c-0.88-0.05-1.73-0.24-2.57-0.51c-0.8-0.26-1.86,0.3-2.03,1.15
							c-0.8,4.12-2.12,8.04-3.9,11.61c-0.91,1.81-1.93,3.57-3.07,5.25c-1.19,1.76-2.19,3.04-3.61,4.64c-2.74,3.07-5.69,5.62-9,7.78
							c-1.7,1.11-3.47,2.11-5.3,2.99c-1.83,0.88-3.49,1.54-5.55,2.21c-2.01,0.65-4.06,1.15-6.14,1.52c-1.15,0.2-1.78,0.29-2.88,0.4
							c-1.07,0.11-2.14,0.18-3.21,0.22c-4.42,0.15-8.37-0.26-12.58-1.31c-4.08-1.02-7.55-2.41-11.17-4.45
							c-3.65-2.06-6.62-4.31-9.58-7.24c-5.74-5.68-9.86-12.78-11.91-20.61c-0.26-1.01-0.49-2.03-0.69-3.06
							c-0.16-0.84-1.23-1.42-2.03-1.15c-1.49,0.49-2.94,0.64-4.5,0.5c-0.04,0-0.32-0.04-0.07-0.01c-0.17-0.02-0.34-0.05-0.5-0.09
							c-0.28-0.05-0.55-0.12-0.82-0.19c-0.71-0.19-1.15-0.37-1.63-0.6c-2.13-1.05-3.6-2.52-4.65-4.65c-0.22-0.44-0.36-0.8-0.56-1.46
							c-0.08-0.27-0.15-0.54-0.21-0.82c-0.04-0.17-0.06-0.33-0.09-0.5c-0.1-0.52,0.01,0.29-0.03-0.24
							c-0.06-0.64-0.08-1.28-0.04-1.92c0.01-0.17,0.03-0.35,0.04-0.52c0-0.04,0.04-0.32,0.01-0.07c0.05-0.34,0.12-0.67,0.2-1
							c0.32-1.31,0.66-2.08,1.42-3.23c0.33-0.5,0.41-0.61,0.85-1.08c0.22-0.24,0.45-0.47,0.69-0.69c0.08-0.07,0.16-0.15,0.24-0.22
							c0.04-0.04,0.51-0.41,0.3-0.26c1-0.76,1.97-1.25,2.96-1.57c1.32-0.43,2.18-0.54,3.56-0.49c0.76,0.03,1.5,0.16,2.24,0.37
							c0.77,0.22,1.46,0.54,2.26,0.63c0.99,0.1,1.99,0.08,2.98-0.03c5.02-0.54,9.81-2.71,14.05-5.37
							c5.14-3.22,9.89-7.42,13.16-12.57c-0.86,0.11-1.73,0.22-2.59,0.33c3.23,3.01,6.85,5.97,11.47,6.17
							c2.15,0.1,4.26-0.55,5.98-1.85c1.72-1.31,2.99-3.06,4.22-4.82c-0.95,0-1.9,0-2.85,0c1.77,3.83,5.62,6.41,9.77,6.85
							c4.27,0.45,8.49-1.71,10.96-5.13c-0.95,0-1.9,0-2.85,0c2.26,4.2,4.69,8.51,8.31,11.7c3.73,3.29,8.52,5.03,13.49,5.05
							c0.65,0,1.29-0.03,1.94-0.09c0.38-0.03,0.75-0.08,1.13-0.13c0.44-0.06,0.79-0.23,1.19-0.4c1.18-0.49,2.47-0.73,3.75-0.74
							C114.33,55.8,114.34,52.5,112.21,52.52z"/>
					</g>
				</g>
			</g>
		</g>
		<g>
			<g>
				<path class="st0" d="M60.65,63.96c0.36-0.16-0.34,0.13,0.02-0.01c0.07-0.03,0.14-0.05,0.21-0.08c0.18-0.07,0.37-0.13,0.56-0.18
					c0.34-0.1,0.68-0.17,1.03-0.22c-0.15,0.02-0.29,0.04-0.44,0.06c0.53-0.07,1.05-0.07,1.58-0.01c-0.15-0.02-0.29-0.04-0.44-0.06
					c0.34,0.05,0.66,0.12,0.99,0.23c0.07,0.02,0.15,0.05,0.22,0.08c0.25,0.09,0.03-0.01-0.09-0.04c0.18,0.04,0.37,0.17,0.53,0.26
					c0.76,0.41,1.83,0.21,2.26-0.59c0.41-0.77,0.22-1.82-0.59-2.26c-1.11-0.6-2.34-0.97-3.61-0.97c-1.37-0.01-2.64,0.4-3.88,0.94
					c-0.35,0.15-0.66,0.63-0.76,0.99c-0.11,0.39-0.06,0.92,0.17,1.27c0.23,0.35,0.57,0.66,0.99,0.76
					C59.84,64.23,60.22,64.15,60.65,63.96L60.65,63.96z"/>
			</g>
		</g>
		<g>
			<g>
				<path class="st0" d="M53.37,71.48c6,1.74,12.71,1.76,18.73,0.13c2.05-0.56,1.18-3.74-0.88-3.18
					c-5.47,1.48-11.53,1.45-16.98-0.13C52.2,67.7,51.33,70.89,53.37,71.48L53.37,71.48z"/>
			</g>
		</g>
		<g>
			<g>
				<path class="st0" d="M74.41,67.54c0.39,0.2,0.77,0.44,1.12,0.71c-0.11-0.09-0.22-0.17-0.33-0.26c0.51,0.4,0.97,0.86,1.37,1.38
					c-0.09-0.11-0.17-0.22-0.26-0.33c0.4,0.52,0.72,1.08,0.98,1.68c-0.06-0.13-0.11-0.26-0.17-0.39c0.19,0.46,0.34,0.93,0.43,1.42
					c0.17,0.85,1.22,1.41,2.03,1.15c0.9-0.29,1.34-1.12,1.15-2.03c-0.52-2.59-2.32-4.96-4.67-6.17c-0.77-0.4-1.83-0.22-2.26,0.59
					C73.42,66.04,73.6,67.11,74.41,67.54L74.41,67.54z"/>
			</g>
		</g>
		<g>
			<g>
				<circle class="st2" cx="32.09" cy="73.84" r="9.7"/>
			</g>
			<g>
				<circle class="st2" cx="93.38" cy="73.84" r="9.7"/>
			</g>
		</g>
		<g>
			<g>
				<path class="st0" d="M75.3,61.81c0.05-0.02,0.1-0.05,0.15-0.07c-0.13,0.06-0.26,0.11-0.39,0.17c0.41-0.17,0.83-0.29,1.27-0.35
					c-0.15,0.02-0.29,0.04-0.44,0.06c0.49-0.07,0.99-0.07,1.48,0c-0.15-0.02-0.29-0.04-0.44-0.06c0.46,0.07,0.91,0.19,1.35,0.37
					c-0.13-0.06-0.26-0.11-0.39-0.17c0.38,0.17,0.73,0.37,1.07,0.62c-0.11-0.09-0.22-0.17-0.33-0.26c0.02,0.02,0.04,0.03,0.07,0.05
					c0.36,0.28,0.69,0.48,1.17,0.48c0.4,0,0.89-0.18,1.17-0.48c0.29-0.31,0.5-0.73,0.48-1.17c-0.02-0.41-0.15-0.91-0.48-1.17
					c-0.61-0.47-1.18-0.82-1.9-1.11c-0.59-0.24-1.2-0.35-1.83-0.43c-1.26-0.15-2.51,0.13-3.65,0.66c-0.35,0.16-0.66,0.62-0.76,0.99
					c-0.11,0.39-0.06,0.92,0.17,1.27c0.23,0.35,0.57,0.66,0.99,0.76C74.48,62.08,74.87,62.01,75.3,61.81L75.3,61.81z"/>
			</g>
		</g>
		<g>
			<g>
				<path class="st0" d="M51.62,58.96c-1.14-0.52-2.39-0.8-3.65-0.66c-0.62,0.07-1.21,0.18-1.79,0.41
					c-0.73,0.29-1.32,0.64-1.94,1.12c-0.31,0.24-0.48,0.8-0.48,1.17c0,0.4,0.18,0.89,0.48,1.17c0.31,0.29,0.73,0.5,1.17,0.48
					c0.47-0.02,0.8-0.2,1.17-0.48c0.02-0.02,0.04-0.03,0.07-0.05c-0.11,0.09-0.22,0.17-0.33,0.26c0.33-0.25,0.69-0.45,1.07-0.62
					c-0.13,0.06-0.26,0.11-0.39,0.17c0.43-0.18,0.88-0.3,1.35-0.37c-0.15,0.02-0.29,0.04-0.44,0.06c0.49-0.06,0.99-0.07,1.48,0
					c-0.15-0.02-0.29-0.04-0.44-0.06c0.44,0.07,0.86,0.18,1.27,0.35c-0.13-0.06-0.26-0.11-0.39-0.17c0.05,0.02,0.1,0.04,0.15,0.07
					c0.41,0.19,0.82,0.29,1.27,0.17c0.38-0.11,0.8-0.4,0.99-0.76C52.6,60.5,52.46,59.35,51.62,58.96L51.62,58.96z"/>
			</g>
		</g>
	</g>
</g>
<g id="텍스트">
</g>
</svg>
