<?xml version="1.0" encoding="utf-8"?>
<!-- Generator: Adobe Illustrator 27.0.0, SVG Export Plug-In . SVG Version: 6.00 Build 0)  -->
<svg version="1.1" xmlns="http://www.w3.org/2000/svg" xmlns:xlink="http://www.w3.org/1999/xlink" x="0px" y="0px"
	 viewBox="0 0 130.26 105.95" style="enable-background:new 0 0 130.26 105.95;" xml:space="preserve">
<style type="text/css">
	.st0{fill:#24221E;}
	.st1{fill:#FFE3D4;}
	.st2{fill:#FFB18F;}
	.st3{fill:#F5C140;}
	.st4{fill:#FFEBE6;}
	.st5{fill:#FFBBA6;}
	.st6{fill:#EAEAEA;}
	.st7{fill:#FFFFFF;}
	.st8{fill:#E5C2AA;}
	.st9{fill:#E09F73;}
	.st10{fill:#242322;}
</style>
<g id="배경">
</g>
<g id="이미지">
	<g>
		<g>
			<path class="st0" d="M109.51,9.57c-0.19,0-0.39-0.03-0.58-0.11c-0.85-0.32-1.28-1.27-0.96-2.13l2.36-6.26
				c0.32-0.85,1.27-1.28,2.13-0.96c0.85,0.32,1.28,1.27,0.96,2.13l-2.36,6.26C110.81,9.16,110.18,9.57,109.51,9.57z"/>
		</g>
		<g>
			<path class="st0" d="M115.86,15.81c-0.43,0-0.86-0.17-1.19-0.5c-0.63-0.66-0.62-1.7,0.04-2.33l7.64-7.38
				c0.66-0.63,1.7-0.62,2.33,0.04s0.62,1.7-0.04,2.33l-7.64,7.38C116.69,15.66,116.27,15.81,115.86,15.81z"/>
		</g>
		<g>
			<path class="st0" d="M128.61,23.13c-0.01,0-0.02,0-0.03,0l-7.6-0.14c-0.91-0.02-1.64-0.77-1.62-1.68s0.78-1.62,1.68-1.62
				l7.6,0.14c0.91,0.02,1.64,0.77,1.62,1.68C130.25,22.41,129.51,23.13,128.61,23.13z"/>
		</g>
		<g>
			<g>
				<g>
					<g>
						<path class="st0" d="M31.32,79.38c-6.42-2.86-14.31-1.27-19.82,3.09C6,86.83,2.73,93.6,1.62,100.54
							c6.93,2.25,14.68,1.85,21.34-1.09c6.66-2.94,12.18-8.4,15.19-15.03"/>
					</g>
					<g>
						<g>
							<path class="st0" d="M32.16,77.95c-5.54-2.43-11.74-2.03-17.19,0.46C9.65,80.86,5.52,85.46,3,90.68
								c-1.44,2.98-2.44,6.16-2.97,9.43c-0.15,0.91,0.23,1.73,1.15,2.03c6.03,1.93,12.66,1.99,18.73,0.19
								c5.54-1.64,10.59-4.86,14.44-9.16c2.12-2.36,3.9-5.02,5.22-7.9c0.37-0.81,0.23-1.78-0.59-2.26
								c-0.71-0.42-1.88-0.22-2.26,0.59c-2.13,4.65-5.44,8.7-9.56,11.59c-4.53,3.18-9.91,4.97-15.43,5.14
								c-3.3,0.1-6.53-0.36-9.68-1.37c0.38,0.68,0.77,1.35,1.15,2.03c0.85-5.2,2.82-10.27,6.22-14.22c1.7-1.98,3.55-3.55,5.81-4.8
								c2.13-1.17,4.75-2.03,7.07-2.27c2.85-0.3,5.66,0.01,8.17,1.11c0.82,0.36,1.77,0.24,2.26-0.59
								C33.16,79.51,32.98,78.31,32.16,77.95L32.16,77.95z"/>
						</g>
					</g>
				</g>
				<g>
					<g>
						<path class="st0" d="M98,79.38c6.42-2.86,14.31-1.27,19.82,3.09c5.51,4.37,8.77,11.14,9.89,18.08
							c-6.93,2.25-14.68,1.85-21.34-1.09c-6.66-2.94-12.18-8.4-15.19-15.03"/>
					</g>
					<g>
						<g>
							<path class="st0" d="M98.83,80.8c2.22-0.98,4.7-1.33,7.21-1.19c2.38,0.13,5,0.84,7.17,1.9c4.69,2.31,8.11,6.29,10.34,11
								c1.23,2.59,2.08,5.54,2.55,8.46c0.38-0.68,0.77-1.35,1.15-2.03c-5.51,1.76-11.44,1.83-16.98,0.19
								c-5.07-1.51-9.49-4.42-12.99-8.31c-1.91-2.12-3.48-4.57-4.7-7.23c-0.37-0.81-1.54-1.01-2.26-0.59
								c-0.83,0.49-0.96,1.44-0.59,2.26c2.35,5.13,6.13,9.53,10.74,12.77c4.99,3.5,11.01,5.41,17.1,5.59
								c3.56,0.11,7.16-0.4,10.55-1.49c0.92-0.29,1.3-1.12,1.15-2.03c-0.94-5.79-3.32-11.39-7.2-15.83
								c-3.9-4.47-9.37-7.34-15.28-7.91c-3.31-0.32-6.61,0.25-9.65,1.58c-0.82,0.36-1,1.55-0.59,2.26
								C97.07,81.05,98.01,81.16,98.83,80.8L98.83,80.8z"/>
						</g>
					</g>
				</g>
			</g>
			<g>
				<g>
					<g>
						<path class="st0" d="M45.39,31c2.18,3.68,6.26,6.16,10.53,6.39c4.27,0.23,8.59-1.79,11.15-5.22c1.3,3.59,5.46,5.62,9.26,5.27
							c3.81-0.35,7.2-2.66,9.76-5.5c5.12,7.4,14.22,11.61,23.17,11.46c-6-18.88-23.67-32.56-44.54-32.56
							c-20.65,0-38.16,13.4-44.34,31.97C29.8,42.18,38.97,37.93,45.39,31z"/>
					</g>
					<g>
						<g>
							<path class="st0" d="M43.97,31.83c1.93,3.2,5.06,5.6,8.65,6.65c3.68,1.08,7.68,0.56,11.04-1.25
								c1.92-1.04,3.53-2.49,4.84-4.23c-1.01-0.13-2.01-0.26-3.02-0.39c1.19,3.16,3.95,5.38,7.2,6.17c3.41,0.83,6.95,0,9.92-1.78
								c1.74-1.05,3.3-2.39,4.66-3.89c-0.86-0.11-1.73-0.22-2.59-0.33c4.27,6.12,10.97,10.29,18.27,11.7
								c2.08,0.4,4.2,0.61,6.32,0.58c1.03-0.01,1.92-1.05,1.59-2.09c-2.39-7.48-6.57-14.33-12.17-19.84
								c-5.59-5.51-12.51-9.63-20.03-11.89c-7.87-2.37-16.34-2.66-24.37-0.91C46.57,12,39.35,15.66,33.33,20.77
								c-5.98,5.08-10.61,11.62-13.54,18.89c-0.36,0.89-0.69,1.8-1,2.71c-0.33,0.97,0.55,2.16,1.59,2.09
								c7.63-0.54,15.12-3.23,21.23-7.87c1.77-1.34,3.43-2.8,4.94-4.43c0.61-0.65,0.65-1.69,0-2.33c-0.61-0.61-1.72-0.65-2.33,0
								c-4.84,5.19-11.14,8.78-18.03,10.43c-1.99,0.48-3.81,0.76-5.8,0.9c0.53,0.7,1.06,1.39,1.59,2.09
								c2.3-6.86,6.3-13.17,11.58-18.24c5.28-5.06,11.8-8.82,18.86-10.82c3.81-1.08,7.3-1.6,11.2-1.69
								c1.99-0.05,3.98,0.03,5.96,0.24c1,0.1,1.56,0.18,2.6,0.35c0.94,0.16,1.87,0.35,2.8,0.56c3.72,0.87,7.07,2.1,10.34,3.79
								c1.66,0.86,3.27,1.82,4.82,2.87c1.6,1.09,2.76,1.98,4.22,3.26c1.38,1.21,2.68,2.49,3.91,3.85c1.3,1.44,2.27,2.66,3.33,4.17
								c1.07,1.53,2.06,3.13,2.94,4.77c0.88,1.64,1.63,3.27,2.22,4.82c0.34,0.87,0.64,1.75,0.93,2.65c0.53-0.7,1.06-1.39,1.59-2.09
								c-6.5,0.09-13.13-2.19-18.02-6.51c-1.42-1.26-2.7-2.67-3.72-4.14c-0.57-0.82-1.83-1.18-2.59-0.33
								c-2.39,2.64-5.6,4.92-9.11,5.05c-0.41,0.01-0.81-0.01-1.22-0.03c-0.2-0.02-0.23-0.03-0.08,0c-0.12-0.02-0.23-0.04-0.35-0.06
								c-0.17-0.03-0.34-0.07-0.52-0.11c-0.93-0.22-1.48-0.43-2.2-0.85c-0.73-0.42-1.09-0.68-1.69-1.32
								c-0.32-0.35-0.32-0.34-0.58-0.74c-0.12-0.19-0.24-0.39-0.34-0.59c-0.05-0.1-0.1-0.2-0.15-0.31c0.05,0.13,0.04,0.1-0.03-0.09
								c-0.53-1.41-2.14-1.55-3.02-0.39c-2.24,2.94-6.11,4.62-9.82,4.39c-1.71-0.11-3.57-0.73-5.12-1.67
								c-1.59-0.96-2.93-2.3-3.89-3.89C45.72,28.35,42.87,30.01,43.97,31.83z"/>
						</g>
					</g>
				</g>
				<g>
					<g>
						<path class="st1" d="M114.2,44.03c-1.59,0-3.1,0.32-4.48,0.91c-0.14-0.52-0.3-1.03-0.46-1.54
							c-8.95,0.15-18.05-4.06-23.17-11.46c-2.55,2.84-5.95,5.15-9.76,5.5c-3.81,0.35-7.96-1.67-9.26-5.27
							c-2.56,3.42-6.89,5.45-11.15,5.22c-4.27-0.23-8.35-2.71-10.53-6.39c-6.42,6.93-15.59,11.17-25,11.81
							c-0.24,0.72-0.46,1.45-0.66,2.19c-1.41-0.62-2.97-0.97-4.6-0.97c-6.35,0-11.49,5.14-11.49,11.49s5.14,11.49,11.49,11.49
							c1.3,0,2.55-0.23,3.72-0.63c4.13,21.59,23.1,37.91,45.89,37.91c22.78,0,41.74-16.3,45.88-37.86c1.13,0.37,2.34,0.58,3.59,0.58
							c6.35,0,11.49-5.14,11.49-11.49S120.55,44.03,114.2,44.03z"/>
					</g>
					<g>
						<g>
							<path class="st0" d="M114.2,42.38c-1.68,0.02-3.36,0.32-4.92,0.96c0.68,0.38,1.35,0.77,2.03,1.15
								c-0.15-0.52-0.3-1.03-0.46-1.54c-0.22-0.69-0.85-1.22-1.59-1.21c-6.5,0.09-13.13-2.19-18.02-6.51
								c-1.42-1.26-2.7-2.67-3.72-4.14c-0.57-0.82-1.83-1.18-2.59-0.33c-2.39,2.64-5.6,4.92-9.11,5.05
								c-0.41,0.01-0.81-0.01-1.22-0.03c-0.2-0.02-0.23-0.03-0.08,0c-0.12-0.02-0.23-0.04-0.35-0.06c-0.17-0.03-0.34-0.07-0.52-0.11
								c-0.93-0.22-1.48-0.43-2.2-0.85c-0.73-0.42-1.09-0.68-1.69-1.32c-0.32-0.35-0.32-0.34-0.58-0.74
								c-0.12-0.19-0.24-0.39-0.34-0.59c-0.05-0.1-0.1-0.2-0.15-0.31c0.05,0.13,0.04,0.1-0.03-0.09c-0.53-1.41-2.14-1.55-3.02-0.39
								c-2.24,2.94-6.11,4.62-9.82,4.39c-1.71-0.11-3.57-0.73-5.12-1.67c-1.59-0.96-2.93-2.3-3.89-3.89
								c-0.53-0.88-1.85-1.12-2.59-0.33c-4.84,5.19-11.14,8.78-18.03,10.43c-1.99,0.48-3.81,0.76-5.8,0.9
								c-0.76,0.05-1.35,0.48-1.59,1.21c-0.24,0.72-0.46,1.45-0.66,2.19c0.81-0.33,1.62-0.66,2.42-0.99
								c-3.39-1.45-7.13-1.59-10.55-0.15c-2.86,1.21-5.31,3.45-6.67,6.26c-1.42,2.94-1.77,6.34-0.85,9.49
								c0.88,3.04,2.87,5.66,5.51,7.39c3.3,2.16,7.54,2.65,11.28,1.41c-0.68-0.38-1.35-0.77-2.03-1.15
								c1.64,8.5,5.63,16.45,11.37,22.92c5.72,6.44,13.18,11.28,21.37,13.91c8.51,2.73,17.8,3.01,26.48,0.85
								c8.35-2.07,16.09-6.45,22.22-12.49c6.12-6.03,10.6-13.71,12.8-22.02c0.27-1.04,0.51-2.08,0.72-3.14
								c-0.68,0.38-1.35,0.77-2.03,1.15c5.96,1.9,12.68-0.74,15.62-6.3c2.75-5.2,1.7-11.83-2.65-15.83
								C120.7,43.65,117.52,42.41,114.2,42.38c-2.12-0.02-2.13,3.28,0,3.3c0.32,0,0.64,0.01,0.96,0.04
								c0.14,0.01,0.29,0.02,0.43,0.04c-0.32-0.04,0.23,0.04,0.24,0.04c0.61,0.11,1.21,0.27,1.79,0.48c0.1,0.04,0.21,0.08,0.31,0.12
								c0.5,0.18-0.26-0.14,0.22,0.09c0.25,0.12,0.5,0.24,0.74,0.37c0.24,0.13,0.48,0.27,0.71,0.42c0.11,0.07,0.23,0.15,0.34,0.23
								c0.05,0.03,0.47,0.35,0.26,0.18c0.9,0.71,1.67,1.56,2.17,2.31c0.72,1.09,1.05,1.81,1.36,2.99c0.32,1.18,0.4,2.06,0.3,3.41
								c-0.01,0.14-0.02,0.29-0.04,0.43c-0.04,0.32,0.08-0.38-0.02,0.16c-0.05,0.28-0.1,0.56-0.17,0.83
								c-0.07,0.27-0.14,0.54-0.23,0.81c-0.05,0.16-0.11,0.32-0.16,0.47c0,0-0.2,0.48-0.08,0.22c-0.22,0.5-0.48,0.99-0.77,1.46
								c-0.16,0.25-0.33,0.5-0.51,0.74c-0.18,0.25,0.24-0.28-0.09,0.12c-0.12,0.15-0.25,0.29-0.37,0.43
								c-0.87,0.96-1.47,1.43-2.53,2.04c-1.07,0.61-2.14,0.99-3.53,1.19c0.08-0.01,0.27-0.02-0.07,0.01
								c-0.23,0.02-0.46,0.04-0.69,0.05c-0.37,0.02-0.74,0.02-1.11,0c-0.88-0.05-1.73-0.24-2.57-0.51c-0.8-0.26-1.86,0.3-2.03,1.15
								c-0.8,4.12-2.12,8.04-3.9,11.61c-0.91,1.81-1.93,3.57-3.07,5.25c-1.19,1.76-2.19,3.04-3.61,4.64c-2.74,3.07-5.69,5.62-9,7.78
								c-1.7,1.11-3.47,2.11-5.3,2.99c-1.83,0.88-3.49,1.54-5.55,2.21c-2.01,0.65-4.06,1.15-6.14,1.52c-1.15,0.2-1.78,0.29-2.88,0.4
								c-1.07,0.11-2.14,0.18-3.21,0.22c-4.42,0.15-8.37-0.26-12.58-1.31c-4.08-1.02-7.55-2.41-11.17-4.45
								c-3.65-2.06-6.62-4.31-9.58-7.24c-5.74-5.68-9.86-12.78-11.91-20.61c-0.26-1.01-0.49-2.03-0.69-3.06
								c-0.16-0.84-1.23-1.42-2.03-1.15c-1.52,0.5-3.07,0.69-4.67,0.48c0.32,0.04-0.23-0.04-0.24-0.04
								c-0.11-0.02-0.22-0.04-0.33-0.07c-0.33-0.07-0.66-0.15-0.98-0.25c-0.75-0.23-0.94-0.31-1.6-0.66
								c-0.53-0.28-1.04-0.6-1.52-0.97c0.24,0.19-0.18-0.15-0.18-0.15c-0.12-0.11-0.25-0.21-0.37-0.32
								c-0.26-0.24-0.51-0.49-0.75-0.75c-0.09-0.1-0.18-0.2-0.27-0.31c0,0-0.33-0.42-0.15-0.18c-0.2-0.26-0.38-0.53-0.56-0.81
								c-0.15-0.23-0.28-0.47-0.41-0.71c-0.08-0.15-0.15-0.29-0.22-0.44c-0.05-0.1-0.09-0.2-0.14-0.3c0.06,0.14,0.05,0.12-0.02-0.07
								c-0.92-2.48-0.99-4.74-0.09-7.22c0.05-0.13,0.1-0.26,0.15-0.39c-0.12,0.29,0.1-0.21,0.1-0.21c0.14-0.3,0.3-0.59,0.46-0.87
								c0.14-0.24,0.29-0.47,0.44-0.69c0.09-0.13,0.19-0.27,0.29-0.4c-0.16,0.21,0.22-0.26,0.26-0.3C8,48.71,8.43,48.29,8.88,47.9
								c0,0,0.42-0.33,0.18-0.15c0.13-0.1,0.26-0.19,0.4-0.29c0.27-0.19,0.55-0.36,0.84-0.52c1.02-0.58,2.55-1.1,3.61-1.2
								c1.71-0.15,3.42,0.01,4.99,0.68c0.97,0.41,2.11,0.14,2.42-0.99c0.21-0.73,0.42-1.46,0.66-2.19c-0.53,0.4-1.06,0.81-1.59,1.21
								c7.63-0.54,15.12-3.23,21.23-7.87c1.77-1.34,3.43-2.8,4.94-4.43c-0.86-0.11-1.73-0.22-2.59-0.33c1.93,3.2,5.06,5.6,8.65,6.65
								c3.68,1.08,7.68,0.56,11.04-1.25c1.92-1.04,3.53-2.49,4.84-4.23c-1.01-0.13-2.01-0.26-3.02-0.39
								c1.19,3.16,3.95,5.38,7.2,6.17c3.41,0.83,6.95,0,9.92-1.78c1.74-1.05,3.3-2.39,4.66-3.89c-0.86-0.11-1.73-0.22-2.59-0.33
								c4.27,6.12,10.97,10.29,18.27,11.7c2.08,0.4,4.2,0.61,6.32,0.58c-0.53-0.4-1.06-0.81-1.59-1.21
								c0.16,0.51,0.31,1.02,0.46,1.54c0.22,0.78,1.2,1.5,2.03,1.15c1.3-0.54,2.63-0.83,4.04-0.85
								C116.32,45.66,116.33,42.36,114.2,42.38z"/>
						</g>
					</g>
				</g>
			</g>
			<g>
				<g>
					<path class="st7" d="M52.83,60.43c1.46,20.03,22.63,20.26,24.06,0.19c0.08-1.18-0.82-2.19-2-2.2l-20.01-0.19
						C53.68,58.21,52.75,59.23,52.83,60.43z"/>
				</g>
				<g>
					<g>
						<path class="st0" d="M51.18,60.43c0.44,5.86,2.67,12.23,8.08,15.26c4.4,2.46,9.66,1.76,13.45-1.48c2.14-1.83,3.6-4.36,4.54-7
							c0.58-1.62,0.91-3.3,1.13-5c0.13-0.98,0.3-2.02-0.05-2.98c-0.42-1.13-1.34-2.03-2.52-2.34c-0.55-0.14-1.11-0.12-1.67-0.13
							c-0.79-0.01-1.57-0.02-2.36-0.02c-2.45-0.02-4.89-0.05-7.34-0.07c-2.36-0.02-4.73-0.05-7.09-0.07
							c-1.66-0.02-3.48-0.28-4.86,0.85C51.62,58.17,51.15,59.3,51.18,60.43c0.03,0.89,0.74,1.65,1.65,1.65
							c0.87,0,1.68-0.76,1.65-1.65c0-0.11-0.01-0.23,0-0.34c-0.01,0.05-0.04,0.21,0.02,0.04c0.09-0.25-0.11,0.19,0.02-0.04
							c0.09-0.16-0.01-0.02-0.03,0.01c0.06-0.07,0.15-0.16,0.22-0.22c-0.15,0.11-0.05,0,0.06-0.01c-0.03,0-0.21,0.09-0.02,0.02
							c0.12-0.03,0.1-0.03-0.04-0.01c0.06,0,0.11,0,0.17-0.01c0.07,0,0.15,0,0.22,0c0.52,0,1.05,0.01,1.57,0.02
							c2.06,0.02,4.11,0.04,6.17,0.06c3.91,0.04,7.82,0.08,11.73,0.11c0.1,0,0.2,0,0.31,0c0,0,0.01,0,0.01,0
							c0.35,0.01,0.12,0.01,0.05,0c0.04,0,0.31,0.04,0.05,0.01c0.04,0.01,0.19,0.15,0.09,0.04c-0.12-0.14,0.1,0.1,0.12,0.13
							c0.11,0.15,0,0-0.03-0.02c0.03,0.05,0.05,0.09,0.08,0.14c-0.05-0.13-0.06-0.14-0.02-0.03c0.05,0.18,0.02,0,0.02-0.04
							c0.02,0.11,0.01,0.22,0,0.33c-0.01,0.2-0.03,0.4-0.05,0.6c-0.02,0.19-0.04,0.39-0.06,0.58c-0.01,0.11-0.03,0.22-0.04,0.33
							c0.03-0.24,0,0.02-0.02,0.13c-0.11,0.74-0.26,1.48-0.44,2.21c-0.18,0.7-0.39,1.39-0.63,2.07c-0.06,0.15-0.11,0.3-0.17,0.45
							c-0.15,0.39,0.05-0.1-0.07,0.17c-0.14,0.32-0.29,0.64-0.45,0.95c-0.29,0.55-0.6,1.09-0.96,1.61c-0.07,0.1-0.14,0.2-0.21,0.29
							c-0.05,0.07-0.38,0.48-0.1,0.14c-0.18,0.22-0.36,0.45-0.56,0.66c-0.37,0.41-0.77,0.8-1.19,1.15c-0.1,0.08-0.19,0.16-0.29,0.24
							c0.24-0.2,0.1-0.08-0.05,0.03c-0.21,0.15-0.43,0.3-0.65,0.43c-0.22,0.13-0.44,0.26-0.67,0.38c-0.11,0.05-0.21,0.11-0.32,0.16
							c-0.19,0.09-0.4,0.16-0.07,0.04c-0.47,0.18-0.93,0.35-1.41,0.47c-0.22,0.06-0.44,0.1-0.67,0.14
							c-0.06,0.01-0.47,0.07-0.17,0.03c0.3-0.04-0.19,0.02-0.26,0.02c-0.48,0.04-0.97,0.04-1.45,0.01c-0.1-0.01-0.19-0.02-0.29-0.02
							c-0.44-0.04,0.2,0.04-0.04,0c-0.24-0.05-0.48-0.08-0.72-0.14c-0.48-0.11-0.95-0.27-1.42-0.44c-0.35-0.13,0.24,0.12-0.02-0.01
							c-0.11-0.05-0.22-0.1-0.32-0.15c-0.23-0.11-0.46-0.23-0.68-0.36c-0.23-0.13-0.45-0.27-0.66-0.42c-0.1-0.07-0.2-0.14-0.3-0.21
							c-0.06-0.04-0.11-0.09-0.17-0.13c0.07,0.05,0.24,0.2,0.08,0.06c-0.42-0.36-0.84-0.72-1.22-1.12c-0.18-0.19-0.36-0.39-0.53-0.6
							c-0.09-0.1-0.17-0.21-0.26-0.32c-0.14-0.18,0.18,0.24,0.04,0.05c-0.06-0.08-0.12-0.16-0.18-0.24c-0.35-0.49-0.67-1-0.95-1.52
							c-0.16-0.28-0.3-0.57-0.44-0.87c-0.07-0.14-0.13-0.28-0.19-0.42c-0.03-0.06-0.05-0.12-0.08-0.18
							c0.14,0.33,0.01,0.02-0.02-0.05c-0.52-1.36-0.91-2.75-1.16-4.18c-0.04-0.21-0.07-0.42-0.1-0.63c0-0.01-0.04-0.27-0.02-0.1
							c0.03,0.19-0.02-0.15-0.02-0.19c-0.05-0.42-0.09-0.84-0.12-1.26c-0.07-0.89-0.71-1.65-1.65-1.65
							C51.99,58.78,51.12,59.53,51.18,60.43z"/>
					</g>
				</g>
			</g>
			<g>
				<g>
					<circle class="st2" cx="34.08" cy="63.7" r="9.7"/>
				</g>
				<g>
					<circle class="st2" cx="95.37" cy="63.7" r="9.7"/>
				</g>
			</g>
			<g>
				<g>
					<g>
						<path class="st0" d="M49.41,51.81c0.01-0.04,0.03-0.08,0.05-0.12c-0.06,0.13-0.11,0.26-0.17,0.39
							c0.08-0.18,0.18-0.34,0.29-0.5c-0.09,0.11-0.17,0.22-0.26,0.33c0.12-0.15,0.25-0.28,0.4-0.39c-0.11,0.09-0.22,0.17-0.33,0.26
							c0.2-0.15,0.41-0.27,0.64-0.37c-0.13,0.06-0.26,0.11-0.39,0.17c0.22-0.09,0.45-0.15,0.69-0.19c-0.15,0.02-0.29,0.04-0.44,0.06
							c0.27-0.04,0.53-0.03,0.8,0.01c-0.15-0.02-0.29-0.04-0.44-0.06c0.25,0.04,0.49,0.09,0.72,0.18c-0.13-0.06-0.26-0.11-0.39-0.17
							c0.17,0.07,0.32,0.16,0.47,0.27c-0.11-0.09-0.22-0.17-0.33-0.26c0.2,0.16,0.36,0.34,0.52,0.54c-0.09-0.11-0.17-0.22-0.26-0.33
							c0.08,0.1,0.15,0.2,0.22,0.31c0.24,0.36,0.56,0.64,0.99,0.76c0.39,0.11,0.92,0.06,1.27-0.17c0.71-0.46,1.1-1.49,0.59-2.26
							c-0.43-0.65-0.97-1.32-1.7-1.67c-0.68-0.32-1.45-0.52-2.2-0.48c-0.77,0.04-1.55,0.24-2.21,0.66c-0.82,0.52-1.37,1.24-1.7,2.14
							c-0.14,0.38-0.03,0.93,0.17,1.27c0.2,0.34,0.59,0.67,0.99,0.76c0.42,0.1,0.9,0.08,1.27-0.17
							C49.03,52.55,49.25,52.23,49.41,51.81L49.41,51.81z"/>
					</g>
				</g>
				<g>
					<g>
						<path class="st0" d="M83.23,50.93c-0.33-0.91-0.88-1.62-1.7-2.14c-0.65-0.42-1.44-0.62-2.21-0.66
							c-0.76-0.03-1.52,0.16-2.2,0.48c-0.73,0.35-1.26,1.01-1.7,1.67c-0.48,0.72-0.16,1.86,0.59,2.26c0.83,0.44,1.75,0.18,2.26-0.59
							c0.07-0.1,0.14-0.21,0.22-0.31c-0.09,0.11-0.17,0.22-0.26,0.33c0.15-0.2,0.32-0.38,0.52-0.54c-0.11,0.09-0.22,0.17-0.33,0.26
							c0.15-0.11,0.3-0.2,0.47-0.27c-0.13,0.06-0.26,0.11-0.39,0.17c0.23-0.09,0.48-0.15,0.72-0.18c-0.15,0.02-0.29,0.04-0.44,0.06
							c0.27-0.04,0.53-0.04,0.8-0.01c-0.15-0.02-0.29-0.04-0.44-0.06c0.24,0.04,0.46,0.1,0.69,0.19c-0.13-0.06-0.26-0.11-0.39-0.17
							c0.23,0.1,0.44,0.22,0.64,0.37c-0.11-0.09-0.22-0.17-0.33-0.26c0.15,0.12,0.28,0.25,0.4,0.39c-0.09-0.11-0.17-0.22-0.26-0.33
							c0.12,0.15,0.22,0.32,0.29,0.5c-0.06-0.13-0.11-0.26-0.17-0.39c0.02,0.04,0.03,0.08,0.05,0.12c0.15,0.41,0.37,0.76,0.76,0.99
							c0.35,0.21,0.87,0.29,1.27,0.17C82.87,52.71,83.55,51.8,83.23,50.93L83.23,50.93z"/>
					</g>
				</g>
			</g>
			<g>
				<g>
					<path class="st0" d="M62.58,53.58c0.36-0.16-0.34,0.13,0.02-0.01c0.07-0.03,0.14-0.05,0.21-0.08c0.18-0.07,0.37-0.13,0.56-0.18
						c0.34-0.1,0.68-0.17,1.03-0.22c-0.15,0.02-0.29,0.04-0.44,0.06c0.53-0.07,1.05-0.07,1.58-0.01c-0.15-0.02-0.29-0.04-0.44-0.06
						c0.34,0.05,0.66,0.12,0.99,0.23c0.07,0.02,0.15,0.05,0.22,0.08c0.25,0.09,0.03-0.01-0.09-0.04c0.18,0.04,0.37,0.17,0.53,0.26
						c0.76,0.41,1.83,0.21,2.26-0.59c0.41-0.77,0.22-1.82-0.59-2.26c-1.11-0.6-2.34-0.97-3.61-0.97c-1.37-0.01-2.64,0.4-3.88,0.94
						c-0.35,0.15-0.66,0.63-0.76,0.99c-0.11,0.39-0.06,0.92,0.17,1.27c0.23,0.35,0.57,0.66,0.99,0.76
						C61.77,53.85,62.15,53.76,62.58,53.58L62.58,53.58z"/>
				</g>
			</g>
		</g>
	</g>
</g>
<g id="텍스트">
</g>
</svg>
