<?xml version="1.0" encoding="utf-8"?>
<!-- Generator: Adobe Illustrator 27.0.0, SVG Export Plug-In . SVG Version: 6.00 Build 0)  -->
<svg version="1.1" xmlns="http://www.w3.org/2000/svg" xmlns:xlink="http://www.w3.org/1999/xlink" x="0px" y="0px"
	 viewBox="0 0 125.32 102.76" style="enable-background:new 0 0 125.32 102.76;" xml:space="preserve">
<style type="text/css">
	.st0{fill:#24221E;}
	.st1{fill:#FFE3D4;}
	.st2{fill:#FFB18F;}
	.st3{fill:#F5C140;}
	.st4{fill:#FFEBE6;}
	.st5{fill:#FFBBA6;}
	.st6{fill:#EAEAEA;}
	.st7{fill:#FFFFFF;}
	.st8{fill:#E5C2AA;}
	.st9{fill:#E09F73;}
	.st10{fill:#242322;}
</style>
<g id="배경">
</g>
<g id="이미지">
	<g>
		<g>
			<g>
				<path class="st1" d="M112.22,40.85c-1.59,0-3.11,0.32-4.48,0.91C102.22,22.08,84.17,7.65,62.74,7.65
					c-21.45,0-39.52,14.46-45.01,34.16c-1.41-0.62-2.96-0.96-4.6-0.96c-6.35,0-11.49,5.14-11.49,11.49
					c0,6.35,5.14,11.49,11.49,11.49c1.3,0,2.55-0.23,3.72-0.63c4.13,21.59,23.1,37.91,45.89,37.91c22.78,0,41.74-16.3,45.88-37.86
					c1.13,0.37,2.34,0.58,3.59,0.58c6.35,0,11.49-5.14,11.49-11.49C123.71,45.99,118.56,40.85,112.22,40.85z"/>
			</g>
			<g>
				<g>
					<path class="st0" d="M112.22,39.2c-1.69,0.02-3.36,0.32-4.92,0.97c0.68,0.38,1.35,0.77,2.03,1.15
						c-2.21-7.84-6.4-15.06-12.11-20.87c-5.66-5.75-12.76-10.05-20.48-12.39c-8.11-2.46-16.87-2.7-25.12-0.77
						c-7.9,1.85-15.26,5.76-21.28,11.18c-6.04,5.44-10.63,12.41-13.3,20.07c-0.33,0.93-0.62,1.88-0.89,2.83
						c0.81-0.33,1.62-0.66,2.42-0.99c-3.51-1.5-7.3-1.56-10.81-0.03c-2.77,1.21-5.13,3.49-6.43,6.22c-1.4,2.95-1.73,6.35-0.79,9.49
						c0.91,3.03,2.9,5.64,5.55,7.35c3.3,2.13,7.5,2.6,11.21,1.37c-0.68-0.38-1.35-0.77-2.03-1.15c1.64,8.5,5.63,16.45,11.37,22.92
						c5.72,6.44,13.18,11.28,21.37,13.91c8.51,2.73,17.8,3.01,26.48,0.85c8.35-2.07,16.09-6.45,22.22-12.49
						c6.12-6.03,10.6-13.71,12.8-22.02c0.27-1.04,0.51-2.08,0.72-3.14c-0.68,0.38-1.35,0.77-2.03,1.15
						c5.96,1.9,12.68-0.74,15.62-6.3c2.75-5.2,1.7-11.83-2.65-15.83C118.71,40.46,115.53,39.22,112.22,39.2
						c-2.12-0.02-2.13,3.28,0,3.3c0.32,0,0.64,0.01,0.96,0.04c0.14,0.01,0.29,0.02,0.43,0.04c-0.32-0.04,0.23,0.04,0.24,0.04
						c0.61,0.11,1.21,0.27,1.79,0.48c0.1,0.04,0.21,0.08,0.31,0.12c0.5,0.18-0.26-0.14,0.22,0.09c0.25,0.12,0.5,0.24,0.74,0.37
						c0.24,0.13,0.48,0.27,0.71,0.42c0.11,0.07,0.23,0.15,0.34,0.23c0.05,0.03,0.47,0.35,0.26,0.18c0.9,0.71,1.67,1.56,2.17,2.31
						c0.72,1.09,1.05,1.81,1.36,2.99c0.32,1.18,0.4,2.06,0.3,3.41c-0.01,0.14-0.02,0.29-0.04,0.43c-0.04,0.32,0.08-0.38-0.02,0.16
						c-0.05,0.28-0.1,0.56-0.17,0.83c-0.07,0.27-0.14,0.54-0.23,0.81c-0.05,0.16-0.11,0.32-0.16,0.47c0,0-0.2,0.48-0.08,0.22
						c-0.22,0.5-0.48,0.99-0.77,1.46c-0.16,0.25-0.33,0.5-0.51,0.74c-0.18,0.25,0.24-0.28-0.09,0.12c-0.12,0.15-0.25,0.29-0.37,0.43
						c-0.87,0.96-1.47,1.43-2.53,2.04c-1.07,0.61-2.14,0.99-3.53,1.19c0.08-0.01,0.27-0.02-0.07,0.01
						c-0.23,0.02-0.46,0.04-0.69,0.05c-0.37,0.02-0.74,0.02-1.11,0c-0.88-0.05-1.73-0.24-2.57-0.51c-0.8-0.26-1.86,0.3-2.03,1.15
						c-0.8,4.12-2.12,8.04-3.9,11.61c-0.91,1.81-1.93,3.57-3.07,5.25c-1.19,1.76-2.19,3.04-3.61,4.64c-2.74,3.07-5.69,5.62-9,7.78
						c-1.7,1.11-3.47,2.11-5.3,2.99c-1.83,0.88-3.49,1.54-5.55,2.21c-2.01,0.65-4.06,1.15-6.14,1.52c-1.15,0.2-1.78,0.29-2.88,0.4
						c-1.07,0.11-2.14,0.18-3.21,0.22c-4.42,0.15-8.37-0.26-12.58-1.31c-4.08-1.02-7.55-2.41-11.17-4.45
						c-3.65-2.06-6.62-4.31-9.58-7.24c-5.74-5.68-9.86-12.78-11.91-20.61c-0.26-1.01-0.49-2.03-0.69-3.06
						c-0.16-0.84-1.23-1.42-2.03-1.15c-1.52,0.51-3.07,0.69-4.67,0.48c0.27,0.03-0.09-0.02-0.15-0.03
						c-0.14-0.02-0.28-0.05-0.42-0.08c-0.33-0.07-0.66-0.15-0.98-0.25c-0.27-0.08-0.53-0.18-0.79-0.27
						c-0.49-0.18,0.26,0.14-0.22-0.09c-0.2-0.1-0.4-0.19-0.59-0.29c-1.19-0.63-1.85-1.14-2.76-2.13c-0.47-0.51-0.57-0.64-0.94-1.22
						c-0.18-0.28-0.34-0.56-0.5-0.85c-0.08-0.15-0.15-0.29-0.22-0.44c-0.01-0.03-0.2-0.46-0.1-0.21c-0.26-0.62-0.45-1.27-0.59-1.92
						c-0.02-0.11-0.05-0.22-0.07-0.33c0,0-0.08-0.56-0.04-0.24c-0.05-0.4-0.08-0.81-0.08-1.21c-0.02-1.34,0.12-2.25,0.6-3.59
						c0.28-0.78,1.09-2.2,1.62-2.82c0.88-1.04,1.59-1.64,2.65-2.26c0.33-0.19,0.68-0.37,1.02-0.53c0.47-0.23-0.28,0.09,0.22-0.09
						c0.16-0.06,0.31-0.12,0.47-0.17c0.37-0.13,0.75-0.23,1.13-0.32c0.17-0.04,0.33-0.07,0.5-0.1c0.03-0.01,0.52-0.08,0.24-0.04
						c1.73-0.22,3.55-0.03,5.15,0.66c0.97,0.41,2.11,0.14,2.42-0.99c2.05-7.32,5.93-14.02,11.25-19.44
						c5.3-5.4,11.91-9.42,19.12-11.59c7.56-2.28,15.67-2.53,23.29-0.75c7.45,1.74,14.34,5.36,19.94,10.43
						c1.41,1.28,2.74,2.64,3.98,4.08c0.3,0.34,0.59,0.69,0.88,1.04c0.14,0.18,0.29,0.35,0.43,0.53c0.07,0.09,0.14,0.18,0.21,0.27
						c0.07,0.09,0.07,0.09,0,0c0.03,0.05,0.07,0.09,0.1,0.14c0.58,0.77,1.15,1.56,1.68,2.36c1.08,1.62,2.05,3.3,2.92,5.04
						c0.21,0.41,0.4,0.82,0.6,1.24c0.18,0.38,0.43,0.96,0.55,1.22c0.3,0.71,0.71,1.77,1.01,2.63c0.32,0.91,0.6,1.82,0.86,2.75
						c0.22,0.78,1.2,1.5,2.03,1.15c1.3-0.54,2.63-0.84,4.05-0.85C114.34,42.48,114.34,39.18,112.22,39.2z"/>
				</g>
			</g>
		</g>
		<g>
			<g>
				<circle class="st2" cx="32.1" cy="60.51" r="9.7"/>
			</g>
			<g>
				<circle class="st2" cx="93.38" cy="60.51" r="9.7"/>
			</g>
		</g>
		<g>
			<g>
				<path class="st7" d="M50.82,59.87c5.96,8.94,19.03,8.21,24.8,0.07c1.27-1.79,0.42-4.92-1.34-4.92H52.22
					C50.49,55.01,49.62,58.06,50.82,59.87z"/>
			</g>
			<g>
				<g>
					<path class="st0" d="M49.4,60.7c3.43,5.09,9.41,7.88,15.53,7.14c2.91-0.35,5.75-1.34,8.14-3.07c1.23-0.89,2.36-1.91,3.3-3.11
						c0.55-0.7,1.04-1.36,1.29-2.23c0.26-0.86,0.26-1.77,0.11-2.65c-0.27-1.57-1.36-3.14-3.04-3.38c-0.34-0.05-0.66-0.05-1.01-0.05
						c-1.44,0-2.88,0-4.32,0c-4.33,0-8.66,0-12.99,0c-1.29,0-2.58,0-3.88,0c-0.66,0-1.31,0.09-1.89,0.43
						c-1.44,0.84-2.12,2.71-2.03,4.32C48.67,59.03,48.91,59.92,49.4,60.7c0.47,0.75,1.47,1.05,2.26,0.59
						c0.75-0.44,1.07-1.5,0.59-2.26c-0.08-0.13-0.16-0.26-0.23-0.4c0.11,0.24-0.02-0.1-0.04-0.19c-0.03-0.1-0.07-0.45-0.05-0.17
						c-0.02-0.18-0.02-0.36-0.01-0.54c0-0.08,0.01-0.15,0.01-0.23c0,0.03-0.05,0.25-0.01,0.06c0.03-0.15,0.07-0.29,0.11-0.43
						c0.02-0.07,0.04-0.14,0.07-0.21c-0.01,0.03-0.12,0.23-0.03,0.07c0.03-0.06,0.07-0.12,0.1-0.18c0.14-0.33-0.11,0.1,0.01-0.04
						c0.07-0.07,0.23-0.32,0.15-0.16c-0.01,0.03-0.06,0.05-0.09,0.05c0.12-0.03-0.31-0.01-0.01,0c0.08,0,0.15,0,0.23,0
						c1.09,0,2.18,0,3.27,0c3.95,0,7.89,0,11.84,0c1.63,0,3.27,0,4.9,0c0.47,0,0.94,0,1.41,0c0.11,0,0.22,0,0.33,0
						c0.02,0,0.04,0,0.06,0c0.02,0,0.03,0.01,0.07,0c0.17-0.02-0.13-0.01-0.15-0.02c0.2,0.05,0.02-0.01-0.07-0.05
						c0.02,0.01,0.15,0.07,0.15,0.09c0.02,0.01,0.03,0.02,0.05,0.03c-0.16-0.13-0.2-0.15-0.11-0.07c0.03,0.05,0.11,0.08,0.12,0.13
						c0,0-0.16-0.25-0.07-0.08c0.06,0.12,0.13,0.23,0.19,0.34c0.08,0.17-0.03-0.06-0.04-0.08c0.03,0.09,0.06,0.18,0.08,0.27
						c0.04,0.14,0.07,0.28,0.09,0.42c-0.04-0.29-0.01,0.03-0.01,0.15c0,0.15,0,0.3-0.02,0.45c0.03-0.31-0.03,0.12-0.06,0.22
						c-0.02,0.07-0.16,0.42-0.09,0.29c0.06-0.13-0.13,0.2-0.17,0.26c-0.08,0.13-0.18,0.25-0.27,0.38c-0.11,0.15,0,0,0.02-0.03
						c-0.06,0.08-0.13,0.16-0.2,0.24c-0.42,0.51-0.88,1-1.37,1.45c-0.22,0.21-0.46,0.4-0.69,0.6c-0.23,0.2,0.1-0.06-0.14,0.11
						c-0.14,0.1-0.28,0.21-0.43,0.31c-0.51,0.36-1.05,0.68-1.61,0.97c-0.27,0.14-0.53,0.27-0.81,0.39
						c-0.09,0.04-0.41,0.17-0.16,0.07c-0.16,0.07-0.32,0.13-0.49,0.19c-0.61,0.22-1.23,0.41-1.86,0.56
						c-0.29,0.07-0.58,0.13-0.88,0.18c-0.15,0.03-0.29,0.05-0.44,0.07c-0.19,0.03,0.04,0,0.07-0.01c-0.1,0.01-0.2,0.02-0.3,0.03
						c-0.62,0.07-1.24,0.1-1.86,0.09c-0.3,0-0.59-0.01-0.89-0.04c-0.15-0.01-0.3-0.02-0.44-0.04c-0.1-0.01-0.54-0.06-0.23-0.02
						c-0.64-0.09-1.27-0.22-1.89-0.39c-0.29-0.08-0.57-0.17-0.86-0.26c-0.14-0.05-0.28-0.1-0.42-0.15
						c-0.07-0.03-0.14-0.05-0.21-0.08c-0.03-0.01-0.31-0.13-0.15-0.06c0.13,0.06-0.22-0.1-0.28-0.13c-0.14-0.06-0.27-0.13-0.41-0.2
						c-0.29-0.15-0.58-0.31-0.86-0.48c-0.26-0.16-0.52-0.32-0.77-0.5c-0.13-0.09-0.25-0.18-0.38-0.27
						c-0.01-0.01-0.21-0.16-0.08-0.06c0.12,0.1-0.12-0.1-0.14-0.11c-0.53-0.44-1.03-0.91-1.49-1.42c-0.22-0.24-0.43-0.49-0.63-0.74
						c-0.12-0.15-0.02-0.02,0.01,0.01c-0.05-0.07-0.1-0.13-0.15-0.2c-0.11-0.16-0.23-0.32-0.33-0.48c-0.5-0.74-1.45-1.06-2.26-0.59
						C49.26,58.87,48.9,59.96,49.4,60.7z"/>
				</g>
			</g>
		</g>
		<g>
			<g>
				<g>
					<path class="st0" d="M48.15,47.29c0.01-0.04,0.03-0.08,0.05-0.12c-0.06,0.13-0.11,0.26-0.17,0.39c0.08-0.18,0.18-0.34,0.29-0.5
						c-0.09,0.11-0.17,0.22-0.26,0.33c0.12-0.15,0.25-0.28,0.4-0.39c-0.11,0.09-0.22,0.17-0.33,0.26c0.2-0.15,0.41-0.27,0.64-0.37
						c-0.13,0.06-0.26,0.11-0.39,0.17c0.22-0.09,0.45-0.15,0.69-0.19c-0.15,0.02-0.29,0.04-0.44,0.06c0.27-0.04,0.53-0.03,0.8,0.01
						c-0.15-0.02-0.29-0.04-0.44-0.06c0.25,0.04,0.49,0.09,0.72,0.18c-0.13-0.06-0.26-0.11-0.39-0.17c0.17,0.07,0.32,0.16,0.47,0.27
						c-0.11-0.09-0.22-0.17-0.33-0.26c0.2,0.16,0.36,0.34,0.52,0.54c-0.09-0.11-0.17-0.22-0.26-0.33c0.08,0.1,0.15,0.2,0.22,0.31
						c0.24,0.36,0.56,0.64,0.99,0.76c0.39,0.11,0.92,0.06,1.27-0.17c0.71-0.46,1.1-1.49,0.59-2.26c-0.43-0.65-0.97-1.32-1.7-1.67
						c-0.68-0.32-1.45-0.52-2.2-0.48c-0.77,0.04-1.55,0.24-2.21,0.66c-0.82,0.52-1.37,1.24-1.7,2.14c-0.14,0.38-0.03,0.93,0.17,1.27
						c0.2,0.34,0.59,0.67,0.99,0.76c0.42,0.1,0.9,0.08,1.27-0.17C47.77,48.04,47.99,47.72,48.15,47.29L48.15,47.29z"/>
				</g>
			</g>
			<g>
				<g>
					<path class="st0" d="M81.97,46.42c-0.33-0.91-0.88-1.62-1.7-2.14c-0.65-0.42-1.44-0.62-2.21-0.66
						c-0.76-0.03-1.52,0.16-2.2,0.48c-0.73,0.35-1.26,1.01-1.7,1.67c-0.48,0.72-0.16,1.86,0.59,2.26c0.83,0.44,1.75,0.18,2.26-0.59
						c0.07-0.1,0.14-0.21,0.22-0.31c-0.09,0.11-0.17,0.22-0.26,0.33c0.15-0.2,0.32-0.38,0.52-0.54c-0.11,0.09-0.22,0.17-0.33,0.26
						c0.15-0.11,0.3-0.2,0.47-0.27c-0.13,0.06-0.26,0.11-0.39,0.17c0.23-0.09,0.48-0.15,0.72-0.18c-0.15,0.02-0.29,0.04-0.44,0.06
						c0.27-0.04,0.53-0.04,0.8-0.01c-0.15-0.02-0.29-0.04-0.44-0.06c0.24,0.04,0.46,0.1,0.69,0.19c-0.13-0.06-0.26-0.11-0.39-0.17
						c0.23,0.1,0.44,0.22,0.64,0.37c-0.11-0.09-0.22-0.17-0.33-0.26c0.15,0.12,0.28,0.25,0.4,0.39c-0.09-0.11-0.17-0.22-0.26-0.33
						c0.12,0.15,0.22,0.32,0.29,0.5c-0.06-0.13-0.11-0.26-0.17-0.39c0.02,0.04,0.03,0.08,0.05,0.12c0.15,0.41,0.37,0.76,0.76,0.99
						c0.35,0.21,0.87,0.29,1.27,0.17C81.61,48.19,82.29,47.28,81.97,46.42L81.97,46.42z"/>
				</g>
			</g>
		</g>
		<g>
			<g>
				<path class="st0" d="M60.59,49.38c0.36-0.16-0.34,0.13,0.02-0.01c0.07-0.03,0.14-0.05,0.21-0.08c0.18-0.07,0.37-0.13,0.56-0.18
					c0.34-0.1,0.68-0.17,1.03-0.22c-0.15,0.02-0.29,0.04-0.44,0.06c0.53-0.07,1.05-0.07,1.58-0.01c-0.15-0.02-0.29-0.04-0.44-0.06
					c0.34,0.05,0.66,0.12,0.99,0.23c0.07,0.02,0.15,0.05,0.22,0.08c0.25,0.09,0.03-0.01-0.09-0.04c0.18,0.04,0.37,0.17,0.53,0.26
					c0.76,0.41,1.83,0.21,2.26-0.59c0.41-0.77,0.22-1.82-0.59-2.26c-1.11-0.6-2.34-0.97-3.61-0.97c-1.37-0.01-2.64,0.4-3.88,0.94
					c-0.35,0.15-0.66,0.63-0.76,0.99c-0.11,0.39-0.06,0.92,0.17,1.27c0.23,0.35,0.57,0.66,0.99,0.76
					C59.78,49.65,60.17,49.56,60.59,49.38L60.59,49.38z"/>
			</g>
		</g>
		<g>
			<g>
				<path class="st0" d="M79.71,55.26c0.02,0.02,0.04,0.05,0.05,0.07c-0.09-0.11-0.17-0.22-0.26-0.33c0.41,0.53,0.75,1.11,1.01,1.72
					c-0.06-0.13-0.11-0.26-0.17-0.39c0.27,0.65,0.45,1.32,0.55,2.01c-0.02-0.15-0.04-0.29-0.06-0.44c0.06,0.46,0.08,0.93,0.06,1.39
					c-0.04,0.86,0.79,1.69,1.65,1.65c0.93-0.04,1.61-0.73,1.65-1.65c0.05-1.08-0.1-2.2-0.44-3.23c-0.38-1.16-0.96-2.18-1.72-3.13
					c-0.24-0.31-0.79-0.48-1.17-0.48c-0.4,0-0.89,0.18-1.17,0.48c-0.29,0.31-0.5,0.73-0.48,1.17
					C79.25,54.56,79.42,54.89,79.71,55.26L79.71,55.26z"/>
			</g>
		</g>
		<g>
			<g>
				<path class="st0" d="M109.36,43.7c6.02-4.85-0.07-21.08-3.2-25.32c-2.02-2.74-4.93-4.91-8.17-5.18
					c-1.28-0.1-2.69,0.05-3.73-0.77c-0.57-0.45-0.93-1.14-1.33-1.76C88.55,3.89,75.4,1.99,68.37,1.67
					c-10.5-0.48-21.11,2.18-30.33,7.61c-4.98,2.93-9.9,6.76-15.57,6.92c-4.59,0.13-8.9-2.18-13.41-3.08
					C8.71,13.06,8.33,13,8.01,13.17c-0.33,0.18-0.51,0.55-0.66,0.91c-1.68,4.13-0.43,9.41,2.89,12.16c0.95,0.79,2.06,1.4,2.8,2.41
					c2.56,3.5-0.68,9.19,1.57,12.93c1.45,2.42,4.72,2.88,7.2,1.81c2.48-1.07,4.35-3.29,6.14-5.43c1.84-2.21,3.67-4.42,5.51-6.63
					c1.11-1.34,1.94-2.91,3.12-4.2c1.69-1.84,2.77-1.56,5.25-1.53c4.88,0.07,9.76,0.14,14.63,0.21c9.39,0.13,18.8,0.13,28.18,0.4
					c4.02,0.12,4.94,5.42,6.91,8.49c2.88,4.48,6.71,8.81,11.88,10.09c0.82,0.2,1.67,0.33,2.52,0.23
					C107.37,44.87,108.49,44.41,109.36,43.7z"/>
			</g>
			<g>
				<g>
					<path class="st0" d="M110.53,44.87c2.64-2.17,3.17-5.97,3.01-9.18c-0.19-3.79-1.17-7.56-2.5-11.1
						c-1.15-3.07-2.51-6.15-4.73-8.61c-1.7-1.88-3.91-3.44-6.38-4.1c-0.63-0.17-1.29-0.26-1.94-0.32c-0.33-0.03-0.65-0.03-0.98-0.05
						c-0.13-0.01-0.26-0.01-0.39-0.02c0.01,0-0.5-0.04-0.34-0.02c-0.25-0.03-0.51-0.08-0.74-0.18c0.17,0.07-0.17-0.1-0.2-0.12
						c-0.21-0.14,0.11,0.14-0.2-0.18c-0.33-0.35-0.6-0.89-0.9-1.33c-2.26-3.32-5.91-5.3-9.59-6.66c-3.82-1.41-7.88-2.16-11.92-2.63
						C62.61-0.79,52.41,0.76,43.08,4.85c-2.5,1.1-4.9,2.39-7.22,3.81c-2.22,1.36-4.4,2.8-6.73,3.97c-2.11,1.06-4.45,1.87-6.77,1.92
						c-2.68,0.05-5.26-0.79-7.79-1.6c-1.32-0.42-2.64-0.85-3.98-1.18c-1.6-0.39-3.27-0.7-4.34,0.87c-0.66,0.96-0.96,2.26-1.13,3.4
						c-0.19,1.32-0.19,2.6,0,3.92c0.33,2.34,1.32,4.54,2.85,6.34c0.77,0.91,1.74,1.57,2.68,2.29c0.22,0.17,0.78,0.65,0.96,0.88
						c0.15,0.19,0.26,0.41,0.38,0.62c0.04,0.06,0.17,0.38,0.06,0.11c0.06,0.15,0.11,0.3,0.15,0.45c0.06,0.21,0.1,0.42,0.15,0.62
						c0.07,0.32,0.02,0.12,0.01,0.04c0.02,0.14,0.03,0.27,0.04,0.41c0.04,0.54,0.03,1.08,0.01,1.61c-0.05,1.12-0.19,2.23-0.26,3.34
						c-0.15,2.34,0.11,4.75,1.68,6.6c1.49,1.77,3.97,2.49,6.22,2.22c2.65-0.32,4.86-1.85,6.7-3.72c1.98-2.01,3.71-4.3,5.51-6.47
						c0.97-1.17,1.97-2.31,2.89-3.51c0.8-1.04,1.45-2.2,2.3-3.2c0.18-0.21,0.36-0.41,0.55-0.6c0.1-0.1,0.21-0.2,0.32-0.29
						c0.22-0.2-0.29,0.17,0.09-0.08c0.16-0.1,0.31-0.19,0.48-0.28c-0.32,0.18,0.18-0.05,0.33-0.09c0.02,0,0.43-0.08,0.16-0.04
						c-0.27,0.04,0.16-0.01,0.18-0.01c0.19-0.01,0.38-0.01,0.57-0.02c0.57,0,1.13,0.03,1.7,0.04c3.06,0.05,6.12,0.09,9.18,0.13
						c6.14,0.09,12.28,0.15,18.43,0.22c3.08,0.03,6.15,0.07,9.23,0.12c1.54,0.03,3.08,0.06,4.61,0.1c0.37,0.01,0.75,0.02,1.12,0.03
						c0.12,0,0.76,0.07,0.39,0c0.23,0.04,0.44,0.1,0.66,0.17c0.08,0.02,0.26,0.14-0.03-0.01c0.12,0.06,0.23,0.12,0.35,0.19
						c0.09,0.06,0.47,0.35,0.2,0.12c0.17,0.15,0.33,0.3,0.49,0.46c0.13,0.13,0.25,0.27,0.36,0.42c-0.21-0.26-0.01-0.01,0.04,0.06
						c0.08,0.12,0.16,0.24,0.24,0.36c0.5,0.78,0.91,1.63,1.3,2.47c0.85,1.84,1.74,3.56,2.93,5.22c2.86,4,6.59,7.74,11.49,9.03
						C105.54,47.06,108.29,46.62,110.53,44.87c0.7-0.55,0.58-1.76,0-2.33c-0.69-0.69-1.63-0.55-2.33,0c0.19-0.15-0.1,0.06-0.15,0.09
						c-0.1,0.06-0.2,0.12-0.3,0.18c-0.13,0.07-0.26,0.14-0.39,0.2c0.07-0.03,0.22-0.07-0.11,0.04c-0.5,0.17-1.06,0.33-1.53,0.35
						c-1.2,0.07-2.38-0.28-3.48-0.71c-1.89-0.74-3.7-2.13-5.2-3.63c-1.62-1.63-2.92-3.34-4.13-5.29c-0.94-1.51-1.54-3.21-2.37-4.78
						c-0.91-1.74-2.15-3.33-4.03-4.06c-1.1-0.43-2.32-0.37-3.49-0.4c-1.45-0.04-2.91-0.07-4.36-0.1
						c-5.99-0.11-11.97-0.14-17.96-0.21c-5.96-0.06-11.92-0.16-17.88-0.25c-1.99-0.03-4.25-0.37-6.01,0.79
						c-2.16,1.43-3.3,3.93-4.92,5.87c-1.84,2.21-3.67,4.43-5.52,6.64c-0.81,0.96-1.63,1.92-2.55,2.78c-0.76,0.71-1.81,1.47-2.6,1.81
						c-1.02,0.44-1.6,0.48-2.66,0.4c-0.34-0.03-0.12-0.02-0.05-0.01c-0.11-0.02-0.22-0.04-0.32-0.06c-0.24-0.06-0.47-0.13-0.7-0.21
						c-0.27-0.1,0.31,0.18-0.13-0.06c-0.09-0.05-0.19-0.1-0.28-0.15c-0.09-0.05-0.18-0.11-0.27-0.17c-0.35-0.22,0.12,0.16-0.18-0.14
						c-0.15-0.16-0.32-0.3-0.45-0.48c0.15,0.2-0.06-0.1-0.09-0.15c-0.06-0.09-0.11-0.19-0.17-0.29c-0.03-0.06-0.18-0.37-0.08-0.12
						c-0.04-0.1-0.08-0.2-0.11-0.3c-0.09-0.26-0.15-0.52-0.21-0.79c-0.02-0.11-0.04-0.22-0.06-0.32c0.04,0.27,0-0.01,0-0.06
						c-0.02-0.25-0.04-0.51-0.04-0.76c-0.01-0.55,0.01-1.1,0.05-1.65c0.15-2.12,0.49-4.24,0.03-6.35c-0.25-1.15-0.81-2.2-1.59-3.07
						c-0.78-0.87-1.88-1.5-2.68-2.2c-0.37-0.32-0.71-0.68-1.02-1.06c-0.21-0.26-0.1-0.14-0.06-0.08c-0.09-0.12-0.17-0.24-0.25-0.36
						c-0.16-0.24-0.31-0.49-0.46-0.75c-0.47-0.86-0.74-1.61-0.97-2.68c-0.19-0.88-0.25-1.86-0.15-2.95
						c-0.01,0.06,0.06-0.52,0.03-0.31c-0.02,0.17,0.03-0.19,0.04-0.22c0.05-0.26,0.11-0.52,0.17-0.78c0.06-0.23,0.13-0.46,0.21-0.68
						c0.05-0.14,0.31-0.56,0.28-0.63c0.21,0.52-1.12,0.19-0.31,0.35c0.33,0.07,0.65,0.14,0.98,0.22c0.65,0.16,1.3,0.34,1.94,0.54
						c1.29,0.39,2.57,0.82,3.86,1.21c2.57,0.77,5.28,1.36,7.97,1.08c5.18-0.54,9.54-3.49,13.86-6.16c4.45-2.74,9.18-4.92,14.22-6.35
						c5.04-1.43,10.25-2.11,15.49-2c1.78,0.04,3.56,0.16,5.33,0.36c0.42,0.05,0.84,0.1,1.27,0.15C73.68,3.79,74,3.83,73.8,3.81
						c-0.24-0.03,0.26,0.04,0.24,0.03c0.26,0.04,0.52,0.08,0.78,0.12c0.93,0.14,1.86,0.31,2.78,0.5c1.94,0.4,3.86,0.9,5.73,1.56
						c1.67,0.59,3.14,1.23,4.79,2.29c0.37,0.24,0.74,0.49,1.1,0.76c-0.25-0.19,0.15,0.13,0.23,0.19c0.18,0.15,0.36,0.31,0.54,0.47
						c0.31,0.29,0.6,0.59,0.88,0.9c0.12,0.14,0.24,0.28,0.35,0.42c-0.22-0.27,0.16,0.23,0.22,0.33c0.75,1.12,1.38,2.27,2.66,2.86
						c1.23,0.56,2.58,0.53,3.9,0.61c0.82,0.05,1.99,0.45,2.79,0.89c1.03,0.55,1.82,1.17,2.64,1.99c1.06,1.05,1.83,2.17,2.54,3.5
						c0.33,0.62,0.64,1.25,0.93,1.89c0.08,0.18,0.16,0.36,0.24,0.54c0.04,0.09,0.24,0.56,0.1,0.23c0.17,0.41,0.34,0.82,0.5,1.24
						c0.65,1.68,1.2,3.41,1.64,5.16c0.22,0.87,0.41,1.74,0.56,2.62c0.04,0.22,0.07,0.45,0.11,0.67c0.02,0.12,0.04,0.25,0.05,0.37
						c-0.01-0.07-0.04-0.32,0,0c0.05,0.44,0.1,0.87,0.13,1.31c0.06,0.83,0.07,1.67,0.02,2.51c-0.01,0.2-0.03,0.4-0.05,0.6
						c-0.01,0.09-0.02,0.17-0.03,0.26c-0.03,0.27,0.07-0.4,0,0.01c-0.07,0.37-0.13,0.74-0.23,1.1c-0.09,0.35-0.21,0.68-0.34,1.02
						c0.13-0.34,0-0.01-0.07,0.13c-0.07,0.14-0.14,0.27-0.22,0.4c-0.08,0.15-0.18,0.28-0.27,0.42c-0.06,0.09-0.24,0.29,0.03-0.02
						c-0.05,0.06-0.09,0.12-0.14,0.17c-0.23,0.25-0.46,0.48-0.71,0.69c-0.69,0.57-0.59,1.75,0,2.33
						C108.88,45.55,109.84,45.44,110.53,44.87z"/>
				</g>
			</g>
		</g>
	</g>
</g>
<g id="텍스트">
</g>
</svg>
