<?xml version="1.0" encoding="utf-8"?>
<!-- Generator: Adobe Illustrator 27.0.0, SVG Export Plug-In . SVG Version: 6.00 Build 0)  -->
<svg version="1.1" xmlns="http://www.w3.org/2000/svg" xmlns:xlink="http://www.w3.org/1999/xlink" x="0px" y="0px"
	 viewBox="0 0 125.32 101.69" style="enable-background:new 0 0 125.32 101.69;" xml:space="preserve">
<style type="text/css">
	.st0{fill:#24221E;}
	.st1{fill:#FFE3D4;}
	.st2{fill:#FFB18F;}
	.st3{fill:#F5C140;}
	.st4{fill:#FFEBE6;}
	.st5{fill:#FFBBA6;}
	.st6{fill:#EAEAEA;}
	.st7{fill:#FFFFFF;}
	.st8{fill:#E5C2AA;}
	.st9{fill:#E09F73;}
	.st10{fill:#242322;}
</style>
<g id="배경">
</g>
<g id="이미지">
	<g>
		<g>
			<g>
				<path class="st1" d="M112.22,39.78c-1.59,0-3.11,0.32-4.48,0.91C102.22,21.01,84.17,6.58,62.74,6.58
					c-21.45,0-39.52,14.46-45.01,34.16c-1.41-0.62-2.96-0.96-4.6-0.96c-6.35,0-11.49,5.14-11.49,11.49s5.14,11.49,11.49,11.49
					c1.3,0,2.55-0.23,3.72-0.63c4.13,21.59,23.1,37.91,45.89,37.91c22.78,0,41.74-16.3,45.88-37.86c1.13,0.37,2.34,0.58,3.59,0.58
					c6.35,0,11.49-5.14,11.49-11.49S118.56,39.78,112.22,39.78z"/>
			</g>
			<g>
				<g>
					<path class="st0" d="M112.22,38.13c-1.69,0.02-3.36,0.32-4.92,0.97c0.68,0.38,1.35,0.77,2.03,1.15
						c-2.21-7.84-6.4-15.06-12.11-20.87C91.56,13.63,84.46,9.32,76.74,6.99c-8.11-2.46-16.87-2.7-25.12-0.77
						c-7.9,1.85-15.26,5.76-21.28,11.18c-6.04,5.44-10.63,12.41-13.3,20.07c-0.33,0.93-0.62,1.88-0.89,2.83
						c0.81-0.33,1.62-0.66,2.42-0.99c-3.51-1.5-7.3-1.56-10.81-0.03c-2.77,1.21-5.13,3.49-6.43,6.22c-1.4,2.95-1.73,6.35-0.79,9.49
						c0.91,3.03,2.9,5.64,5.55,7.35c3.3,2.13,7.5,2.6,11.21,1.37c-0.68-0.38-1.35-0.77-2.03-1.15c1.64,8.5,5.63,16.45,11.37,22.92
						C32.35,91.94,39.81,96.77,48,99.41c8.51,2.73,17.8,3.01,26.48,0.85c8.35-2.07,16.09-6.45,22.22-12.49
						c6.12-6.03,10.6-13.71,12.8-22.02c0.27-1.04,0.51-2.08,0.72-3.14c-0.68,0.38-1.35,0.77-2.03,1.15
						c5.96,1.9,12.68-0.74,15.62-6.3c2.75-5.2,1.7-11.83-2.65-15.83C118.71,39.39,115.53,38.15,112.22,38.13
						c-2.12-0.02-2.13,3.28,0,3.3c0.32,0,0.64,0.01,0.96,0.04c0.14,0.01,0.29,0.02,0.43,0.04c-0.32-0.04,0.23,0.04,0.24,0.04
						c0.61,0.11,1.21,0.27,1.79,0.48c0.1,0.04,0.21,0.08,0.31,0.12c0.5,0.18-0.26-0.14,0.22,0.09c0.25,0.12,0.5,0.24,0.74,0.37
						c0.24,0.13,0.48,0.27,0.71,0.42c0.11,0.07,0.23,0.15,0.34,0.23c0.05,0.03,0.47,0.35,0.26,0.18c0.9,0.71,1.67,1.56,2.17,2.31
						c0.72,1.09,1.05,1.81,1.36,2.99c0.32,1.18,0.4,2.06,0.3,3.41c-0.01,0.14-0.02,0.29-0.04,0.43c-0.04,0.32,0.08-0.38-0.02,0.16
						c-0.05,0.28-0.1,0.56-0.17,0.83c-0.07,0.27-0.14,0.54-0.23,0.81c-0.05,0.16-0.11,0.32-0.16,0.47c0,0-0.2,0.48-0.08,0.22
						c-0.22,0.5-0.48,0.99-0.77,1.46c-0.16,0.25-0.33,0.5-0.51,0.74c-0.18,0.25,0.24-0.28-0.09,0.12c-0.12,0.15-0.25,0.29-0.37,0.43
						c-0.87,0.96-1.47,1.43-2.53,2.04c-1.07,0.61-2.14,0.99-3.53,1.19c0.08-0.01,0.27-0.02-0.07,0.01
						c-0.23,0.02-0.46,0.04-0.69,0.05c-0.37,0.02-0.74,0.02-1.11,0c-0.88-0.05-1.73-0.24-2.57-0.51c-0.8-0.26-1.86,0.3-2.03,1.15
						c-0.8,4.12-2.12,8.04-3.9,11.61c-0.91,1.81-1.93,3.57-3.07,5.25c-1.19,1.76-2.19,3.04-3.61,4.64c-2.74,3.07-5.69,5.62-9,7.78
						c-1.7,1.11-3.47,2.11-5.3,2.99c-1.83,0.88-3.49,1.54-5.55,2.21c-2.01,0.65-4.06,1.15-6.14,1.52c-1.15,0.2-1.78,0.29-2.88,0.4
						c-1.07,0.11-2.14,0.18-3.21,0.22c-4.42,0.15-8.37-0.26-12.58-1.31c-4.08-1.02-7.55-2.41-11.17-4.45
						c-3.65-2.06-6.62-4.31-9.58-7.24c-5.74-5.68-9.86-12.78-11.91-20.61c-0.26-1.01-0.49-2.03-0.69-3.06
						c-0.16-0.84-1.23-1.42-2.03-1.15c-1.52,0.51-3.07,0.69-4.67,0.48c0.27,0.03-0.09-0.02-0.15-0.03
						c-0.14-0.02-0.28-0.05-0.42-0.08c-0.33-0.07-0.66-0.15-0.98-0.25c-0.27-0.08-0.53-0.18-0.79-0.27
						c-0.49-0.18,0.26,0.14-0.22-0.09c-0.2-0.1-0.4-0.19-0.59-0.29c-1.19-0.63-1.85-1.14-2.76-2.13c-0.47-0.51-0.57-0.64-0.94-1.22
						c-0.18-0.28-0.34-0.56-0.5-0.85c-0.08-0.15-0.15-0.29-0.22-0.44c-0.01-0.03-0.2-0.46-0.1-0.21c-0.26-0.62-0.45-1.27-0.59-1.92
						c-0.02-0.11-0.05-0.22-0.07-0.33c0,0-0.08-0.56-0.04-0.24c-0.05-0.4-0.08-0.81-0.08-1.21c-0.02-1.34,0.12-2.25,0.6-3.59
						c0.28-0.78,1.09-2.2,1.62-2.82c0.88-1.04,1.59-1.64,2.65-2.26c0.33-0.19,0.68-0.37,1.02-0.53c0.47-0.23-0.28,0.09,0.22-0.09
						c0.16-0.06,0.31-0.12,0.47-0.17c0.37-0.13,0.75-0.23,1.13-0.32c0.17-0.04,0.33-0.07,0.5-0.1c0.03-0.01,0.52-0.08,0.24-0.04
						c1.73-0.22,3.55-0.03,5.15,0.66c0.97,0.41,2.11,0.14,2.42-0.99c2.05-7.32,5.93-14.02,11.25-19.44
						c5.3-5.4,11.91-9.42,19.12-11.59c7.56-2.28,15.67-2.53,23.29-0.75c7.45,1.74,14.34,5.36,19.94,10.43
						c1.41,1.28,2.74,2.64,3.98,4.08c0.3,0.34,0.59,0.69,0.88,1.04c0.14,0.18,0.29,0.35,0.43,0.53c0.07,0.09,0.14,0.18,0.21,0.27
						c0.07,0.09,0.07,0.09,0,0c0.03,0.05,0.07,0.09,0.1,0.14c0.58,0.77,1.15,1.56,1.68,2.36c1.08,1.62,2.05,3.3,2.92,5.04
						c0.21,0.41,0.4,0.82,0.6,1.24c0.18,0.38,0.43,0.96,0.55,1.22c0.3,0.71,0.71,1.77,1.01,2.63c0.32,0.91,0.6,1.82,0.86,2.75
						c0.22,0.78,1.2,1.5,2.03,1.15c1.3-0.54,2.63-0.84,4.05-0.85C114.34,41.41,114.34,38.11,112.22,38.13z"/>
				</g>
			</g>
		</g>
		<g>
			<g>
				<circle class="st0" cx="48.18" cy="46.29" r="3.06"/>
			</g>
		</g>
		<g>
			<g>
				<path class="st0" d="M60.66,49.57c0.36-0.16-0.34,0.13,0.02-0.01c0.07-0.03,0.14-0.05,0.21-0.08c0.18-0.07,0.37-0.13,0.56-0.18
					c0.34-0.1,0.68-0.17,1.03-0.22c-0.15,0.02-0.29,0.04-0.44,0.06c0.53-0.07,1.05-0.07,1.58-0.01c-0.15-0.02-0.29-0.04-0.44-0.06
					c0.34,0.05,0.66,0.12,0.99,0.23c0.07,0.02,0.15,0.05,0.22,0.08c0.25,0.09,0.03-0.01-0.09-0.04c0.18,0.04,0.37,0.17,0.53,0.26
					c0.76,0.41,1.83,0.21,2.26-0.59c0.41-0.77,0.22-1.82-0.59-2.26c-1.11-0.6-2.34-0.97-3.61-0.97c-1.37-0.01-2.64,0.4-3.88,0.94
					c-0.35,0.15-0.66,0.63-0.76,0.99c-0.11,0.39-0.06,0.92,0.17,1.27c0.23,0.35,0.57,0.66,0.99,0.76
					C59.85,49.84,60.23,49.75,60.66,49.57L60.66,49.57z"/>
			</g>
		</g>
		<g>
			<g>
				<circle class="st2" cx="32.1" cy="59.44" r="9.7"/>
			</g>
			<g>
				<circle class="st2" cx="93.38" cy="59.44" r="9.7"/>
			</g>
		</g>
		<g>
			<g>
				<path class="st0" d="M111.93,31.5c-0.45-5.93-2.73-11.8-6.89-16.05c-3.88-3.96-9.46-6.34-14.96-5.96
					c-1.2-2.06-3.06-3.8-5.16-4.96c-3.57-1.97-7.74-2.54-11.81-2.74C66.85,1.48,60.54,1.95,54.38,3.2
					c-7.61,1.54-15.46,4.26-22.94,2.15c-2.9-0.82-5.57-2.34-8.47-3.17c-2.9-0.83-6.3-0.87-8.64,1.03C10.9,6,12,12.49,16.17,13.98
					c-3.11,0.44-5.66,3.42-5.6,6.57c0.06,3.14,2.71,6.03,5.84,6.36c-3.59,0.03-6.17,4.2-5.4,7.71c1.66,7.51,9.82,7.29,15.73,6.18
					c19.14-3.58,37.93-8.98,56.05-16.11c0.37-0.15,0.79-0.3,1.16-0.16c0.3,0.11,0.51,0.37,0.7,0.61
					c4.67,5.94,9.78,11.11,16.38,14.96c1.29,0.75,2.64,1.44,4.11,1.69C110.68,42.73,112.25,35.7,111.93,31.5z"/>
			</g>
			<g>
				<g>
					<path class="st0" d="M113.58,31.5c-0.38-4.85-1.82-9.66-4.54-13.71c-2.7-4.02-6.52-7.12-11.08-8.78
						c-2.5-0.91-5.22-1.33-7.87-1.16c0.47,0.27,0.95,0.54,1.42,0.82c-1.68-2.84-4.3-5.01-7.32-6.32c-3.17-1.37-6.56-1.91-9.98-2.14
						c-7.32-0.5-14.71,0.17-21.87,1.74c-6.55,1.44-13.53,3.67-20.24,1.87c-3.31-0.89-6.28-2.74-9.64-3.47
						c-3.13-0.68-6.56-0.48-9.15,1.57c-2.26,1.79-2.97,4.78-2.52,7.52c0.46,2.77,2.29,5.13,4.93,6.12c0-1.06,0-2.12,0-3.18
						c-3.84,0.6-6.94,4.37-6.81,8.25c0.14,4.13,3.47,7.44,7.48,7.92c0-1.1,0-2.2,0-3.3c-4.4,0.11-7.6,4.59-7.14,8.81
						c0.43,3.93,3.07,7.02,6.79,8.24c3.3,1.08,6.95,0.79,10.32,0.23c5.26-0.87,10.49-2.07,15.67-3.31
						c10.66-2.55,21.19-5.66,31.52-9.33c2.57-0.91,5.13-1.86,7.68-2.84c0.63-0.24,1.25-0.49,1.88-0.73c0.11-0.04,0.32-0.07,0.4-0.15
						c0.09-0.09,0.14,0-0.09-0.1c-0.22-0.09-0.15-0.09-0.12,0.01c0.04,0.15,0.28,0.34,0.38,0.47c0.76,0.96,1.54,1.91,2.34,2.84
						c3.16,3.67,6.67,7.03,10.63,9.84c3.39,2.41,8.39,5.94,12.61,3.45c3.05-1.8,4.09-5.74,4.32-9.04
						C113.63,32.93,113.64,32.22,113.58,31.5c-0.06-0.89-0.71-1.65-1.65-1.65c-0.84,0-1.71,0.76-1.65,1.65
						c0.05,0.69,0.05,1.39,0.01,2.08c-0.01,0.18-0.03,0.36-0.04,0.54c-0.01,0.07-0.07,0.59-0.04,0.39c0.03-0.19-0.05,0.33-0.07,0.4
						c-0.04,0.21-0.08,0.41-0.12,0.62c-0.08,0.36-0.17,0.72-0.28,1.08c-0.05,0.18-0.11,0.35-0.17,0.52
						c-0.03,0.09-0.07,0.17-0.1,0.26c-0.1,0.3,0.07-0.13-0.01,0.04c-0.15,0.32-0.3,0.64-0.48,0.95c-0.09,0.15-0.18,0.29-0.28,0.44
						c-0.03,0.04-0.19,0.27-0.06,0.09c0.14-0.19-0.08,0.09-0.11,0.13c-0.22,0.25-0.45,0.48-0.71,0.69c0.28-0.23-0.05,0.02-0.16,0.09
						c-0.08,0.05-0.52,0.27-0.35,0.2c0.2-0.09-0.26,0.09-0.33,0.11c-0.17,0.05-0.33,0.08-0.5,0.11c-0.24,0.05,0.29-0.02,0.04-0.01
						c-0.09,0-0.18,0.01-0.27,0.01c-0.22,0.01-0.43-0.01-0.64-0.02c-0.07,0-0.31-0.05-0.01,0c-0.15-0.03-0.29-0.05-0.44-0.09
						c-0.29-0.07-0.57-0.15-0.86-0.25c-0.54-0.18-1.04-0.43-1.55-0.7c-1.05-0.56-2.06-1.19-3.05-1.84
						c-3.75-2.47-7.09-5.52-10.11-8.86c-0.75-0.83-1.47-1.67-2.19-2.53c-0.73-0.88-1.41-2.08-2.38-2.71
						c-1.32-0.85-2.72-0.12-4.01,0.38c-1.22,0.47-2.44,0.94-3.66,1.39c-9.75,3.64-19.69,6.78-29.75,9.42
						c-5.05,1.32-10.14,2.52-15.25,3.58c-2.32,0.48-4.66,0.98-7,1.36c-0.18,0.03-0.37,0.06-0.55,0.09
						c-0.09,0.01-0.19,0.03-0.28,0.04c0.06-0.01,0.34-0.04,0.02,0c-0.4,0.05-0.81,0.09-1.22,0.13c-0.8,0.07-1.59,0.1-2.39,0.09
						c-0.38,0-0.77-0.02-1.15-0.05c-0.19-0.01-0.38-0.03-0.57-0.05c-0.09-0.01-0.19-0.02-0.28-0.03c0.24,0.03,0.11,0.02-0.05-0.01
						c-0.75-0.12-1.49-0.29-2.21-0.55c-0.1-0.04-0.57-0.23-0.23-0.08c-0.16-0.07-0.32-0.15-0.48-0.23
						c-0.34-0.17-0.65-0.37-0.97-0.58c-0.33-0.22,0.11,0.11-0.19-0.14c-0.12-0.1-0.24-0.2-0.35-0.31c-0.13-0.12-0.26-0.25-0.38-0.38
						c-0.06-0.07-0.12-0.14-0.18-0.2c-0.29-0.32,0.17,0.26-0.08-0.1c-0.21-0.32-0.42-0.64-0.6-0.98c-0.05-0.09-0.26-0.56-0.15-0.29
						c-0.08-0.19-0.15-0.39-0.22-0.59c-0.14-0.42-0.25-0.85-0.32-1.28c0.04,0.28-0.01-0.25-0.02-0.36
						c-0.01-0.27,0.01-0.54,0.03-0.81c0-0.05,0.06-0.32,0.01-0.04c0.02-0.11,0.04-0.21,0.06-0.32c0.05-0.21,0.1-0.42,0.17-0.63
						c0.03-0.1,0.17-0.48,0.14-0.41c-0.07,0.17,0.07-0.14,0.08-0.17c0.06-0.12,0.12-0.24,0.19-0.36c0.11-0.19,0.23-0.36,0.34-0.55
						c0.16-0.26,0.08-0.11,0.03-0.05c0.06-0.08,0.13-0.16,0.2-0.24c0.14-0.16,0.29-0.31,0.44-0.45c0.08-0.07,0.16-0.14,0.23-0.21
						c-0.23,0.2,0.14-0.1,0.16-0.11c0.15-0.1,0.31-0.19,0.46-0.27c0.04-0.02,0.33-0.16,0.15-0.08c-0.17,0.08,0.12-0.04,0.16-0.06
						c0.2-0.06,0.4-0.11,0.6-0.16c0.26-0.06-0.24,0.01,0.03-0.01c0.13-0.01,0.26-0.02,0.4-0.02c0.89-0.02,1.65-0.74,1.65-1.65
						c0-0.98-0.76-1.54-1.65-1.65c0.28,0.03-0.19-0.04-0.25-0.05c-0.17-0.04-0.34-0.08-0.5-0.14c-0.01,0-0.49-0.18-0.25-0.08
						c-0.16-0.07-0.31-0.15-0.47-0.23c-0.64-0.35-0.92-0.57-1.44-1.13c-0.32-0.35-0.73-0.93-0.98-1.55
						c0.09,0.23-0.06-0.21-0.08-0.25c-0.05-0.17-0.1-0.33-0.14-0.5c-0.01-0.03-0.09-0.52-0.06-0.25c-0.03-0.2-0.03-0.41-0.03-0.61
						c0-0.17,0.01-0.35,0.02-0.52c0.01-0.12,0.01-0.12-0.01,0.01c0.01-0.09,0.03-0.17,0.05-0.26c0.07-0.34,0.17-0.67,0.29-1
						c0.04-0.11,0.04-0.11,0-0.01c0.04-0.08,0.07-0.16,0.11-0.23c0.08-0.16,0.16-0.31,0.25-0.46c0.09-0.15,0.19-0.29,0.29-0.44
						c0.07-0.09,0.07-0.09,0.01-0.01c0.05-0.07,0.11-0.13,0.17-0.2c0.51-0.58,0.8-0.83,1.4-1.18c0.15-0.09,0.3-0.17,0.46-0.24
						c0.1-0.05,0.1-0.05,0-0.01c0.08-0.03,0.16-0.06,0.24-0.09c0.36-0.12,0.72-0.21,1.1-0.27c0.7-0.11,1.21-0.93,1.21-1.59
						c0-0.77-0.52-1.33-1.21-1.59c-0.43-0.16,0.27,0.17-0.13-0.05c-0.1-0.06-0.21-0.11-0.31-0.16c-0.1-0.06-0.2-0.12-0.29-0.18
						c0,0-0.36-0.27-0.17-0.11c0.19,0.15-0.15-0.14-0.15-0.14c-0.1-0.09-0.2-0.19-0.29-0.29c-0.06-0.07-0.12-0.14-0.18-0.2
						c-0.21-0.22,0.1,0.18-0.12-0.16c-0.14-0.21-0.28-0.43-0.4-0.65c-0.06-0.11-0.3-0.7-0.18-0.37c-0.18-0.49-0.31-0.98-0.4-1.49
						c0.07,0.38-0.02-0.29-0.03-0.4c-0.01-0.23-0.01-0.47,0-0.7c0.01-0.12,0.02-0.23,0.03-0.35C14,6.84,13.9,7.51,13.99,7.07
						c0.06-0.27,0.11-0.54,0.2-0.81c0.03-0.11,0.07-0.22,0.11-0.33c0.09-0.25-0.18,0.34,0.02-0.05c0.11-0.2,0.21-0.41,0.33-0.6
						c0.07-0.12,0.15-0.23,0.23-0.34c-0.05,0.06-0.2,0.22,0,0.01c0.2-0.2,0.38-0.41,0.61-0.58c0.79-0.61,2.05-0.99,3.04-1.07
						c1.42-0.1,2.56,0.06,3.9,0.43c3.09,0.87,5.9,2.52,9.01,3.32c6.63,1.7,13.44-0.03,19.93-1.52c6.57-1.51,13.18-2.34,19.93-2.17
						c6.33,0.16,13.85,1.05,17.35,6.96c0.28,0.48,0.85,0.85,1.42,0.82c4.16-0.26,8.14,1.04,11.54,3.51
						c3.29,2.38,5.77,6.06,7.14,9.87c0.82,2.27,1.33,4.65,1.51,6.97c0.07,0.89,0.71,1.65,1.65,1.65
						C112.77,33.15,113.65,32.39,113.58,31.5z"/>
				</g>
			</g>
		</g>
		<g>
			<g>
				<path class="st0" d="M75.93,42.24c-1.15,0.77-2.23,1.65-3.22,2.62c-0.76,0.75-0.57,2.05,0.33,2.59
					c1.09,0.65,2.15,1.36,3.17,2.13c0.32,0.24,0.9,0.27,1.27,0.17c0.38-0.11,0.8-0.4,0.99-0.76c0.2-0.38,0.3-0.85,0.17-1.27
					c-0.06-0.13-0.11-0.26-0.17-0.39c-0.15-0.25-0.34-0.45-0.59-0.59c-1.02-0.76-2.07-1.47-3.17-2.13c0.11,0.86,0.22,1.73,0.33,2.59
					c0.58-0.57,1.19-1.11,1.83-1.61c-0.11,0.09-0.22,0.17-0.33,0.26c0.34-0.26,0.69-0.52,1.05-0.76c0.36-0.24,0.64-0.56,0.76-0.99
					c0.11-0.39,0.06-0.92-0.17-1.27C77.73,42.12,76.7,41.72,75.93,42.24L75.93,42.24z"/>
			</g>
		</g>
		<g>
			<g>
				<path class="st0" d="M60.86,56.87c2.54,1.3,5.31,2.06,8.17,1.58c2.36-0.39,4.59-1.84,5.78-3.93c0.44-0.77,0.18-1.8-0.59-2.26
					c-0.77-0.45-1.81-0.18-2.26,0.59c-0.39,0.69-0.89,1.2-1.54,1.59c-0.72,0.44-1.32,0.66-2.27,0.82c-0.12,0.02-0.11,0.02,0.01,0
					c-0.13,0.01-0.25,0.02-0.38,0.03c-0.28,0.02-0.56,0.02-0.84,0.01C66.4,55.3,66,55.24,65.5,55.13c-1.05-0.24-2.02-0.61-2.97-1.1
					c-0.79-0.41-1.79-0.21-2.26,0.59C59.84,55.35,60.07,56.47,60.86,56.87L60.86,56.87z"/>
			</g>
		</g>
	</g>
</g>
<g id="텍스트">
</g>
</svg>
