<?xml version="1.0" encoding="utf-8"?>
<!-- Generator: Adobe Illustrator 27.0.0, SVG Export Plug-In . SVG Version: 6.00 Build 0)  -->
<svg version="1.1" xmlns="http://www.w3.org/2000/svg" xmlns:xlink="http://www.w3.org/1999/xlink" x="0px" y="0px"
	 viewBox="0 0 125.32 108.01" style="enable-background:new 0 0 125.32 108.01;" xml:space="preserve">
<style type="text/css">
	.st0{fill:#24221E;}
	.st1{fill:#FFE3D4;}
	.st2{fill:#FFB18F;}
	.st3{fill:#F5C140;}
	.st4{fill:#FFEBE6;}
	.st5{fill:#FFBBA6;}
	.st6{fill:#EAEAEA;}
	.st7{fill:#FFFFFF;}
	.st8{fill:#E5C2AA;}
	.st9{fill:#E09F73;}
	.st10{fill:#242322;}
</style>
<g id="배경">
</g>
<g id="이미지">
	<g>
		<g>
			<g>
				<path class="st4" d="M112.22,46.1c-1.59,0-3.1,0.32-4.48,0.91c-0.14-0.52-0.3-1.03-0.46-1.54c-0.03-0.08-0.05-0.16-0.08-0.23
					c-7.68,1.24-15.55,1.26-23.23,0.03c-0.86-0.14-1.77-0.31-2.44-0.87c-0.58-0.49-0.91-1.2-1.22-1.89
					c-1.77-3.93-3.53-7.85-5.3-11.78c-4.18,2.9-5.82,8.73-10.35,11.04c-2.28,1.16-4.94,1.23-7.49,1.28
					c-12.21,0.23-25.99,0.66-38.44,0.92c-0.11,0.3-0.22,0.61-0.32,0.91c-0.24,0.72-0.46,1.45-0.66,2.19
					c-1.41-0.62-2.97-0.97-4.6-0.97c-6.35,0-11.49,5.14-11.49,11.49c0,6.35,5.14,11.49,11.49,11.49c1.3,0,2.55-0.23,3.72-0.63
					c4.13,21.59,23.1,37.91,45.89,37.91c22.78,0,41.74-16.3,45.88-37.86c1.13,0.37,2.34,0.58,3.59,0.58
					c6.35,0,11.49-5.14,11.49-11.49C123.71,51.24,118.56,46.1,112.22,46.1z"/>
			</g>
			<g>
				<g>
					<path class="st0" d="M112.22,44.45c-1.68,0.02-3.36,0.32-4.92,0.96c0.68,0.38,1.35,0.77,2.03,1.15
						c-0.17-0.59-0.34-1.19-0.54-1.77c-0.31-0.91-1.1-1.3-2.03-1.15c-5.17,0.82-10.44,1.06-15.67,0.75
						c-2.48-0.15-5.06-0.31-7.48-0.87c-0.45-0.1-0.78-0.2-1.05-0.43c-0.25-0.21-0.51-0.75-0.7-1.17c-0.56-1.21-1.1-2.44-1.65-3.66
						c-1.26-2.79-2.51-5.59-3.77-8.38c-0.34-0.77-1.59-1.07-2.26-0.59c-2.83,2-4.55,4.95-6.61,7.67c-0.2,0.27-0.1,0.13-0.06,0.08
						c-0.05,0.07-0.11,0.13-0.16,0.2c-0.12,0.16-0.25,0.31-0.38,0.46c-0.26,0.3-0.52,0.6-0.8,0.88c-0.27,0.28-0.56,0.55-0.86,0.8
						c-0.27,0.23-0.34,0.28-0.75,0.54c-1.6,1.02-3.45,1.31-5.3,1.41c-4.21,0.23-8.45,0.19-12.66,0.3
						c-4.39,0.11-8.78,0.22-13.16,0.34c-4.9,0.13-9.81,0.25-14.71,0.35c-0.77,0.02-1.34,0.51-1.59,1.21
						c-0.37,1.02-0.69,2.06-0.99,3.1c0.81-0.33,1.62-0.66,2.42-0.99c-3.39-1.45-7.13-1.59-10.55-0.15
						c-2.86,1.21-5.31,3.45-6.67,6.26c-1.42,2.94-1.77,6.34-0.85,9.49c0.88,3.04,2.87,5.66,5.51,7.39c3.3,2.16,7.54,2.65,11.28,1.41
						c-0.68-0.38-1.35-0.77-2.03-1.15c1.64,8.5,5.63,16.45,11.37,22.92c5.72,6.44,13.18,11.28,21.37,13.91
						c8.51,2.73,17.8,3.01,26.48,0.85c8.35-2.07,16.09-6.45,22.22-12.49c6.12-6.03,10.6-13.71,12.8-22.02
						c0.27-1.04,0.51-2.08,0.72-3.14c-0.68,0.38-1.35,0.77-2.03,1.15c5.96,1.9,12.68-0.74,15.62-6.3c2.75-5.2,1.7-11.83-2.65-15.83
						C118.71,45.71,115.53,44.47,112.22,44.45c-2.12-0.02-2.13,3.28,0,3.3c0.32,0,0.64,0.01,0.96,0.04
						c0.14,0.01,0.29,0.02,0.43,0.04c-0.32-0.04,0.23,0.04,0.24,0.04c0.61,0.11,1.21,0.27,1.79,0.48c0.1,0.04,0.21,0.08,0.31,0.12
						c0.5,0.18-0.26-0.14,0.22,0.09c0.25,0.12,0.5,0.24,0.74,0.37c0.24,0.13,0.48,0.27,0.71,0.42c0.11,0.07,0.23,0.15,0.34,0.23
						c0.05,0.03,0.47,0.35,0.26,0.18c0.9,0.71,1.67,1.56,2.17,2.31c0.72,1.09,1.05,1.81,1.36,2.99c0.32,1.18,0.4,2.06,0.3,3.41
						c-0.01,0.14-0.02,0.29-0.04,0.43c-0.04,0.32,0.08-0.38-0.02,0.16c-0.05,0.28-0.1,0.56-0.17,0.83
						c-0.07,0.27-0.14,0.54-0.23,0.81c-0.05,0.16-0.11,0.32-0.16,0.47c0,0-0.2,0.48-0.08,0.22c-0.22,0.5-0.48,0.99-0.77,1.46
						c-0.16,0.25-0.33,0.5-0.51,0.74c-0.18,0.25,0.24-0.28-0.09,0.12c-0.12,0.15-0.25,0.29-0.37,0.43
						c-0.87,0.96-1.47,1.43-2.53,2.04c-1.07,0.61-2.14,0.99-3.53,1.19c0.08-0.01,0.27-0.02-0.07,0.01
						c-0.23,0.02-0.46,0.04-0.69,0.05c-0.37,0.02-0.74,0.02-1.11,0c-0.88-0.05-1.73-0.24-2.57-0.51c-0.8-0.26-1.86,0.3-2.03,1.15
						c-0.8,4.12-2.12,8.04-3.9,11.61c-0.91,1.81-1.93,3.57-3.07,5.25c-1.19,1.76-2.19,3.04-3.61,4.64c-2.74,3.07-5.69,5.62-9,7.78
						c-1.7,1.11-3.47,2.11-5.3,2.99c-1.83,0.88-3.49,1.54-5.55,2.21c-2.01,0.65-4.06,1.15-6.14,1.52c-1.15,0.2-1.78,0.29-2.88,0.4
						c-1.07,0.11-2.14,0.18-3.21,0.22c-4.42,0.15-8.37-0.26-12.58-1.31c-4.08-1.02-7.55-2.41-11.17-4.45
						c-3.65-2.06-6.62-4.31-9.58-7.24C25.3,86,21.18,78.9,19.13,71.07c-0.26-1.01-0.49-2.03-0.69-3.06
						c-0.16-0.84-1.23-1.42-2.03-1.15c-1.52,0.5-3.07,0.69-4.67,0.48c0.32,0.04-0.23-0.04-0.24-0.04c-0.11-0.02-0.22-0.04-0.33-0.07
						c-0.33-0.07-0.66-0.15-0.98-0.25c-0.75-0.23-0.94-0.31-1.6-0.66c-0.53-0.28-1.04-0.6-1.52-0.97c0.24,0.19-0.18-0.15-0.18-0.15
						C6.77,65.11,6.65,65,6.53,64.89c-0.26-0.24-0.51-0.49-0.75-0.75c-0.09-0.1-0.18-0.2-0.27-0.31c0,0-0.33-0.42-0.15-0.18
						c-0.2-0.26-0.38-0.53-0.56-0.81c-0.15-0.23-0.28-0.47-0.41-0.71c-0.08-0.15-0.15-0.29-0.22-0.44c-0.05-0.1-0.09-0.2-0.14-0.3
						c0.06,0.14,0.05,0.12-0.02-0.07c-0.92-2.48-0.99-4.74-0.09-7.22c0.05-0.13,0.1-0.26,0.15-0.39C3.95,54,4.17,53.5,4.17,53.5
						c0.14-0.3,0.3-0.59,0.46-0.87c0.14-0.24,0.29-0.47,0.44-0.69c0.09-0.13,0.19-0.27,0.29-0.4c-0.16,0.21,0.22-0.26,0.26-0.3
						c0.39-0.45,0.82-0.87,1.28-1.26c0,0,0.42-0.33,0.18-0.15c0.13-0.1,0.26-0.19,0.4-0.29c0.27-0.19,0.55-0.36,0.84-0.52
						c1.02-0.58,2.55-1.1,3.61-1.2c1.71-0.15,3.42,0.01,4.99,0.68c0.97,0.41,2.11,0.14,2.42-0.99c0.29-1.05,0.62-2.08,0.99-3.1
						c-0.53,0.4-1.06,0.81-1.59,1.21c8.87-0.18,17.73-0.44,26.6-0.66c4.32-0.11,8.63-0.16,12.95-0.29c2.19-0.07,4.4-0.27,6.44-1.12
						c1.65-0.7,3.07-1.8,4.27-3.13c1.27-1.41,2.33-3.01,3.43-4.55c0.56-0.78,0.89-1.23,1.56-1.98c0.3-0.34,0.62-0.67,0.95-0.98
						c0.39-0.36,0.63-0.55,0.92-0.76c-0.75-0.2-1.51-0.39-2.26-0.59c1.19,2.64,2.38,5.29,3.57,7.93c0.58,1.28,1.15,2.57,1.73,3.85
						c0.53,1.17,1.21,2.26,2.4,2.86c1.21,0.61,2.6,0.73,3.93,0.91c1.43,0.2,2.86,0.36,4.3,0.48c2.83,0.23,5.66,0.29,8.5,0.2
						c3.22-0.11,6.44-0.45,9.62-0.96c-0.68-0.38-1.35-0.77-2.03-1.15c0.2,0.58,0.37,1.18,0.54,1.77c0.22,0.78,1.2,1.5,2.03,1.15
						c1.3-0.54,2.63-0.83,4.04-0.85C114.34,47.73,114.34,44.43,112.22,44.45z"/>
				</g>
			</g>
		</g>
		<g>
			<g>
				<circle class="st5" cx="32.1" cy="65.76" r="9.7"/>
			</g>
			<g>
				<circle class="st5" cx="93.38" cy="65.76" r="9.7"/>
			</g>
		</g>
		<g>
			<g>
				<circle class="st0" cx="48.12" cy="52.17" r="3.06"/>
			</g>
			<g>
				<circle class="st0" cx="77.23" cy="52.17" r="3.06"/>
			</g>
		</g>
		<g>
			<g>
				<path class="st0" d="M60.59,55.64c0.36-0.16-0.34,0.13,0.02-0.01c0.07-0.03,0.14-0.05,0.21-0.08c0.18-0.07,0.37-0.13,0.56-0.18
					c0.34-0.1,0.68-0.17,1.03-0.22c-0.15,0.02-0.29,0.04-0.44,0.06c0.53-0.07,1.05-0.07,1.58-0.01c-0.15-0.02-0.29-0.04-0.44-0.06
					c0.34,0.05,0.66,0.12,0.99,0.23c0.07,0.02,0.15,0.05,0.22,0.08c0.25,0.09,0.03-0.01-0.09-0.04c0.18,0.04,0.37,0.17,0.53,0.26
					c0.76,0.41,1.83,0.21,2.26-0.59c0.41-0.77,0.22-1.82-0.59-2.26c-1.11-0.6-2.34-0.97-3.61-0.97c-1.37-0.01-2.64,0.4-3.88,0.94
					c-0.35,0.15-0.66,0.63-0.76,0.99c-0.11,0.39-0.06,0.92,0.17,1.27c0.23,0.35,0.57,0.66,0.99,0.76
					C59.78,55.91,60.17,55.83,60.59,55.64L60.59,55.64z"/>
			</g>
		</g>
		<g>
			<g>
				<path class="st0" d="M51.49,57.39c0.2,2.31,2.35,3.62,4.28,4.45c2.1,0.9,4.35,1.39,6.64,1.4c2.16,0.01,4.42-0.34,6.45-1.08
					c1.91-0.7,3.81-1.86,4.67-3.79c0.36-0.81,0.24-1.77-0.59-2.26c-0.7-0.41-1.89-0.23-2.26,0.59c-0.53,1.19-1.57,1.87-2.78,2.3
					c-1.61,0.58-3.33,0.9-5.05,0.93c-1.71,0.03-3.36-0.22-4.97-0.79c-0.73-0.26-1.44-0.57-2.1-0.98c-0.36-0.22-0.46-0.3-0.75-0.59
					c-0.15-0.15-0.15-0.16-0.19-0.21c-0.17-0.23-0.08-0.26-0.06,0.03c-0.08-0.89-0.7-1.65-1.65-1.65
					C52.3,55.74,51.41,56.49,51.49,57.39L51.49,57.39z"/>
			</g>
		</g>
		<g>
			<g>
				<path class="st3" d="M84.73,18.4c4.3-2.82,8.46-5.86,12.44-9.13c-1.85-1.35-3.7-2.69-5.55-4.04c-0.28-0.2-0.59-0.41-0.93-0.36
					c-0.25,0.04-0.46,0.21-0.65,0.38c-3.02,2.65-6.03,5.29-9.05,7.94c1.1-3.42,1.4-7.09,0.88-10.65c-0.04-0.29-0.11-0.62-0.36-0.79
					c-0.28-0.19-0.66-0.09-0.98,0c-2.52,0.76-5.17,1.06-7.79,0.89c0.32,3.82,0.54,7.65,0.71,11.49c-3.44-0.81-7.02-1.24-10.71-1.24
					c-20.31,0-37.57,12.96-44.02,31.06c12.46-0.26,26.23-0.69,38.44-0.92c2.56-0.05,5.22-0.12,7.49-1.28
					c4.53-2.31,6.17-8.14,10.35-11.04c1.77,3.93,3.53,7.85,5.3,11.78c0.31,0.69,0.64,1.4,1.22,1.89c0.67,0.56,1.58,0.74,2.44,0.87
					c7.68,1.23,15.55,1.2,23.23-0.03C103.45,33.65,95.3,24.05,84.73,18.4z"/>
			</g>
			<g>
				<g>
					<path class="st0" d="M85.57,19.83c4.42-2.9,8.68-6.04,12.77-9.39c0.9-0.74,0.44-2.03-0.33-2.59c-1.52-1.11-3.04-2.21-4.56-3.32
						c-0.77-0.56-1.55-1.28-2.55-1.31c-1.12-0.03-1.88,0.74-2.67,1.43c-2.8,2.46-5.6,4.92-8.4,7.37c0.92,0.54,1.84,1.07,2.76,1.61
						c1.16-3.68,1.58-7.8,0.86-11.61C83.22,0.85,82.26-0.04,81.03,0c-0.92,0.03-1.85,0.44-2.74,0.63c-1.83,0.39-3.69,0.49-5.56,0.37
						c-0.84-0.05-1.72,0.8-1.65,1.65c0.32,3.82,0.54,7.65,0.71,11.49c0.7-0.53,1.39-1.06,2.09-1.59
						c-9.65-2.24-19.94-1.56-29.14,2.17c-8.21,3.34-15.33,8.82-20.68,15.88c-2.97,3.92-5.28,8.29-6.93,12.92
						c-0.36,1.01,0.58,2.11,1.59,2.09c8.87-0.18,17.73-0.44,26.6-0.66c4.32-0.11,8.63-0.16,12.95-0.29c2.19-0.07,4.4-0.27,6.44-1.12
						c1.65-0.7,3.07-1.8,4.27-3.13c1.27-1.41,2.33-3.01,3.43-4.55c0.56-0.78,0.89-1.23,1.56-1.98c0.3-0.34,0.62-0.67,0.95-0.98
						c0.39-0.36,0.63-0.55,0.92-0.76c-0.75-0.2-1.51-0.39-2.26-0.59c1.19,2.64,2.38,5.29,3.57,7.93c0.58,1.28,1.15,2.57,1.73,3.85
						c0.53,1.17,1.21,2.26,2.4,2.86c1.21,0.61,2.6,0.73,3.93,0.91c1.43,0.2,2.86,0.36,4.3,0.48c2.83,0.23,5.66,0.29,8.5,0.2
						c3.22-0.11,6.44-0.45,9.62-0.96c0.85-0.14,1.41-1.25,1.15-2.03c-3-9.2-8.72-17.41-16.37-23.34c-2.16-1.68-4.44-3.18-6.85-4.47
						c-0.78-0.42-1.8-0.2-2.26,0.59c-0.44,0.75-0.2,1.83,0.59,2.26c7.99,4.29,14.5,10.81,18.75,18.83c1.23,2.33,2.15,4.51,2.96,7.01
						c0.38-0.68,0.77-1.35,1.15-2.03c-5.17,0.82-10.44,1.06-15.67,0.75c-2.48-0.15-5.06-0.31-7.48-0.87
						c-0.45-0.1-0.78-0.2-1.05-0.43c-0.25-0.21-0.51-0.75-0.7-1.17c-0.56-1.21-1.1-2.44-1.65-3.66c-1.26-2.79-2.51-5.59-3.77-8.38
						c-0.34-0.77-1.59-1.07-2.26-0.59c-2.83,2-4.55,4.95-6.61,7.67c-0.2,0.27-0.1,0.13-0.06,0.08c-0.05,0.07-0.11,0.13-0.16,0.2
						c-0.12,0.16-0.25,0.31-0.38,0.46c-0.26,0.3-0.52,0.6-0.8,0.88c-0.27,0.28-0.56,0.55-0.86,0.8c-0.27,0.23-0.34,0.28-0.75,0.54
						c-1.6,1.02-3.45,1.31-5.3,1.41c-4.21,0.23-8.45,0.19-12.66,0.3c-4.39,0.11-8.78,0.22-13.16,0.34
						c-4.9,0.13-9.81,0.25-14.71,0.35c0.53,0.7,1.06,1.39,1.59,2.09c0.71-1.99,1.41-3.6,2.43-5.54c0.96-1.85,2.05-3.63,3.26-5.33
						c2.2-3.12,5.06-6.19,8.17-8.76c2.97-2.45,6.67-4.74,10.4-6.41c0.8-0.36,1.7-0.72,2.7-1.08c0.97-0.35,1.95-0.67,2.94-0.96
						c2.06-0.6,4.17-1.05,6.3-1.35c0.03,0,0.4-0.05,0.23-0.03c-0.06,0.01,0.32-0.04,0.41-0.05c0.3-0.04,0.6-0.07,0.91-0.1
						c0.61-0.06,1.22-0.11,1.83-0.15c1.31-0.08,2.63-0.1,3.95-0.07c3.1,0.07,6.17,0.47,9.19,1.17c1,0.23,2.14-0.48,2.09-1.59
						c-0.17-3.83-0.4-7.66-0.71-11.49c-0.55,0.55-1.1,1.1-1.65,1.65c1.7,0.1,3.38,0,5.06-0.25c0.84-0.13,1.68-0.3,2.5-0.51
						c0.29-0.08,0.75-0.12,1.01-0.28c-0.86-0.85-1.22-1.04-1.08-0.55c0.02,0.09,0.04,0.18,0.05,0.27c0.02,0.12,0.03,0.24,0.04,0.36
						c0.36,3.18,0.05,6.36-0.92,9.41c-0.22,0.69,0.15,1.5,0.76,1.86c0.66,0.39,1.45,0.23,2-0.26c2.49-2.19,4.98-4.38,7.48-6.56
						c0.31-0.27,0.62-0.54,0.92-0.81c0.15-0.13,0.31-0.27,0.46-0.41c0.24-0.22,0.27-0.14-0.21-0.15c-0.6,0-0.29,0.04-0.02,0.22
						c0.17,0.12,0.33,0.24,0.5,0.36c0.33,0.24,0.66,0.48,0.99,0.72c1.36,0.99,2.71,1.97,4.07,2.96C96.22,9.83,96.11,8.97,96,8.1
						c-3.87,3.18-7.92,6.13-12.1,8.87c-0.74,0.49-1.06,1.46-0.59,2.26C83.74,19.97,84.82,20.32,85.57,19.83z"/>
				</g>
			</g>
		</g>
	</g>
</g>
<g id="텍스트">
</g>
</svg>
