<?xml version="1.0" encoding="utf-8"?>
<!-- Generator: Adobe Illustrator 27.0.0, SVG Export Plug-In . SVG Version: 6.00 Build 0)  -->
<svg version="1.1" xmlns="http://www.w3.org/2000/svg" xmlns:xlink="http://www.w3.org/1999/xlink" x="0px" y="0px"
	 viewBox="0 0 140.95 104.44" style="enable-background:new 0 0 140.95 104.44;" xml:space="preserve">
<style type="text/css">
	.st0{fill:#24221E;}
	.st1{fill:#FFE3D4;}
	.st2{fill:#FFB18F;}
	.st3{fill:#F5C140;}
	.st4{fill:#FFEBE6;}
	.st5{fill:#FFBBA6;}
	.st6{fill:#EAEAEA;}
	.st7{fill:#FFFFFF;}
	.st8{fill:#E5C2AA;}
	.st9{fill:#E09F73;}
	.st10{fill:#242322;}
</style>
<g id="배경">
</g>
<g id="이미지">
	<g>
		<g>
			<path class="st3" d="M48.72,86.72c0.46-5.09-1.54-9.91-4.16-14.16c-2.17-3.53-4.81-8.9-8.18-11.34c-2.5-1.81-5.85-2.4-8.82-1.56
				c-6.13,1.74-7.55,8.29-10.73,12.96c-3.36,4.94-7.99,9.02-13.37,11.64c-1.11,0.54-2.42,1.23-2.57,2.46
				c-0.16,1.22,0.93,2.23,1.96,2.91c5.29,3.51,11.98,4.83,18.21,3.59c0.86-0.17,1.73-0.39,2.59-0.27c0.8,0.11,1.54,0.5,2.27,0.84
				c3.8,1.79,8.06,2.6,12.25,2.32c3.03-0.2,6.2-1.07,8.21-3.34C47.84,91.12,48.52,88.91,48.72,86.72z"/>
		</g>
		<g>
			<g>
				<path class="st0" d="M39.59,71.7c-1.94,6.64-6.25,12.68-11.88,16.67c-1.67,1.18-3.44,2.2-5.3,3.04
					c-0.81,0.37-1.01,1.54-0.59,2.26c0.49,0.83,1.44,0.96,2.26,0.59c6.93-3.15,12.74-8.78,16.23-15.53
					c1.01-1.96,1.85-4.03,2.47-6.15C43.37,70.54,40.19,69.67,39.59,71.7L39.59,71.7z"/>
			</g>
		</g>
		<g>
			<g>
				<path class="st0" d="M18.41,61.78c-0.29,1.87-0.8,3.7-1.48,5.47c-0.32,0.85-0.62,1.52-1.07,2.43c-0.45,0.91-0.95,1.8-1.48,2.67
					c-2,3.26-4.71,6.4-7.74,8.56c-1.78,1.27-3.53,2.19-5.44,2.79c-0.85,0.27-1.39,1.15-1.15,2.03c0.23,0.84,1.18,1.42,2.03,1.15
					c8.22-2.57,14.4-10.04,17.63-17.76c0.87-2.08,1.53-4.24,1.88-6.47c0.14-0.88-0.22-1.77-1.15-2.03
					C19.66,60.41,18.55,60.89,18.41,61.78L18.41,61.78z"/>
			</g>
		</g>
		<g>
			<path class="st3" d="M92.23,86.72c-0.46-5.09,1.54-9.91,4.16-14.16c2.17-3.53,4.81-8.9,8.18-11.34c2.5-1.81,5.85-2.4,8.82-1.56
				c6.13,1.74,7.55,8.29,10.73,12.96c3.36,4.94,7.99,9.02,13.37,11.64c1.11,0.54,2.42,1.23,2.57,2.46c0.16,1.22-0.93,2.23-1.96,2.91
				c-5.29,3.51-11.98,4.83-18.21,3.59c-0.86-0.17-1.73-0.39-2.59-0.27c-0.8,0.11-1.54,0.5-2.27,0.84c-3.8,1.79-8.06,2.6-12.25,2.32
				c-3.03-0.2-6.2-1.07-8.21-3.34C93.12,91.12,92.43,88.91,92.23,86.72z"/>
		</g>
		<g>
			<g>
				<path class="st0" d="M98.18,72.58c2.17,7.44,6.9,13.95,13.17,18.48c1.73,1.25,3.58,2.32,5.53,3.21
					c0.81,0.37,1.78,0.23,2.26-0.59c0.41-0.71,0.22-1.89-0.59-2.26c-6.5-2.96-11.72-7.96-15-14.27c-0.93-1.8-1.6-3.46-2.18-5.45
					C100.77,69.67,97.58,70.53,98.18,72.58L98.18,72.58z"/>
			</g>
		</g>
		<g>
			<g>
				<path class="st0" d="M119.35,62.66c0.64,4.11,2.32,8.09,4.51,11.6c2.29,3.68,5.23,6.98,8.77,9.51c1.9,1.35,4,2.43,6.23,3.12
					c0.85,0.27,1.8-0.31,2.03-1.15c0.24-0.89-0.3-1.76-1.15-2.03c-0.98-0.31-1.55-0.54-2.36-0.94c-0.86-0.43-1.69-0.91-2.49-1.45
					c-1.51-1.01-2.93-2.25-4.28-3.68c-1.41-1.48-2.49-2.87-3.59-4.58c-0.55-0.86-1.07-1.74-1.55-2.65
					c-0.23-0.43-0.45-0.87-0.66-1.32c-0.19-0.41-0.43-0.94-0.53-1.18c-0.81-1.97-1.41-4.03-1.74-6.14
					c-0.14-0.88-1.24-1.37-2.03-1.15C119.57,60.89,119.22,61.77,119.35,62.66L119.35,62.66z"/>
			</g>
		</g>
		<g>
			<g>
				<path class="st1" d="M120.55,42.53c-1.59,0-3.11,0.32-4.48,0.91C110.56,23.77,92.51,9.33,71.08,9.33
					c-21.45,0-39.52,14.46-45.01,34.16c-1.41-0.62-2.96-0.96-4.6-0.96c-6.35,0-11.49,5.14-11.49,11.49s5.14,11.49,11.49,11.49
					c1.3,0,2.55-0.23,3.72-0.63c4.13,21.59,23.1,37.91,45.89,37.91c22.78,0,41.74-16.3,45.88-37.86c1.13,0.37,2.34,0.58,3.59,0.58
					c6.35,0,11.49-5.14,11.49-11.49S126.9,42.53,120.55,42.53z"/>
			</g>
			<g>
				<g>
					<path class="st0" d="M120.55,40.88c-1.69,0.02-3.36,0.32-4.92,0.97c0.68,0.38,1.35,0.77,2.03,1.15
						c-2.21-7.84-6.4-15.06-12.11-20.87c-5.66-5.75-12.76-10.05-20.48-12.39c-8.11-2.46-16.87-2.7-25.12-0.77
						c-7.9,1.85-15.26,5.76-21.28,11.18c-6.04,5.44-10.63,12.41-13.3,20.07c-0.33,0.93-0.62,1.88-0.89,2.83
						c0.81-0.33,1.62-0.66,2.42-0.99c-3.51-1.5-7.3-1.56-10.81-0.03c-2.77,1.21-5.13,3.49-6.43,6.22c-1.4,2.95-1.73,6.35-0.79,9.49
						c0.91,3.03,2.9,5.64,5.55,7.35c3.3,2.13,7.5,2.6,11.21,1.37c-0.68-0.38-1.35-0.77-2.03-1.15c1.64,8.5,5.63,16.45,11.37,22.92
						c5.72,6.44,13.18,11.28,21.37,13.91c8.51,2.73,17.8,3.01,26.48,0.85c8.35-2.07,16.09-6.45,22.22-12.49
						c6.12-6.03,10.6-13.71,12.8-22.02c0.27-1.04,0.51-2.08,0.72-3.14c-0.68,0.38-1.35,0.77-2.03,1.15
						c5.96,1.9,12.68-0.74,15.62-6.3c2.75-5.2,1.7-11.83-2.65-15.83C127.05,42.15,123.87,40.9,120.55,40.88
						c-2.12-0.02-2.13,3.28,0,3.3c0.32,0,0.64,0.01,0.96,0.04c0.14,0.01,0.29,0.02,0.43,0.04c-0.32-0.04,0.23,0.04,0.24,0.04
						c0.61,0.11,1.21,0.27,1.79,0.48c0.1,0.04,0.21,0.08,0.31,0.12c0.5,0.18-0.26-0.14,0.22,0.09c0.25,0.12,0.5,0.24,0.74,0.37
						c0.24,0.13,0.48,0.27,0.71,0.42c0.11,0.07,0.23,0.15,0.34,0.23c0.05,0.03,0.47,0.35,0.26,0.18c0.9,0.71,1.67,1.56,2.17,2.31
						c0.72,1.09,1.05,1.81,1.36,2.99c0.32,1.18,0.4,2.06,0.3,3.41c-0.01,0.14-0.02,0.29-0.04,0.43c-0.04,0.32,0.08-0.38-0.02,0.16
						c-0.05,0.28-0.1,0.56-0.17,0.83c-0.07,0.27-0.14,0.54-0.23,0.81c-0.05,0.16-0.11,0.32-0.16,0.47c0,0-0.2,0.48-0.08,0.22
						c-0.22,0.5-0.48,0.99-0.77,1.46c-0.16,0.25-0.33,0.5-0.51,0.74c-0.18,0.25,0.24-0.28-0.09,0.12c-0.12,0.15-0.25,0.29-0.37,0.43
						c-0.87,0.96-1.47,1.43-2.53,2.04c-1.07,0.61-2.14,0.99-3.53,1.19c0.08-0.01,0.27-0.02-0.07,0.01
						c-0.23,0.02-0.46,0.04-0.69,0.05c-0.37,0.02-0.74,0.02-1.11,0c-0.88-0.05-1.73-0.24-2.57-0.51c-0.8-0.26-1.86,0.3-2.03,1.15
						c-0.8,4.12-2.12,8.04-3.9,11.61c-0.91,1.81-1.93,3.57-3.07,5.25c-1.19,1.76-2.19,3.04-3.61,4.64c-2.74,3.07-5.69,5.62-9,7.78
						c-1.7,1.11-3.47,2.11-5.3,2.99c-1.83,0.88-3.49,1.54-5.55,2.21c-2.01,0.65-4.06,1.15-6.14,1.52c-1.15,0.2-1.78,0.29-2.88,0.4
						c-1.07,0.11-2.14,0.18-3.21,0.22c-4.42,0.15-8.37-0.26-12.58-1.31c-4.08-1.02-7.55-2.41-11.17-4.45
						c-3.65-2.06-6.62-4.31-9.58-7.24c-5.74-5.68-9.86-12.78-11.91-20.61c-0.26-1.01-0.49-2.03-0.69-3.06
						c-0.16-0.84-1.23-1.42-2.03-1.15c-1.52,0.51-3.07,0.69-4.67,0.48c0.27,0.03-0.09-0.02-0.15-0.03
						c-0.14-0.02-0.28-0.05-0.42-0.08c-0.33-0.07-0.66-0.15-0.98-0.25c-0.27-0.08-0.53-0.18-0.79-0.27
						c-0.49-0.18,0.26,0.14-0.22-0.09c-0.2-0.1-0.4-0.19-0.59-0.29c-1.19-0.63-1.85-1.14-2.76-2.13c-0.47-0.51-0.57-0.64-0.94-1.22
						c-0.18-0.28-0.34-0.56-0.5-0.85c-0.08-0.15-0.15-0.29-0.22-0.44c-0.01-0.03-0.2-0.46-0.1-0.21c-0.26-0.62-0.45-1.27-0.59-1.92
						c-0.02-0.11-0.05-0.22-0.07-0.33c0,0-0.08-0.56-0.04-0.24c-0.05-0.4-0.08-0.81-0.08-1.21c-0.02-1.34,0.12-2.25,0.6-3.59
						c0.28-0.78,1.09-2.2,1.62-2.82c0.88-1.04,1.59-1.64,2.65-2.26c0.33-0.19,0.68-0.37,1.02-0.53c0.47-0.23-0.28,0.09,0.22-0.09
						c0.16-0.06,0.31-0.12,0.47-0.17c0.37-0.13,0.75-0.23,1.13-0.32c0.17-0.04,0.33-0.07,0.5-0.1c0.03-0.01,0.52-0.08,0.24-0.04
						c1.73-0.22,3.55-0.03,5.15,0.66c0.97,0.41,2.11,0.14,2.42-0.99c2.05-7.32,5.93-14.02,11.25-19.44
						c5.3-5.4,11.91-9.42,19.12-11.59c7.56-2.28,15.67-2.53,23.29-0.75c7.45,1.74,14.34,5.36,19.94,10.43
						c1.41,1.28,2.74,2.64,3.98,4.08c0.3,0.34,0.59,0.69,0.88,1.04c0.14,0.18,0.29,0.35,0.43,0.53c0.07,0.09,0.14,0.18,0.21,0.27
						c0.07,0.09,0.07,0.09,0,0c0.03,0.05,0.07,0.09,0.1,0.14c0.58,0.77,1.15,1.56,1.68,2.36c1.08,1.62,2.05,3.3,2.92,5.04
						c0.21,0.41,0.4,0.82,0.6,1.24c0.18,0.38,0.43,0.96,0.55,1.22c0.3,0.71,0.71,1.77,1.01,2.63c0.32,0.91,0.6,1.82,0.86,2.75
						c0.22,0.78,1.2,1.5,2.03,1.15c1.3-0.54,2.63-0.84,4.05-0.85C122.67,44.16,122.68,40.86,120.55,40.88z"/>
				</g>
			</g>
		</g>
		<g>
			<path class="st3" d="M106.26,10.27c-5.49-3.91-12.99-7.99-19.75-8.4c-3.02-0.18-6.01,0.23-9,0.46c-3.5,0.28-6.53-0.65-9.99-0.96
				c-3.78-0.34-7.61-0.19-11.35,0.44c-7.49,1.25-14.68,4.38-20.56,9.21c-1.35,1.11-2.63,2.3-3.74,3.64
				c-2.58,3.12-7.55,7.1-9.05,10.86c-2.31,5.79-1.19,12.21,1.32,17.92c0.21,0.48,0.47,0.97,0.89,1.28c0.42,0.31,0.95,0.41,1.46,0.47
				c7.46,0.93,16.63-4.37,22.79-8.09c-0.06,1.17,1.2,1.92,2.3,2.31c14.38,5.15,30.26-5.08,37.09-17.73
				c5.73,8.67,9.9,16.76,17.4,21.79c2.58,1.73,3.24,2.41,6.34,2.36c0.73-0.01,1.48-0.12,2.1-0.51c1.03-0.67,3.59-1.94,3.84-3.14
				c0.71-3.36,1.15-4.55,1.24-7.98c0.07-2.73-1.86-7.73-2.54-10.38C115.48,17.62,111.48,13.98,106.26,10.27z"/>
		</g>
		<g>
			<g>
				<circle class="st0" cx="56.52" cy="49.04" r="3.06"/>
			</g>
			<g>
				<circle class="st0" cx="85.63" cy="49.04" r="3.06"/>
			</g>
		</g>
		<g>
			<g>
				<path class="st0" d="M69,52.32c0.36-0.16-0.34,0.13,0.02-0.01c0.07-0.03,0.14-0.05,0.21-0.08c0.18-0.07,0.37-0.13,0.56-0.18
					c0.34-0.1,0.68-0.17,1.03-0.22c-0.15,0.02-0.29,0.04-0.44,0.06c0.53-0.07,1.05-0.07,1.58-0.01c-0.15-0.02-0.29-0.04-0.44-0.06
					c0.34,0.05,0.66,0.12,0.99,0.23c0.07,0.02,0.15,0.05,0.22,0.08c0.25,0.09,0.03-0.01-0.09-0.04c0.18,0.04,0.37,0.17,0.53,0.26
					c0.76,0.41,1.83,0.21,2.26-0.59c0.41-0.77,0.22-1.82-0.59-2.26c-1.11-0.6-2.34-0.97-3.61-0.97c-1.37-0.01-2.64,0.4-3.88,0.94
					c-0.35,0.15-0.66,0.63-0.76,0.99c-0.11,0.39-0.06,0.92,0.17,1.27c0.23,0.35,0.57,0.66,0.99,0.76
					C68.19,52.59,68.57,52.5,69,52.32L69,52.32z"/>
			</g>
		</g>
		<g>
			<g>
				<path class="st0" d="M64.49,58.12c3.96,2.63,9.13,2.71,13.17,0.19c0.76-0.47,1.05-1.47,0.59-2.26c-0.44-0.75-1.5-1.06-2.26-0.59
					c-1.56,0.97-3.16,1.45-4.94,1.42c-1.72-0.03-3.36-0.59-4.9-1.61c-0.74-0.49-1.83-0.15-2.26,0.59
					C63.43,56.67,63.75,57.63,64.49,58.12L64.49,58.12z"/>
			</g>
		</g>
		<g>
			<g>
				<circle class="st2" cx="40.43" cy="62.19" r="9.7"/>
			</g>
			<g>
				<circle class="st2" cx="101.72" cy="62.19" r="9.7"/>
			</g>
		</g>
		<g>
			<g>
				<path class="st0" d="M25.46,44.04c-1.33-1.7-2.12-4.11-2.34-6.22c-0.26-2.49-0.04-4.84,0.5-7.2c1.03-4.47,3.13-8.71,5.91-12.24
					c2.96-3.76,6.5-6.81,10.56-9.2c4.73-2.78,10.03-4.48,15.43-5.36c2.89-0.47,5.79-0.62,8.72-0.49c3.01,0.13,6.01,0.47,9.02,0.46
					c2.76-0.01,5.48-0.48,8.24-0.44c2.6,0.04,4.99,0.34,7.51,0.9c5.13,1.14,9.97,3.2,14.44,5.95c2.16,1.33,4.12,2.68,5.91,4.33
					c1.67,1.55,2.97,3.09,4.14,4.9c1.17,1.81,2.03,3.6,2.67,5.45c0.34,0.99,0.62,2,0.84,3.02c0.11,0.5,0.2,1.01,0.28,1.52
					c0.02,0.11,0.03,0.21,0.05,0.32c-0.04-0.28,0-0.01,0.01,0.04c0.04,0.29,0.07,0.59,0.09,0.88c0.09,1.01,0.12,2.02,0.09,3.03
					c-0.02,0.47-0.04,0.94-0.09,1.41c-0.02,0.23-0.05,0.47-0.07,0.7c-0.04,0.33-0.01,0.09,0,0.03c-0.03,0.18-0.05,0.36-0.08,0.54
					c-0.16,0.94-0.37,1.87-0.65,2.78c-0.14,0.46-0.3,0.92-0.47,1.37c-0.03,0.09-0.27,0.65-0.15,0.38c-0.1,0.23-0.2,0.46-0.31,0.69
					c-0.41,0.87-0.89,1.7-1.43,2.49c-0.5,0.74-0.14,1.83,0.59,2.26c0.81,0.48,1.76,0.15,2.26-0.59c4.99-7.39,4.62-17.26,0.86-25.07
					c-2.14-4.44-5.44-8.09-9.39-10.99c-4.5-3.3-9.56-5.89-14.88-7.58C88.5,0.46,82.9-0.32,77.45,0.24
					c-3.13,0.32-6.19,0.26-9.33,0.05c-3.17-0.22-6.35-0.44-9.52-0.14C47.41,1.2,36.55,5.63,28.9,14.05
					c-3.42,3.76-6.12,8.17-7.71,13.01c-1.63,4.95-2.25,10.73-0.21,15.66c0.55,1.34,1.25,2.52,2.14,3.66c0.55,0.7,1.76,0.58,2.33,0
					C26.15,45.68,26.01,44.74,25.46,44.04L25.46,44.04z"/>
			</g>
		</g>
		<g>
			<g>
				<path class="st0" d="M85.82,20.82c-0.82,3.46-2.79,6.36-5.43,8.78c-2.8,2.58-6.35,4.47-9.95,5.93c-2.28,0.92-4.6,1.72-6.92,2.51
					c-0.84,0.29-1.4,1.13-1.15,2.03c0.23,0.82,1.18,1.44,2.03,1.15c8.18-2.79,16.8-5.95,21.88-13.4c1.26-1.85,2.21-3.94,2.72-6.12
					c0.2-0.87-0.27-1.79-1.15-2.03C87.02,19.44,86.03,19.95,85.82,20.82L85.82,20.82z"/>
			</g>
		</g>
		<g>
			<g>
				<path class="st0" d="M58.54,25.57c-4.18,5.56-9.68,10.17-15.87,13.41c-1.76,0.93-3.48,1.69-5.32,2.37
					c-0.84,0.31-1.4,1.12-1.15,2.03c0.22,0.8,1.19,1.46,2.03,1.15c7.12-2.64,13.62-6.83,18.91-12.29c1.53-1.58,2.93-3.26,4.25-5.01
					c0.54-0.71,0.11-1.84-0.59-2.26C59.95,24.48,59.08,24.85,58.54,25.57L58.54,25.57z"/>
			</g>
		</g>
		<g>
			<g>
				<path class="st0" d="M90.33,26.61c2.69,6.98,6.96,14.28,13.79,17.9c1.89,1.01,3.92,1.63,6.06,1.79
					c0.89,0.07,1.65-0.81,1.65-1.65c0-0.95-0.76-1.58-1.65-1.65c-0.11-0.01-0.23-0.02-0.34-0.03c0,0-0.28-0.03-0.12-0.01
					c0.16,0.02-0.12-0.02-0.12-0.02c-0.11-0.02-0.22-0.04-0.34-0.06c-0.39-0.07-0.78-0.17-1.16-0.28c-0.36-0.1-0.71-0.22-1.06-0.36
					c-0.03-0.01-0.36-0.14-0.2-0.08c0.13,0.06-0.13-0.06-0.12-0.05c-0.21-0.1-0.42-0.19-0.63-0.3c-1.48-0.75-2.69-1.61-3.84-2.64
					c-2.55-2.27-4.45-4.8-6.11-7.77c-1.02-1.82-1.89-3.74-2.64-5.68c-0.32-0.83-1.11-1.41-2.03-1.15
					C90.69,24.8,90.01,25.77,90.33,26.61L90.33,26.61z"/>
			</g>
		</g>
	</g>
</g>
<g id="텍스트">
</g>
</svg>
