<?xml version="1.0" encoding="utf-8"?>
<!-- Generator: Adobe Illustrator 27.0.0, SVG Export Plug-In . SVG Version: 6.00 Build 0)  -->
<svg version="1.1" xmlns="http://www.w3.org/2000/svg" xmlns:xlink="http://www.w3.org/1999/xlink" x="0px" y="0px"
	 viewBox="0 0 138.77 96.75" style="enable-background:new 0 0 138.77 96.75;" xml:space="preserve">
<style type="text/css">
	.st0{fill:#24221E;}
	.st1{fill:#FFE3D4;}
	.st2{fill:#FFB18F;}
	.st3{fill:#F5C140;}
	.st4{fill:#FFEBE6;}
	.st5{fill:#FFBBA6;}
	.st6{fill:#EAEAEA;}
	.st7{fill:#FFFFFF;}
	.st8{fill:#E5C2AA;}
	.st9{fill:#E09F73;}
	.st10{fill:#242322;}
</style>
<g id="배경">
</g>
<g id="이미지">
	<g>
		<g>
			<g>
				<path class="st0" d="M41.28,87.71C64.8,85.72,78.54,61.22,83.25,40.6c1.33-5.8,2.1-11.83,1.21-17.71
					c-0.89-5.89-3.59-11.66-8.24-15.38c-10.07-8.06-24.63-1.1-33.5,5.66c-7.24,5.52-13.07,13.15-21.45,16.68
					c-3.69,1.56-7.71,2.24-11.4,3.81s-7.22,4.37-8.09,8.28s2.19,8.66,6.18,8.25c-2.19,2.03-4.49,4.25-5.17,7.16
					c-0.76,3.25,0.8,6.8,3.45,8.84s6.19,2.7,9.5,2.27c-1.91,2.55-1.61,6.28,0.03,9.02s4.38,4.63,7.2,6.12
					C28.57,86.55,34.96,88.24,41.28,87.71z"/>
			</g>
			<g>
				<g>
					<path class="st0" d="M41.28,89.36c6.24-0.54,12.23-2.61,17.47-6.05c5.21-3.41,9.56-7.92,13.2-12.94
						c3.68-5.07,6.57-10.68,8.89-16.49c2.45-6.15,4.28-12.62,5.17-19.18c1.08-7.99,0.43-16.55-4.17-23.43
						c-2.03-3.03-4.76-5.7-8.09-7.25c-3.13-1.46-6.59-1.99-10.03-1.71c-6.97,0.56-13.59,3.73-19.3,7.61
						c-6.03,4.1-10.86,9.57-16.58,14.05c-2.76,2.17-5.96,4.04-9.38,5.18c-3.89,1.3-8.01,2.09-11.59,4.18
						c-3.07,1.79-5.88,4.6-6.67,8.18c-0.74,3.34,0.64,6.97,3.37,9.02c1.25,0.94,2.84,1.45,4.4,1.31c-0.39-0.94-0.78-1.88-1.17-2.82
						c-3.05,2.84-6.25,6.28-5.81,10.79c0.44,4.45,3.49,7.94,7.59,9.51c2.25,0.86,4.78,1.07,7.16,0.78
						c-0.47-0.83-0.95-1.66-1.42-2.48c-1.54,2.12-1.82,4.89-1.28,7.4c0.55,2.53,2.07,4.78,3.97,6.5c1.92,1.75,4.2,3.09,6.53,4.21
						c2.62,1.26,5.37,2.27,8.21,2.91C34.86,89.33,38.09,89.62,41.28,89.36c0.89-0.07,1.65-0.71,1.65-1.65
						c0-0.84-0.76-1.72-1.65-1.65c-5.01,0.4-10.03-0.58-14.65-2.55c-2.18-0.93-4.33-2.05-6.24-3.46c-1.54-1.14-3.12-2.84-3.77-4.56
						c-0.82-2.17-0.81-4.35,0.54-6.22c0.69-0.95-0.22-2.63-1.42-2.48c-3.39,0.42-6.99-0.23-9.37-2.72c-2.19-2.28-2.79-5.51-1.2-8.27
						c0.99-1.71,2.49-3.09,3.96-4.46c1-0.93,0.27-2.94-1.17-2.82c-0.16,0.01-0.32,0.02-0.47,0.02c-0.1,0-0.21-0.01-0.31-0.01
						c-0.02,0-0.27-0.03-0.09,0c0.15,0.02-0.23-0.05-0.3-0.07c-0.17-0.04-0.34-0.1-0.5-0.16c-0.06-0.02-0.28-0.13-0.02-0.01
						c-0.07-0.03-0.14-0.06-0.2-0.1c-0.13-0.08-0.27-0.15-0.39-0.23c-0.06-0.04-0.36-0.25-0.27-0.18c0.13,0.1-0.06-0.06-0.07-0.06
						c-0.09-0.09-0.19-0.17-0.29-0.26c-0.11-0.11-0.22-0.22-0.33-0.34c-0.05-0.06-0.28-0.34-0.22-0.26
						c-0.07-0.09-0.38-0.58-0.52-0.84c-0.08-0.14-0.15-0.29-0.22-0.43c-0.08-0.17-0.01-0.01,0.01,0.02c-0.04-0.1-0.08-0.2-0.11-0.3
						c-0.12-0.33-0.2-0.67-0.28-1.02c-0.01-0.04-0.07-0.37-0.04-0.18c0.03,0.17-0.01-0.09-0.01-0.1c-0.01-0.16-0.03-0.32-0.03-0.48
						c0-0.16,0-0.32,0-0.48c0-0.11,0.07-0.64,0.02-0.36c0.06-0.35,0.15-0.69,0.25-1.02c0.15-0.46,0.21-0.61,0.38-0.95
						c0.7-1.39,1.68-2.47,2.88-3.41c2.79-2.2,6.41-3.15,9.85-4.16c3.67-1.08,7.16-2.43,10.36-4.56c5.94-3.94,10.64-9.38,16.22-13.77
						c4.92-3.87,10.73-7.14,16.83-8.61c1.62-0.39,2.84-0.58,4.43-0.65c0.8-0.04,1.61-0.03,2.41,0.03c0.85,0.06,1.18,0.11,2.01,0.28
						c3.11,0.65,5.69,2.15,7.92,4.45c4.98,5.14,6.6,12.59,6.29,19.68c-0.3,6.69-2.03,13.37-4.24,19.67
						c-0.48,1.36-0.99,2.71-1.54,4.04c-0.07,0.18-0.15,0.36-0.22,0.54c-0.11,0.26,0.02-0.04-0.09,0.22
						c-0.15,0.36-0.31,0.72-0.47,1.08c-0.3,0.67-0.6,1.33-0.91,1.99c-1.27,2.67-2.69,5.27-4.27,7.76
						c-3.08,4.86-6.67,9.21-11.26,12.94c-0.59,0.48-0.8,0.64-1.47,1.13c-0.57,0.41-1.15,0.81-1.73,1.19
						c-1.2,0.78-2.44,1.49-3.72,2.13c-0.63,0.31-1.27,0.61-1.91,0.89c-0.25,0.11,0.2-0.08-0.06,0.02c-0.08,0.03-0.15,0.06-0.23,0.09
						c-0.15,0.06-0.3,0.12-0.45,0.18c-0.36,0.14-0.71,0.27-1.07,0.4c-1.35,0.48-2.73,0.87-4.13,1.17c-0.71,0.16-1.43,0.29-2.15,0.4
						c-0.17,0.03-0.34,0.05-0.51,0.07c0.24-0.03-0.17,0.02-0.24,0.03c-0.4,0.05-0.8,0.09-1.2,0.12c-0.89,0.08-1.65,0.7-1.65,1.65
						C39.63,88.54,40.38,89.44,41.28,89.36z"/>
				</g>
			</g>
		</g>
		<g>
			<g>
				<g>
					<path class="st0" d="M49.53,33.08c11.5-3.57,22.38-9.18,31.96-16.47c7.29,7.66,16.11,13.85,25.8,18.09
						c2.31,1.01,4.72,1.93,7.24,2.11c2.39,0.18,4.69-0.3,6.89-1.16c-0.08,0.03-0.16,0.05-0.24,0.09
						C115.67,16.08,97.62,1.64,76.19,1.64c-20.95,0-38.66,13.79-44.59,32.78C37.33,36.13,43.73,34.89,49.53,33.08z"/>
				</g>
				<g>
					<g>
						<path class="st0" d="M49.97,34.68c9.07-2.83,17.78-6.87,25.77-12.02c2.25-1.45,4.45-2.99,6.59-4.61
							c-0.67-0.09-1.33-0.17-2-0.26c4.21,4.41,8.92,8.35,14,11.73c2.48,1.65,5.06,3.16,7.71,4.52c2.78,1.43,5.68,2.84,8.69,3.74
							c3.72,1.1,7.53,0.88,11.13-0.52c0.83-0.32,1.41-1.11,1.15-2.03c-0.22-0.81-1.19-1.46-2.03-1.15
							c-0.08,0.03-0.16,0.06-0.24,0.09c0.68,0.38,1.35,0.77,2.03,1.15c-2.18-7.73-6.28-14.86-11.87-20.63
							C105.35,8.95,98.37,4.64,90.77,2.23c-7.96-2.52-16.56-2.89-24.72-1.17c-7.91,1.67-15.3,5.41-21.43,10.67
							c-6.08,5.22-10.77,11.97-13.64,19.45c-0.36,0.93-0.68,1.86-0.98,2.81c-0.27,0.86,0.32,1.79,1.15,2.03
							C37.36,37.82,43.95,36.54,49.97,34.68c0.85-0.26,1.39-1.15,1.15-2.03c-0.23-0.84-1.18-1.42-2.03-1.15
							c-5.46,1.69-11.42,2.98-17.05,1.34c0.38,0.68,0.77,1.35,1.15,2.03c1.15-3.67,2.62-6.89,4.69-10.23
							c2.02-3.25,4.19-5.95,6.99-8.66c5.36-5.2,12.01-9.03,19.22-11.03c7.49-2.08,15.51-2.19,23.02-0.31
							c3.82,0.95,7.1,2.23,10.48,4.07c1.68,0.91,3.3,1.93,4.86,3.04c1.43,1.02,2.75,2.09,4.16,3.39c1.38,1.27,2.68,2.62,3.9,4.04
							c1.23,1.44,2.15,2.65,3.23,4.29c1.06,1.6,2.01,3.26,2.87,4.97c0.88,1.77,1.46,3.14,2.11,5.02c0.32,0.91,0.6,1.82,0.86,2.75
							c0.23,0.8,1.19,1.47,2.03,1.15c0.08-0.03,0.16-0.06,0.24-0.09c-0.29-1.06-0.58-2.12-0.88-3.18c-2.84,1.1-5.74,1.47-8.72,0.7
							c-2.85-0.74-5.56-2.07-8.18-3.39c-5.06-2.57-9.87-5.67-14.25-9.27c-2.52-2.07-4.92-4.3-7.17-6.66c-0.45-0.48-1.44-0.69-2-0.26
							c-7.37,5.59-15.49,10.24-24.09,13.66c-2.46,0.98-4.95,1.86-7.48,2.64c-0.85,0.27-1.39,1.15-1.15,2.03
							C48.17,34.36,49.11,34.94,49.97,34.68z"/>
					</g>
				</g>
			</g>
			<g>
				<g>
					<path class="st1" d="M125.67,34.84c-1.5,0-2.93,0.3-4.25,0.82c-2.2,0.87-4.5,1.34-6.89,1.16c-2.52-0.19-4.92-1.1-7.24-2.11
						c-9.68-4.24-18.51-10.43-25.8-18.09c-9.59,7.29-20.46,12.89-31.96,16.47c-5.8,1.8-12.2,3.05-17.93,1.34
						c-0.14,0.46-0.29,0.92-0.42,1.38c-1.41-0.62-2.96-0.96-4.6-0.96c-6.35,0-11.49,5.14-11.49,11.49s5.14,11.49,11.49,11.49
						c1.3,0,2.55-0.23,3.72-0.63c4.13,21.59,23.1,37.91,45.89,37.91c22.78,0,41.74-16.3,45.88-37.86c1.13,0.37,2.34,0.58,3.59,0.58
						c6.35,0,11.49-5.14,11.49-11.49S132.01,34.84,125.67,34.84z"/>
				</g>
				<g>
					<g>
						<path class="st0" d="M125.67,33.19c-1.8,0.02-3.44,0.43-5.11,1.04c-1.49,0.55-3.05,0.93-4.65,0.97
							c-3.29,0.09-6.4-1.26-9.33-2.62c-5.66-2.62-11.04-5.91-15.92-9.81c-2.83-2.26-5.5-4.71-8-7.33c-0.45-0.48-1.44-0.69-2-0.26
							c-5.5,4.18-11.41,7.8-17.63,10.81c-3.05,1.47-6.17,2.79-9.35,3.95c-3.32,1.21-6.71,2.3-10.17,3
							c-3.78,0.76-7.74,0.98-11.48-0.11c-0.88-0.26-1.77,0.31-2.03,1.15c-0.14,0.46-0.28,0.92-0.42,1.38
							c0.81-0.33,1.62-0.66,2.42-0.99c-3.51-1.5-7.3-1.56-10.81-0.03c-2.77,1.21-5.13,3.49-6.43,6.22c-1.4,2.95-1.73,6.35-0.79,9.49
							c0.91,3.03,2.9,5.64,5.55,7.35c3.3,2.13,7.5,2.6,11.21,1.37c-0.68-0.38-1.35-0.77-2.03-1.15c1.64,8.5,5.63,16.45,11.37,22.92
							C45.8,87,53.26,91.84,61.45,94.47c8.51,2.73,17.8,3.01,26.48,0.85c8.35-2.07,16.09-6.45,22.22-12.49
							c6.12-6.03,10.6-13.71,12.8-22.02c0.27-1.04,0.51-2.08,0.72-3.14c-0.68,0.38-1.35,0.77-2.03,1.15
							c5.96,1.9,12.68-0.74,15.62-6.3c2.75-5.2,1.7-11.83-2.65-15.83C132.16,34.46,128.98,33.21,125.67,33.19
							c-2.12-0.02-2.13,3.28,0,3.3c0.32,0,0.64,0.01,0.96,0.04c0.14,0.01,0.29,0.02,0.43,0.04c-0.32-0.04,0.23,0.04,0.24,0.04
							c0.61,0.11,1.21,0.27,1.79,0.48c0.1,0.04,0.21,0.08,0.31,0.12c0.5,0.18-0.26-0.14,0.22,0.09c0.25,0.12,0.5,0.24,0.74,0.37
							c0.24,0.13,0.48,0.27,0.71,0.42c0.11,0.07,0.23,0.15,0.34,0.23c0.05,0.03,0.47,0.35,0.26,0.18c0.9,0.71,1.67,1.56,2.17,2.31
							c0.72,1.09,1.05,1.81,1.36,2.99c0.32,1.18,0.4,2.06,0.3,3.41c-0.01,0.14-0.02,0.29-0.04,0.43c-0.04,0.32,0.08-0.38-0.02,0.16
							c-0.05,0.28-0.1,0.56-0.17,0.83c-0.07,0.27-0.14,0.54-0.23,0.81c-0.05,0.16-0.11,0.32-0.16,0.47c0,0-0.2,0.48-0.08,0.22
							c-0.22,0.5-0.48,0.99-0.77,1.46c-0.16,0.25-0.33,0.5-0.51,0.74c-0.18,0.25,0.24-0.28-0.09,0.12
							c-0.12,0.15-0.25,0.29-0.37,0.43c-0.87,0.96-1.47,1.43-2.53,2.04c-1.07,0.61-2.14,0.99-3.53,1.19
							c0.08-0.01,0.27-0.02-0.07,0.01c-0.23,0.02-0.46,0.04-0.69,0.05c-0.37,0.02-0.74,0.02-1.11,0c-0.88-0.05-1.73-0.24-2.57-0.51
							c-0.8-0.26-1.86,0.3-2.03,1.15c-0.8,4.12-2.12,8.04-3.9,11.61c-0.91,1.81-1.93,3.57-3.07,5.25c-1.19,1.76-2.19,3.04-3.61,4.64
							c-2.74,3.07-5.69,5.62-9,7.78c-1.7,1.11-3.47,2.11-5.3,2.99c-1.83,0.88-3.49,1.54-5.55,2.21c-2.01,0.65-4.06,1.15-6.14,1.52
							c-1.15,0.2-1.78,0.29-2.88,0.4c-1.07,0.11-2.14,0.18-3.21,0.22c-4.42,0.15-8.37-0.26-12.58-1.31
							c-4.08-1.02-7.55-2.41-11.17-4.45c-3.65-2.06-6.62-4.31-9.58-7.24c-5.74-5.68-9.86-12.78-11.91-20.61
							c-0.26-1.01-0.49-2.03-0.69-3.06c-0.16-0.84-1.23-1.42-2.03-1.15c-1.52,0.51-3.07,0.69-4.67,0.48
							c0.27,0.03-0.09-0.02-0.15-0.03c-0.14-0.02-0.28-0.05-0.42-0.08c-0.33-0.07-0.66-0.15-0.98-0.25
							c-0.27-0.08-0.53-0.18-0.79-0.27c-0.49-0.18,0.26,0.14-0.22-0.09c-0.2-0.1-0.4-0.19-0.59-0.29c-1.19-0.63-1.85-1.14-2.76-2.13
							c-0.47-0.51-0.57-0.64-0.94-1.22c-0.18-0.28-0.34-0.56-0.5-0.85c-0.08-0.15-0.15-0.29-0.22-0.44c-0.01-0.03-0.2-0.46-0.1-0.21
							c-0.26-0.62-0.45-1.27-0.59-1.92c-0.02-0.11-0.05-0.22-0.07-0.33c0,0-0.08-0.56-0.04-0.24c-0.05-0.4-0.08-0.81-0.08-1.21
							c-0.02-1.34,0.12-2.25,0.6-3.59c0.28-0.78,1.09-2.2,1.62-2.82c0.88-1.04,1.59-1.64,2.65-2.26c0.33-0.19,0.68-0.37,1.02-0.53
							c0.47-0.23-0.28,0.09,0.22-0.09c0.16-0.06,0.31-0.12,0.47-0.17c0.37-0.13,0.75-0.23,1.13-0.32c0.17-0.04,0.33-0.07,0.5-0.1
							c0.03-0.01,0.52-0.08,0.24-0.04c1.73-0.22,3.55-0.03,5.15,0.66c0.97,0.41,2.1,0.14,2.42-0.99c0.13-0.46,0.27-0.92,0.42-1.38
							c-0.68,0.38-1.35,0.77-2.03,1.15c7.28,2.12,15.02,0.03,21.95-2.37c6.73-2.33,13.23-5.33,19.35-8.96
							c3.41-2.02,6.71-4.24,9.87-6.64c-0.67-0.09-1.33-0.17-2-0.26c4.55,4.77,9.69,8.99,15.25,12.54c2.75,1.76,5.61,3.34,8.56,4.75
							c3.22,1.54,6.57,3.05,10.16,3.38c2.02,0.19,4.11-0.09,6.05-0.68c0.92-0.28,1.79-0.68,2.72-0.93c0.86-0.24,1.7-0.35,2.59-0.35
							C127.79,36.47,127.79,33.17,125.67,33.19z"/>
					</g>
				</g>
			</g>
		</g>
		<g>
			<g>
				<circle class="st0" cx="61.64" cy="41.35" r="3.06"/>
			</g>
			<g>
				<circle class="st0" cx="90.75" cy="41.35" r="3.06"/>
			</g>
		</g>
		<g>
			<g>
				<path class="st0" d="M74.11,44.63c0.36-0.16-0.34,0.13,0.02-0.01c0.07-0.03,0.14-0.05,0.21-0.08c0.18-0.07,0.37-0.13,0.56-0.18
					c0.34-0.1,0.68-0.17,1.03-0.22c-0.15,0.02-0.29,0.04-0.44,0.06c0.53-0.07,1.05-0.07,1.58-0.01c-0.15-0.02-0.29-0.04-0.44-0.06
					c0.34,0.05,0.66,0.12,0.99,0.23c0.07,0.02,0.15,0.05,0.22,0.08c0.25,0.09,0.03-0.01-0.09-0.04c0.18,0.04,0.37,0.17,0.53,0.26
					c0.76,0.41,1.83,0.21,2.26-0.59c0.41-0.77,0.22-1.82-0.59-2.26c-1.11-0.6-2.34-0.97-3.61-0.97c-1.37-0.01-2.64,0.4-3.88,0.94
					c-0.35,0.15-0.66,0.63-0.76,0.99c-0.11,0.39-0.06,0.92,0.17,1.27c0.23,0.35,0.57,0.66,0.99,0.76
					C73.3,44.9,73.68,44.81,74.11,44.63L74.11,44.63z"/>
			</g>
		</g>
		<g>
			<g>
				<path class="st0" d="M63.39,50.43c7.86,4.41,17.64,4.53,25.61,0.33c0.79-0.41,1.03-1.51,0.59-2.26
					c-0.47-0.8-1.47-1.01-2.26-0.59c-6.92,3.64-15.45,3.5-22.28-0.33C63.2,46.54,61.53,49.39,63.39,50.43L63.39,50.43z"/>
			</g>
		</g>
		<g>
			<g>
				<circle class="st2" cx="45.55" cy="54.5" r="9.7"/>
			</g>
			<g>
				<circle class="st2" cx="106.84" cy="54.5" r="9.7"/>
			</g>
		</g>
	</g>
</g>
<g id="텍스트">
</g>
</svg>
